G04 EAGLE Gerber RS-274X export*
G75*
%MOMM*%
%FSLAX34Y34*%
%LPD*%
%INSoldermask Top*%
%IPPOS*%
%AMOC8*
5,1,8,0,0,1.08239X$1,22.5*%
G01*
%ADD10C,1.311200*%
%ADD11C,1.727200*%
%ADD12C,6.045200*%
%ADD13C,1.727200*%
%ADD14P,1.869504X8X292.500000*%
%ADD15R,0.703200X2.403200*%
%ADD16R,0.903200X0.803200*%
%ADD17R,1.103200X0.903200*%
%ADD18R,1.503200X1.753200*%
%ADD19R,1.115000X0.815000*%


D10*
X177800Y164560D02*
X177800Y175640D01*
X165100Y175640D02*
X165100Y164560D01*
X152400Y164560D02*
X152400Y175640D01*
D11*
X398780Y163750D02*
X414020Y163750D01*
X414020Y138350D02*
X398780Y138350D01*
X398780Y112950D02*
X414020Y112950D01*
X414020Y87550D02*
X398780Y87550D01*
X398780Y62150D02*
X414020Y62150D01*
X414020Y36750D02*
X398780Y36750D01*
X449580Y163750D02*
X464820Y163750D01*
X464820Y138350D02*
X449580Y138350D01*
X449580Y112950D02*
X464820Y112950D01*
X464820Y87550D02*
X449580Y87550D01*
X449580Y62150D02*
X464820Y62150D01*
X464820Y36750D02*
X449580Y36750D01*
D12*
X331000Y48000D03*
X43000Y153000D03*
D13*
X317500Y163750D03*
D14*
X317500Y138350D03*
X317500Y112950D03*
X342900Y163750D03*
X342900Y138350D03*
X342900Y112950D03*
D15*
X184150Y95040D03*
X171550Y95040D03*
X158850Y95040D03*
X146150Y95040D03*
X184150Y31960D03*
X171450Y31960D03*
X158750Y31960D03*
X146050Y31960D03*
D16*
X234950Y58500D03*
X234950Y68500D03*
X120650Y58500D03*
X120650Y68500D03*
X260350Y58500D03*
X260350Y68500D03*
X247650Y58500D03*
X247650Y68500D03*
X273050Y58500D03*
X273050Y68500D03*
D17*
X209550Y57000D03*
X209550Y70000D03*
X222250Y57000D03*
X222250Y70000D03*
D18*
X66950Y23750D03*
X66950Y103250D03*
X21950Y23750D03*
X21950Y103250D03*
D19*
X101600Y71000D03*
X101600Y56000D03*
M02*
