M48
;GenerationSoftware,Autodesk,EAGLE,9.6.2*%
;CreationDate,2021-02-18T11:27:45Z*%
FMAT,2
ICI,OFF
METRIC,TZ,000.000
T5C0.300
T4C0.350
T3C0.600
T2C1.016
T1C3.000
%
G90
M71
T1
X4300Y15300
X33100Y4800
T2
X40640Y11295
X40640Y3675
X40640Y13835
X40640Y6215
X40640Y16375
X45720Y13835
X40640Y8755
X45720Y16375
X45720Y11295
X45720Y8755
X45720Y6215
X45720Y3675
X31750Y16375
X31750Y13835
X31750Y11295
X34290Y16375
X34290Y13835
X34290Y11295
T3
X15240Y17010
X16510Y17010
X17780Y17010
T4
X20320Y17780
X29210Y9525
X38100Y13970
X21590Y13335
X27305Y13970
X29210Y12065
X37465Y10160
X4445Y6350
X13335Y3810
X19685Y3175
X21590Y1905
X26035Y2540
X15240Y1270
X12065Y635
X17780Y12700
T5
X26670Y4128
X26352Y12382
X18733Y7620
X17145Y5080
X26670Y5080
X20003Y6985
X17145Y6985
X19050Y11112
X12382Y10160
X26987Y8255
M30