G04 EAGLE Gerber RS-274X export*
G75*
%MOMM*%
%FSLAX34Y34*%
%LPD*%
%INTop Copper*%
%IPPOS*%
%AMOC8*
5,1,8,0,0,1.08239X$1,22.5*%
G01*
%ADD10C,1.108000*%
%ADD11C,1.828800*%
%ADD12C,5.842000*%
%ADD13C,1.828800*%
%ADD14P,1.979475X8X292.500000*%
%ADD15R,0.500000X2.200000*%
%ADD16R,0.700000X0.600000*%
%ADD17R,0.900000X0.700000*%
%ADD18R,1.300000X1.550000*%
%ADD19R,0.911800X0.611800*%
%ADD20C,0.254000*%
%ADD21C,0.452400*%
%ADD22C,0.502400*%

G36*
X145086Y2002D02*
X145086Y2002D01*
X145095Y2001D01*
X145288Y2022D01*
X145478Y2041D01*
X145486Y2043D01*
X145495Y2044D01*
X145680Y2103D01*
X145863Y2159D01*
X145871Y2163D01*
X145879Y2166D01*
X146047Y2259D01*
X146217Y2351D01*
X146224Y2356D01*
X146231Y2361D01*
X146379Y2485D01*
X146526Y2608D01*
X146532Y2615D01*
X146538Y2621D01*
X146658Y2773D01*
X146778Y2922D01*
X146783Y2930D01*
X146788Y2937D01*
X146876Y3110D01*
X146964Y3279D01*
X146966Y3288D01*
X146970Y3296D01*
X147022Y3482D01*
X147075Y3666D01*
X147076Y3675D01*
X147078Y3684D01*
X147093Y3877D01*
X147108Y4068D01*
X147107Y4076D01*
X147108Y4085D01*
X147084Y4278D01*
X147061Y4467D01*
X147059Y4476D01*
X147057Y4485D01*
X146996Y4667D01*
X146936Y4850D01*
X146932Y4858D01*
X146929Y4866D01*
X146833Y5033D01*
X146739Y5201D01*
X146733Y5208D01*
X146728Y5215D01*
X146514Y5468D01*
X108890Y43092D01*
X108869Y43109D01*
X108851Y43130D01*
X108714Y43236D01*
X108578Y43347D01*
X108554Y43360D01*
X108533Y43376D01*
X108376Y43454D01*
X108222Y43536D01*
X108197Y43544D01*
X108173Y43556D01*
X108003Y43601D01*
X107836Y43651D01*
X107810Y43653D01*
X107784Y43660D01*
X107453Y43687D01*
X88584Y43687D01*
X88137Y44134D01*
X88137Y82866D01*
X88584Y83313D01*
X139078Y83313D01*
X139096Y83315D01*
X139114Y83313D01*
X139296Y83334D01*
X139479Y83353D01*
X139496Y83358D01*
X139513Y83360D01*
X139688Y83417D01*
X139864Y83471D01*
X139879Y83479D01*
X139896Y83485D01*
X140056Y83575D01*
X140218Y83663D01*
X140231Y83674D01*
X140247Y83683D01*
X140386Y83803D01*
X140527Y83920D01*
X140538Y83934D01*
X140552Y83946D01*
X140664Y84091D01*
X140779Y84234D01*
X140787Y84250D01*
X140798Y84264D01*
X140880Y84429D01*
X140965Y84591D01*
X140970Y84608D01*
X140978Y84624D01*
X141025Y84803D01*
X141076Y84978D01*
X141078Y84996D01*
X141082Y85013D01*
X141109Y85344D01*
X141109Y93009D01*
X146150Y93009D01*
X146167Y93010D01*
X146185Y93009D01*
X146368Y93030D01*
X146550Y93048D01*
X146567Y93054D01*
X146585Y93056D01*
X146760Y93113D01*
X146935Y93167D01*
X146951Y93175D01*
X146968Y93181D01*
X147128Y93271D01*
X147289Y93358D01*
X147303Y93370D01*
X147318Y93379D01*
X147458Y93499D01*
X147598Y93616D01*
X147599Y93616D01*
X147599Y93617D01*
X147610Y93630D01*
X147623Y93642D01*
X147624Y93642D01*
X147736Y93787D01*
X147851Y93930D01*
X147860Y93946D01*
X147870Y93960D01*
X147952Y94125D01*
X148037Y94288D01*
X148042Y94305D01*
X148050Y94321D01*
X148098Y94499D01*
X148148Y94675D01*
X148150Y94692D01*
X148154Y94710D01*
X148181Y95040D01*
X148181Y108581D01*
X148985Y108581D01*
X149631Y108408D01*
X150210Y108073D01*
X150683Y107600D01*
X151018Y107021D01*
X151086Y106765D01*
X151134Y106637D01*
X151175Y106506D01*
X151205Y106449D01*
X151228Y106389D01*
X151301Y106272D01*
X151367Y106152D01*
X151408Y106102D01*
X151442Y106048D01*
X151537Y105948D01*
X151624Y105842D01*
X151674Y105802D01*
X151719Y105755D01*
X151831Y105676D01*
X151938Y105590D01*
X151995Y105560D01*
X152048Y105523D01*
X152174Y105468D01*
X152295Y105404D01*
X152357Y105387D01*
X152416Y105361D01*
X152550Y105331D01*
X152682Y105293D01*
X152747Y105288D01*
X152809Y105274D01*
X152946Y105271D01*
X153084Y105260D01*
X153148Y105268D01*
X153212Y105266D01*
X153347Y105291D01*
X153483Y105307D01*
X153545Y105327D01*
X153608Y105339D01*
X153735Y105389D01*
X153866Y105432D01*
X153922Y105464D01*
X153982Y105487D01*
X154097Y105562D01*
X154217Y105630D01*
X154266Y105672D01*
X154319Y105707D01*
X154417Y105803D01*
X154522Y105893D01*
X154561Y105944D01*
X154607Y105989D01*
X154684Y106103D01*
X154768Y106211D01*
X154797Y106269D01*
X154830Y106317D01*
X155824Y107311D01*
X161876Y107311D01*
X162621Y106566D01*
X162621Y85344D01*
X162623Y85326D01*
X162621Y85308D01*
X162642Y85126D01*
X162661Y84943D01*
X162666Y84926D01*
X162668Y84909D01*
X162725Y84734D01*
X162779Y84558D01*
X162787Y84543D01*
X162793Y84526D01*
X162883Y84366D01*
X162971Y84204D01*
X162982Y84191D01*
X162991Y84175D01*
X163111Y84036D01*
X163228Y83895D01*
X163242Y83884D01*
X163254Y83870D01*
X163399Y83758D01*
X163542Y83643D01*
X163558Y83635D01*
X163572Y83624D01*
X163737Y83542D01*
X163899Y83457D01*
X163916Y83452D01*
X163932Y83444D01*
X164111Y83397D01*
X164286Y83346D01*
X164304Y83344D01*
X164321Y83340D01*
X164652Y83313D01*
X165748Y83313D01*
X165766Y83315D01*
X165784Y83313D01*
X165966Y83334D01*
X166149Y83353D01*
X166166Y83358D01*
X166183Y83360D01*
X166358Y83417D01*
X166534Y83471D01*
X166549Y83479D01*
X166566Y83485D01*
X166726Y83575D01*
X166888Y83663D01*
X166901Y83674D01*
X166917Y83683D01*
X167056Y83803D01*
X167197Y83920D01*
X167208Y83934D01*
X167222Y83946D01*
X167334Y84091D01*
X167449Y84234D01*
X167457Y84250D01*
X167468Y84264D01*
X167550Y84429D01*
X167635Y84591D01*
X167640Y84608D01*
X167648Y84624D01*
X167695Y84803D01*
X167746Y84978D01*
X167748Y84996D01*
X167752Y85013D01*
X167779Y85344D01*
X167779Y107186D01*
X167777Y107213D01*
X167779Y107240D01*
X167757Y107414D01*
X167739Y107587D01*
X167732Y107612D01*
X167728Y107639D01*
X167672Y107805D01*
X167621Y107972D01*
X167608Y107995D01*
X167600Y108021D01*
X167513Y108172D01*
X167429Y108326D01*
X167412Y108346D01*
X167399Y108370D01*
X167184Y108623D01*
X161468Y114339D01*
X161447Y114356D01*
X161429Y114377D01*
X161291Y114484D01*
X161156Y114594D01*
X161132Y114607D01*
X161111Y114623D01*
X160954Y114701D01*
X160800Y114783D01*
X160775Y114791D01*
X160751Y114803D01*
X160581Y114848D01*
X160414Y114898D01*
X160388Y114900D01*
X160362Y114907D01*
X160031Y114934D01*
X144769Y114934D01*
X144742Y114932D01*
X144715Y114934D01*
X144542Y114912D01*
X144368Y114894D01*
X144343Y114887D01*
X144316Y114883D01*
X144150Y114827D01*
X143983Y114776D01*
X143960Y114764D01*
X143934Y114755D01*
X143783Y114668D01*
X143629Y114584D01*
X143609Y114567D01*
X143586Y114554D01*
X143332Y114339D01*
X140833Y111840D01*
X140786Y111783D01*
X140733Y111732D01*
X140659Y111628D01*
X140578Y111528D01*
X140543Y111463D01*
X140501Y111403D01*
X140449Y111286D01*
X140389Y111172D01*
X140368Y111102D01*
X140339Y111035D01*
X140311Y110910D01*
X140274Y110786D01*
X140268Y110713D01*
X140252Y110642D01*
X140249Y110514D01*
X140238Y110385D01*
X140246Y110313D01*
X140244Y110239D01*
X140267Y110113D01*
X140281Y109985D01*
X140303Y109915D01*
X140316Y109843D01*
X140364Y109724D01*
X140403Y109601D01*
X140438Y109537D01*
X140465Y109469D01*
X140535Y109361D01*
X140598Y109249D01*
X140645Y109193D01*
X140685Y109132D01*
X140775Y109040D01*
X140858Y108942D01*
X140916Y108897D01*
X140967Y108844D01*
X141073Y108772D01*
X141174Y108692D01*
X141239Y108659D01*
X141300Y108618D01*
X141418Y108568D01*
X141533Y108510D01*
X141604Y108490D01*
X141671Y108462D01*
X141797Y108437D01*
X141921Y108402D01*
X141994Y108397D01*
X142066Y108382D01*
X142194Y108382D01*
X142322Y108373D01*
X142395Y108382D01*
X142468Y108382D01*
X142635Y108412D01*
X142722Y108423D01*
X142753Y108434D01*
X142795Y108441D01*
X143315Y108581D01*
X144119Y108581D01*
X144119Y97071D01*
X141109Y97071D01*
X141109Y106375D01*
X141249Y106895D01*
X141261Y106968D01*
X141282Y107038D01*
X141293Y107166D01*
X141314Y107293D01*
X141311Y107366D01*
X141318Y107439D01*
X141304Y107567D01*
X141299Y107695D01*
X141282Y107766D01*
X141275Y107839D01*
X141236Y107962D01*
X141206Y108087D01*
X141175Y108153D01*
X141153Y108223D01*
X141091Y108335D01*
X141037Y108452D01*
X140994Y108511D01*
X140958Y108575D01*
X140875Y108673D01*
X140799Y108777D01*
X140745Y108827D01*
X140698Y108882D01*
X140597Y108962D01*
X140502Y109049D01*
X140439Y109086D01*
X140382Y109132D01*
X140267Y109190D01*
X140157Y109256D01*
X140088Y109281D01*
X140023Y109314D01*
X139899Y109349D01*
X139778Y109392D01*
X139706Y109403D01*
X139635Y109422D01*
X139507Y109432D01*
X139380Y109450D01*
X139307Y109446D01*
X139233Y109452D01*
X139106Y109435D01*
X138978Y109429D01*
X138907Y109410D01*
X138834Y109401D01*
X138712Y109360D01*
X138588Y109328D01*
X138522Y109296D01*
X138452Y109273D01*
X138341Y109209D01*
X138225Y109153D01*
X138167Y109109D01*
X138103Y109072D01*
X137974Y108962D01*
X137905Y108909D01*
X137883Y108885D01*
X137850Y108857D01*
X131227Y102234D01*
X129389Y102234D01*
X129371Y102232D01*
X129353Y102234D01*
X129171Y102213D01*
X128988Y102194D01*
X128971Y102189D01*
X128954Y102187D01*
X128779Y102130D01*
X128603Y102076D01*
X128588Y102068D01*
X128571Y102062D01*
X128411Y101972D01*
X128249Y101884D01*
X128236Y101873D01*
X128220Y101864D01*
X128081Y101744D01*
X127940Y101627D01*
X127929Y101613D01*
X127915Y101601D01*
X127803Y101456D01*
X127688Y101313D01*
X127680Y101297D01*
X127669Y101283D01*
X127587Y101118D01*
X127502Y100956D01*
X127497Y100939D01*
X127489Y100923D01*
X127441Y100744D01*
X127391Y100569D01*
X127389Y100551D01*
X127385Y100534D01*
X127358Y100203D01*
X127358Y100137D01*
X125288Y98067D01*
X122362Y98067D01*
X120292Y100137D01*
X120292Y100203D01*
X120290Y100221D01*
X120292Y100239D01*
X120271Y100421D01*
X120252Y100604D01*
X120247Y100621D01*
X120245Y100638D01*
X120188Y100813D01*
X120134Y100989D01*
X120126Y101004D01*
X120120Y101021D01*
X120030Y101181D01*
X119942Y101343D01*
X119931Y101356D01*
X119922Y101372D01*
X119802Y101511D01*
X119685Y101652D01*
X119671Y101663D01*
X119659Y101677D01*
X119514Y101789D01*
X119371Y101904D01*
X119355Y101912D01*
X119341Y101923D01*
X119176Y102005D01*
X119014Y102090D01*
X118997Y102095D01*
X118981Y102103D01*
X118802Y102150D01*
X118627Y102201D01*
X118609Y102203D01*
X118592Y102207D01*
X118261Y102234D01*
X76752Y102234D01*
X76734Y102232D01*
X76716Y102234D01*
X76534Y102213D01*
X76351Y102194D01*
X76334Y102189D01*
X76317Y102187D01*
X76142Y102130D01*
X75966Y102076D01*
X75951Y102068D01*
X75934Y102062D01*
X75774Y101972D01*
X75612Y101884D01*
X75599Y101873D01*
X75583Y101864D01*
X75444Y101744D01*
X75303Y101627D01*
X75292Y101613D01*
X75278Y101601D01*
X75166Y101456D01*
X75051Y101313D01*
X75043Y101297D01*
X75032Y101283D01*
X74950Y101118D01*
X74865Y100956D01*
X74860Y100939D01*
X74852Y100923D01*
X74804Y100744D01*
X74754Y100569D01*
X74752Y100551D01*
X74748Y100534D01*
X74721Y100203D01*
X74721Y94974D01*
X73976Y94229D01*
X59924Y94229D01*
X59179Y94974D01*
X59179Y111526D01*
X59924Y112271D01*
X73976Y112271D01*
X74721Y111526D01*
X74721Y109347D01*
X74723Y109329D01*
X74721Y109311D01*
X74742Y109129D01*
X74761Y108946D01*
X74766Y108929D01*
X74768Y108912D01*
X74825Y108737D01*
X74879Y108561D01*
X74887Y108546D01*
X74893Y108529D01*
X74983Y108369D01*
X75071Y108207D01*
X75082Y108194D01*
X75091Y108178D01*
X75211Y108039D01*
X75328Y107898D01*
X75342Y107887D01*
X75354Y107873D01*
X75499Y107761D01*
X75642Y107646D01*
X75658Y107638D01*
X75672Y107627D01*
X75837Y107545D01*
X75999Y107460D01*
X76016Y107455D01*
X76032Y107447D01*
X76211Y107400D01*
X76386Y107349D01*
X76404Y107347D01*
X76421Y107343D01*
X76752Y107316D01*
X128281Y107316D01*
X128308Y107318D01*
X128335Y107316D01*
X128508Y107338D01*
X128682Y107356D01*
X128707Y107363D01*
X128734Y107367D01*
X128900Y107422D01*
X129067Y107474D01*
X129090Y107487D01*
X129116Y107495D01*
X129267Y107582D01*
X129421Y107666D01*
X129441Y107683D01*
X129465Y107696D01*
X129718Y107911D01*
X141823Y120016D01*
X162977Y120016D01*
X171907Y111086D01*
X171908Y111086D01*
X173991Y109002D01*
X173991Y108738D01*
X173993Y108711D01*
X173991Y108684D01*
X174013Y108510D01*
X174031Y108337D01*
X174038Y108312D01*
X174042Y108285D01*
X174097Y108119D01*
X174149Y107952D01*
X174162Y107929D01*
X174170Y107903D01*
X174257Y107752D01*
X174341Y107598D01*
X174358Y107578D01*
X174371Y107554D01*
X174586Y107301D01*
X175321Y106566D01*
X175321Y85344D01*
X175323Y85326D01*
X175321Y85308D01*
X175342Y85126D01*
X175361Y84943D01*
X175366Y84926D01*
X175368Y84909D01*
X175425Y84734D01*
X175479Y84558D01*
X175487Y84543D01*
X175493Y84526D01*
X175583Y84366D01*
X175671Y84204D01*
X175682Y84191D01*
X175691Y84175D01*
X175811Y84036D01*
X175928Y83895D01*
X175942Y83884D01*
X175954Y83870D01*
X176099Y83758D01*
X176242Y83643D01*
X176258Y83635D01*
X176272Y83624D01*
X176437Y83542D01*
X176599Y83457D01*
X176616Y83452D01*
X176632Y83444D01*
X176811Y83397D01*
X176986Y83346D01*
X177004Y83344D01*
X177021Y83340D01*
X177352Y83313D01*
X178348Y83313D01*
X178366Y83315D01*
X178384Y83313D01*
X178566Y83334D01*
X178749Y83353D01*
X178766Y83358D01*
X178783Y83360D01*
X178958Y83417D01*
X179134Y83471D01*
X179149Y83479D01*
X179166Y83485D01*
X179326Y83575D01*
X179488Y83663D01*
X179501Y83674D01*
X179517Y83683D01*
X179656Y83803D01*
X179797Y83920D01*
X179808Y83934D01*
X179822Y83946D01*
X179934Y84091D01*
X180049Y84234D01*
X180057Y84250D01*
X180068Y84264D01*
X180150Y84429D01*
X180235Y84591D01*
X180240Y84608D01*
X180248Y84624D01*
X180295Y84803D01*
X180346Y84978D01*
X180348Y84996D01*
X180352Y85013D01*
X180379Y85344D01*
X180379Y106566D01*
X181124Y107311D01*
X182251Y107311D01*
X182278Y107313D01*
X182305Y107311D01*
X182478Y107333D01*
X182652Y107351D01*
X182677Y107358D01*
X182704Y107362D01*
X182870Y107417D01*
X183037Y107469D01*
X183060Y107482D01*
X183086Y107490D01*
X183237Y107577D01*
X183391Y107661D01*
X183411Y107678D01*
X183435Y107691D01*
X183688Y107906D01*
X186372Y110590D01*
X186389Y110611D01*
X186410Y110629D01*
X186517Y110767D01*
X186627Y110902D01*
X186640Y110926D01*
X186656Y110947D01*
X186734Y111104D01*
X186816Y111258D01*
X186824Y111283D01*
X186836Y111307D01*
X186881Y111477D01*
X186931Y111644D01*
X186933Y111670D01*
X186940Y111696D01*
X186967Y112027D01*
X186967Y112588D01*
X189037Y114658D01*
X192278Y114658D01*
X192296Y114660D01*
X192314Y114658D01*
X192496Y114679D01*
X192679Y114698D01*
X192696Y114703D01*
X192713Y114705D01*
X192888Y114762D01*
X193064Y114816D01*
X193079Y114824D01*
X193096Y114830D01*
X193256Y114920D01*
X193418Y115008D01*
X193431Y115019D01*
X193447Y115028D01*
X193586Y115148D01*
X193727Y115265D01*
X193738Y115279D01*
X193752Y115291D01*
X193864Y115436D01*
X193979Y115579D01*
X193987Y115595D01*
X193998Y115609D01*
X194080Y115774D01*
X194165Y115936D01*
X194170Y115953D01*
X194178Y115969D01*
X194225Y116147D01*
X194276Y116323D01*
X194278Y116341D01*
X194282Y116358D01*
X194309Y116689D01*
X194309Y147331D01*
X194307Y147358D01*
X194309Y147385D01*
X194287Y147558D01*
X194269Y147732D01*
X194262Y147757D01*
X194258Y147784D01*
X194203Y147950D01*
X194151Y148117D01*
X194138Y148140D01*
X194130Y148166D01*
X194043Y148317D01*
X193959Y148471D01*
X193942Y148491D01*
X193929Y148515D01*
X193714Y148768D01*
X184059Y158423D01*
X184041Y158437D01*
X184027Y158454D01*
X183886Y158565D01*
X183747Y158678D01*
X183727Y158689D01*
X183710Y158703D01*
X183549Y158783D01*
X183391Y158867D01*
X183370Y158873D01*
X183350Y158883D01*
X183177Y158931D01*
X183005Y158982D01*
X182983Y158984D01*
X182962Y158990D01*
X182784Y159002D01*
X182604Y159018D01*
X182582Y159016D01*
X182560Y159017D01*
X182383Y158994D01*
X182204Y158975D01*
X182183Y158968D01*
X182161Y158965D01*
X181845Y158864D01*
X179155Y157749D01*
X176445Y157749D01*
X173942Y158786D01*
X173784Y158944D01*
X173771Y158955D01*
X173759Y158969D01*
X173615Y159083D01*
X173473Y159199D01*
X173457Y159207D01*
X173443Y159218D01*
X173279Y159302D01*
X173117Y159388D01*
X173100Y159393D01*
X173084Y159401D01*
X172907Y159450D01*
X172731Y159502D01*
X172713Y159504D01*
X172696Y159509D01*
X172513Y159522D01*
X172330Y159539D01*
X172312Y159537D01*
X172295Y159538D01*
X172113Y159515D01*
X171930Y159495D01*
X171913Y159490D01*
X171895Y159488D01*
X171722Y159429D01*
X171546Y159374D01*
X171530Y159365D01*
X171514Y159359D01*
X171354Y159268D01*
X171194Y159179D01*
X171180Y159167D01*
X171165Y159159D01*
X170912Y158944D01*
X170251Y158283D01*
X168928Y157399D01*
X167457Y156790D01*
X167131Y156725D01*
X167131Y170100D01*
X167131Y183475D01*
X167457Y183410D01*
X168928Y182801D01*
X170251Y181917D01*
X170912Y181256D01*
X170925Y181245D01*
X170937Y181231D01*
X171081Y181118D01*
X171223Y181001D01*
X171239Y180993D01*
X171253Y180982D01*
X171416Y180899D01*
X171579Y180812D01*
X171596Y180807D01*
X171612Y180799D01*
X171789Y180750D01*
X171965Y180698D01*
X171983Y180696D01*
X172000Y180691D01*
X172183Y180678D01*
X172366Y180661D01*
X172384Y180663D01*
X172401Y180662D01*
X172584Y180685D01*
X172766Y180705D01*
X172783Y180710D01*
X172801Y180712D01*
X172975Y180771D01*
X173150Y180826D01*
X173166Y180835D01*
X173182Y180841D01*
X173342Y180932D01*
X173502Y181021D01*
X173516Y181032D01*
X173531Y181041D01*
X173784Y181256D01*
X173942Y181414D01*
X176445Y182451D01*
X179155Y182451D01*
X181658Y181414D01*
X183574Y179498D01*
X184611Y176995D01*
X184611Y165899D01*
X184613Y165872D01*
X184611Y165845D01*
X184633Y165672D01*
X184651Y165498D01*
X184658Y165473D01*
X184662Y165446D01*
X184717Y165280D01*
X184769Y165113D01*
X184782Y165090D01*
X184790Y165064D01*
X184877Y164913D01*
X184961Y164759D01*
X184978Y164739D01*
X184991Y164715D01*
X185206Y164462D01*
X195414Y154254D01*
X195428Y154243D01*
X195439Y154230D01*
X195583Y154116D01*
X195725Y153999D01*
X195741Y153991D01*
X195755Y153980D01*
X195919Y153896D01*
X196081Y153811D01*
X196098Y153806D01*
X196114Y153798D01*
X196291Y153748D01*
X196467Y153696D01*
X196485Y153694D01*
X196502Y153690D01*
X196685Y153676D01*
X196868Y153660D01*
X196886Y153662D01*
X196903Y153660D01*
X197085Y153683D01*
X197268Y153703D01*
X197285Y153708D01*
X197303Y153711D01*
X197476Y153769D01*
X197652Y153824D01*
X197668Y153833D01*
X197684Y153839D01*
X197844Y153931D01*
X198004Y154019D01*
X198018Y154031D01*
X198033Y154040D01*
X198286Y154254D01*
X227548Y183516D01*
X328077Y183516D01*
X330160Y181433D01*
X330161Y181432D01*
X336833Y174760D01*
X336854Y174743D01*
X336872Y174722D01*
X337010Y174615D01*
X337145Y174505D01*
X337169Y174492D01*
X337190Y174476D01*
X337347Y174398D01*
X337501Y174316D01*
X337526Y174308D01*
X337550Y174296D01*
X337720Y174251D01*
X337887Y174201D01*
X337913Y174199D01*
X337939Y174192D01*
X338270Y174165D01*
X347214Y174165D01*
X353143Y168236D01*
X353164Y168219D01*
X353181Y168198D01*
X353319Y168091D01*
X353454Y167981D01*
X353478Y167968D01*
X353499Y167952D01*
X353656Y167874D01*
X353810Y167792D01*
X353836Y167784D01*
X353860Y167772D01*
X354029Y167727D01*
X354196Y167677D01*
X354223Y167675D01*
X354249Y167668D01*
X354579Y167641D01*
X386238Y167641D01*
X386260Y167643D01*
X386282Y167641D01*
X386460Y167663D01*
X386638Y167681D01*
X386660Y167687D01*
X386682Y167690D01*
X386851Y167746D01*
X387023Y167799D01*
X387043Y167809D01*
X387064Y167816D01*
X387219Y167905D01*
X387377Y167991D01*
X387394Y168005D01*
X387414Y168016D01*
X387549Y168134D01*
X387686Y168248D01*
X387700Y168266D01*
X387717Y168280D01*
X387827Y168423D01*
X387939Y168562D01*
X387949Y168582D01*
X387963Y168600D01*
X388114Y168895D01*
X388427Y169649D01*
X391357Y172579D01*
X395184Y174165D01*
X417616Y174165D01*
X421443Y172579D01*
X424373Y169649D01*
X424686Y168895D01*
X424696Y168875D01*
X424703Y168854D01*
X424791Y168698D01*
X424876Y168540D01*
X424890Y168523D01*
X424901Y168503D01*
X425018Y168367D01*
X425132Y168229D01*
X425150Y168215D01*
X425164Y168198D01*
X425305Y168089D01*
X425445Y167976D01*
X425465Y167965D01*
X425482Y167952D01*
X425643Y167872D01*
X425802Y167789D01*
X425823Y167782D01*
X425843Y167772D01*
X426016Y167726D01*
X426188Y167676D01*
X426210Y167674D01*
X426232Y167668D01*
X426562Y167641D01*
X437038Y167641D01*
X437060Y167643D01*
X437082Y167641D01*
X437260Y167663D01*
X437438Y167681D01*
X437460Y167687D01*
X437482Y167690D01*
X437651Y167746D01*
X437823Y167799D01*
X437843Y167809D01*
X437864Y167816D01*
X438019Y167905D01*
X438177Y167991D01*
X438194Y168005D01*
X438214Y168016D01*
X438349Y168134D01*
X438486Y168248D01*
X438500Y168266D01*
X438517Y168280D01*
X438627Y168423D01*
X438739Y168562D01*
X438749Y168582D01*
X438763Y168600D01*
X438914Y168895D01*
X439227Y169649D01*
X442157Y172579D01*
X445984Y174165D01*
X468416Y174165D01*
X472243Y172579D01*
X475173Y169649D01*
X476759Y165822D01*
X476759Y161678D01*
X475173Y157851D01*
X472243Y154921D01*
X468940Y153552D01*
X468862Y153511D01*
X468779Y153478D01*
X468685Y153416D01*
X468585Y153362D01*
X468517Y153306D01*
X468442Y153257D01*
X468362Y153178D01*
X468275Y153106D01*
X468219Y153037D01*
X468155Y152975D01*
X468092Y152881D01*
X468021Y152793D01*
X467980Y152715D01*
X467930Y152641D01*
X467886Y152537D01*
X467834Y152437D01*
X467809Y152352D01*
X467775Y152270D01*
X467753Y152159D01*
X467721Y152050D01*
X467713Y151962D01*
X467696Y151875D01*
X467696Y151762D01*
X467686Y151649D01*
X467696Y151561D01*
X467696Y151472D01*
X467719Y151361D01*
X467731Y151249D01*
X467758Y151165D01*
X467776Y151078D01*
X467820Y150973D01*
X467854Y150866D01*
X467898Y150788D01*
X467932Y150706D01*
X467996Y150613D01*
X468051Y150514D01*
X468109Y150447D01*
X468158Y150373D01*
X468239Y150294D01*
X468313Y150208D01*
X468383Y150154D01*
X468446Y150092D01*
X468541Y150030D01*
X468630Y149960D01*
X468709Y149920D01*
X468783Y149872D01*
X468914Y149817D01*
X468989Y149779D01*
X469034Y149767D01*
X469090Y149744D01*
X470830Y149179D01*
X472468Y148344D01*
X473956Y147263D01*
X475257Y145962D01*
X476338Y144474D01*
X477173Y142836D01*
X477741Y141086D01*
X477772Y140889D01*
X457708Y140889D01*
X457690Y140887D01*
X457673Y140889D01*
X457490Y140868D01*
X457308Y140849D01*
X457291Y140844D01*
X457273Y140842D01*
X457195Y140817D01*
X457058Y140856D01*
X457040Y140858D01*
X457023Y140862D01*
X456692Y140889D01*
X436628Y140889D01*
X436659Y141086D01*
X437227Y142836D01*
X438062Y144474D01*
X439143Y145962D01*
X440444Y147263D01*
X441932Y148344D01*
X443570Y149179D01*
X445310Y149744D01*
X445392Y149780D01*
X445476Y149806D01*
X445576Y149860D01*
X445679Y149906D01*
X445752Y149957D01*
X445830Y149999D01*
X445916Y150072D01*
X446009Y150137D01*
X446070Y150201D01*
X446138Y150259D01*
X446208Y150347D01*
X446286Y150429D01*
X446334Y150504D01*
X446389Y150573D01*
X446440Y150674D01*
X446501Y150770D01*
X446532Y150853D01*
X446573Y150931D01*
X446603Y151040D01*
X446644Y151146D01*
X446658Y151234D01*
X446682Y151319D01*
X446691Y151431D01*
X446710Y151543D01*
X446707Y151632D01*
X446714Y151720D01*
X446700Y151832D01*
X446696Y151945D01*
X446676Y152032D01*
X446665Y152120D01*
X446629Y152227D01*
X446603Y152337D01*
X446566Y152418D01*
X446538Y152502D01*
X446482Y152600D01*
X446435Y152703D01*
X446383Y152775D01*
X446339Y152852D01*
X446265Y152937D01*
X446198Y153028D01*
X446133Y153088D01*
X446074Y153155D01*
X445985Y153224D01*
X445902Y153301D01*
X445826Y153347D01*
X445755Y153401D01*
X445630Y153465D01*
X445557Y153509D01*
X445514Y153525D01*
X445460Y153552D01*
X442157Y154921D01*
X439227Y157851D01*
X437796Y161305D01*
X437785Y161325D01*
X437778Y161346D01*
X437690Y161502D01*
X437606Y161660D01*
X437591Y161677D01*
X437580Y161697D01*
X437464Y161832D01*
X437349Y161971D01*
X437332Y161985D01*
X437317Y162002D01*
X437176Y162111D01*
X437037Y162224D01*
X437017Y162235D01*
X436999Y162248D01*
X436838Y162328D01*
X436680Y162411D01*
X436659Y162418D01*
X436639Y162428D01*
X436465Y162474D01*
X436294Y162524D01*
X436271Y162526D01*
X436250Y162532D01*
X435919Y162559D01*
X427681Y162559D01*
X427659Y162557D01*
X427636Y162559D01*
X427459Y162537D01*
X427280Y162519D01*
X427259Y162513D01*
X427237Y162510D01*
X427067Y162454D01*
X426895Y162401D01*
X426876Y162391D01*
X426855Y162384D01*
X426699Y162295D01*
X426541Y162209D01*
X426524Y162195D01*
X426505Y162184D01*
X426369Y162066D01*
X426232Y161952D01*
X426218Y161934D01*
X426201Y161920D01*
X426092Y161778D01*
X425980Y161638D01*
X425969Y161618D01*
X425956Y161600D01*
X425804Y161305D01*
X424373Y157851D01*
X421443Y154921D01*
X418140Y153552D01*
X418062Y153511D01*
X417979Y153478D01*
X417885Y153416D01*
X417785Y153362D01*
X417717Y153306D01*
X417642Y153257D01*
X417562Y153178D01*
X417475Y153106D01*
X417419Y153037D01*
X417355Y152975D01*
X417292Y152881D01*
X417221Y152793D01*
X417180Y152715D01*
X417130Y152641D01*
X417086Y152537D01*
X417034Y152437D01*
X417009Y152352D01*
X416975Y152270D01*
X416953Y152159D01*
X416921Y152050D01*
X416913Y151962D01*
X416896Y151875D01*
X416896Y151762D01*
X416886Y151649D01*
X416896Y151561D01*
X416896Y151472D01*
X416919Y151361D01*
X416931Y151249D01*
X416958Y151165D01*
X416976Y151078D01*
X417020Y150973D01*
X417054Y150866D01*
X417098Y150788D01*
X417132Y150706D01*
X417196Y150613D01*
X417251Y150514D01*
X417309Y150447D01*
X417358Y150373D01*
X417439Y150294D01*
X417513Y150208D01*
X417583Y150154D01*
X417646Y150092D01*
X417741Y150030D01*
X417830Y149960D01*
X417909Y149920D01*
X417983Y149872D01*
X418114Y149817D01*
X418189Y149779D01*
X418234Y149767D01*
X418290Y149744D01*
X420030Y149179D01*
X421668Y148344D01*
X423156Y147263D01*
X424457Y145962D01*
X425538Y144474D01*
X426373Y142836D01*
X426941Y141086D01*
X426972Y140889D01*
X406908Y140889D01*
X406890Y140887D01*
X406873Y140889D01*
X406690Y140868D01*
X406508Y140849D01*
X406491Y140844D01*
X406473Y140842D01*
X406395Y140817D01*
X406258Y140856D01*
X406240Y140858D01*
X406223Y140862D01*
X405892Y140889D01*
X385828Y140889D01*
X385859Y141086D01*
X386427Y142836D01*
X387262Y144474D01*
X388343Y145962D01*
X389644Y147263D01*
X391132Y148344D01*
X392770Y149179D01*
X394510Y149744D01*
X394592Y149780D01*
X394676Y149806D01*
X394776Y149860D01*
X394879Y149906D01*
X394952Y149957D01*
X395030Y149999D01*
X395116Y150072D01*
X395209Y150137D01*
X395270Y150201D01*
X395338Y150259D01*
X395408Y150347D01*
X395486Y150429D01*
X395534Y150504D01*
X395589Y150573D01*
X395640Y150674D01*
X395701Y150770D01*
X395732Y150853D01*
X395773Y150931D01*
X395803Y151040D01*
X395844Y151146D01*
X395858Y151234D01*
X395882Y151319D01*
X395891Y151431D01*
X395910Y151543D01*
X395907Y151632D01*
X395914Y151720D01*
X395900Y151832D01*
X395896Y151945D01*
X395876Y152032D01*
X395865Y152120D01*
X395829Y152227D01*
X395803Y152337D01*
X395766Y152418D01*
X395738Y152502D01*
X395682Y152600D01*
X395635Y152703D01*
X395583Y152775D01*
X395539Y152852D01*
X395465Y152937D01*
X395398Y153028D01*
X395333Y153088D01*
X395274Y153155D01*
X395185Y153224D01*
X395102Y153301D01*
X395026Y153347D01*
X394955Y153401D01*
X394830Y153465D01*
X394757Y153509D01*
X394714Y153525D01*
X394660Y153552D01*
X391357Y154921D01*
X388427Y157851D01*
X386996Y161305D01*
X386985Y161325D01*
X386978Y161346D01*
X386890Y161502D01*
X386806Y161660D01*
X386791Y161677D01*
X386780Y161697D01*
X386664Y161832D01*
X386549Y161971D01*
X386532Y161985D01*
X386517Y162002D01*
X386376Y162111D01*
X386237Y162224D01*
X386217Y162235D01*
X386199Y162248D01*
X386038Y162328D01*
X385880Y162411D01*
X385859Y162418D01*
X385839Y162428D01*
X385665Y162474D01*
X385494Y162524D01*
X385471Y162526D01*
X385450Y162532D01*
X385119Y162559D01*
X355346Y162559D01*
X355328Y162557D01*
X355310Y162559D01*
X355128Y162538D01*
X354945Y162519D01*
X354928Y162514D01*
X354911Y162512D01*
X354736Y162455D01*
X354560Y162401D01*
X354545Y162393D01*
X354528Y162387D01*
X354368Y162297D01*
X354206Y162209D01*
X354193Y162198D01*
X354177Y162189D01*
X354038Y162069D01*
X353897Y161952D01*
X353886Y161938D01*
X353872Y161926D01*
X353760Y161781D01*
X353645Y161638D01*
X353637Y161622D01*
X353626Y161608D01*
X353544Y161443D01*
X353459Y161281D01*
X353454Y161264D01*
X353446Y161248D01*
X353399Y161069D01*
X353348Y160894D01*
X353346Y160876D01*
X353342Y160859D01*
X353315Y160528D01*
X353315Y159436D01*
X347214Y153335D01*
X338586Y153335D01*
X332485Y159436D01*
X332485Y168064D01*
X332978Y168556D01*
X332989Y168570D01*
X333003Y168582D01*
X333117Y168726D01*
X333233Y168868D01*
X333241Y168884D01*
X333252Y168898D01*
X333336Y169062D01*
X333421Y169224D01*
X333427Y169241D01*
X333435Y169257D01*
X333484Y169434D01*
X333536Y169610D01*
X333538Y169627D01*
X333543Y169645D01*
X333556Y169828D01*
X333573Y170011D01*
X333571Y170028D01*
X333572Y170046D01*
X333549Y170228D01*
X333529Y170411D01*
X333524Y170428D01*
X333522Y170446D01*
X333463Y170619D01*
X333408Y170795D01*
X333399Y170810D01*
X333393Y170827D01*
X333302Y170987D01*
X333213Y171147D01*
X333201Y171160D01*
X333192Y171176D01*
X332978Y171429D01*
X326568Y177839D01*
X326547Y177856D01*
X326529Y177877D01*
X326391Y177984D01*
X326256Y178094D01*
X326232Y178107D01*
X326211Y178123D01*
X326054Y178201D01*
X325900Y178283D01*
X325875Y178291D01*
X325851Y178303D01*
X325681Y178348D01*
X325514Y178398D01*
X325488Y178400D01*
X325462Y178407D01*
X325131Y178434D01*
X230494Y178434D01*
X230467Y178432D01*
X230440Y178434D01*
X230267Y178412D01*
X230093Y178394D01*
X230068Y178387D01*
X230041Y178383D01*
X229875Y178328D01*
X229708Y178276D01*
X229685Y178263D01*
X229659Y178255D01*
X229508Y178168D01*
X229354Y178084D01*
X229334Y178067D01*
X229310Y178054D01*
X229057Y177839D01*
X199986Y148768D01*
X199969Y148747D01*
X199948Y148729D01*
X199841Y148591D01*
X199731Y148456D01*
X199718Y148432D01*
X199702Y148411D01*
X199624Y148254D01*
X199542Y148100D01*
X199534Y148075D01*
X199522Y148051D01*
X199477Y147881D01*
X199427Y147714D01*
X199425Y147688D01*
X199418Y147662D01*
X199391Y147331D01*
X199391Y85344D01*
X199393Y85326D01*
X199391Y85308D01*
X199412Y85126D01*
X199431Y84943D01*
X199436Y84926D01*
X199438Y84909D01*
X199495Y84734D01*
X199549Y84558D01*
X199557Y84543D01*
X199563Y84526D01*
X199653Y84366D01*
X199741Y84204D01*
X199752Y84191D01*
X199761Y84175D01*
X199881Y84036D01*
X199998Y83895D01*
X200012Y83884D01*
X200024Y83870D01*
X200169Y83758D01*
X200312Y83643D01*
X200328Y83635D01*
X200342Y83624D01*
X200507Y83542D01*
X200669Y83457D01*
X200686Y83452D01*
X200702Y83444D01*
X200881Y83397D01*
X201056Y83346D01*
X201074Y83344D01*
X201091Y83340D01*
X201422Y83313D01*
X258953Y83313D01*
X258971Y83315D01*
X258989Y83313D01*
X259171Y83334D01*
X259354Y83353D01*
X259371Y83358D01*
X259388Y83360D01*
X259563Y83417D01*
X259739Y83471D01*
X259754Y83479D01*
X259771Y83485D01*
X259931Y83575D01*
X260093Y83663D01*
X260106Y83674D01*
X260122Y83683D01*
X260261Y83803D01*
X260402Y83920D01*
X260413Y83934D01*
X260427Y83946D01*
X260539Y84091D01*
X260654Y84234D01*
X260662Y84250D01*
X260673Y84264D01*
X260755Y84429D01*
X260840Y84591D01*
X260845Y84608D01*
X260853Y84624D01*
X260900Y84803D01*
X260951Y84978D01*
X260953Y84996D01*
X260957Y85013D01*
X260984Y85344D01*
X260984Y120528D01*
X260982Y120555D01*
X260984Y120582D01*
X260962Y120756D01*
X260944Y120929D01*
X260937Y120954D01*
X260933Y120981D01*
X260878Y121147D01*
X260826Y121314D01*
X260813Y121337D01*
X260805Y121363D01*
X260718Y121514D01*
X260634Y121668D01*
X260617Y121688D01*
X260604Y121712D01*
X260389Y121965D01*
X259992Y122362D01*
X259992Y125288D01*
X262062Y127358D01*
X264988Y127358D01*
X267058Y125288D01*
X267058Y122362D01*
X266661Y121965D01*
X266644Y121944D01*
X266623Y121926D01*
X266516Y121789D01*
X266406Y121653D01*
X266393Y121629D01*
X266377Y121608D01*
X266299Y121451D01*
X266217Y121297D01*
X266209Y121272D01*
X266197Y121248D01*
X266152Y121078D01*
X266102Y120912D01*
X266100Y120885D01*
X266093Y120859D01*
X266066Y120528D01*
X266066Y88114D01*
X266068Y88096D01*
X266066Y88078D01*
X266087Y87896D01*
X266106Y87713D01*
X266111Y87696D01*
X266113Y87679D01*
X266170Y87504D01*
X266224Y87328D01*
X266232Y87313D01*
X266238Y87296D01*
X266328Y87136D01*
X266416Y86974D01*
X266427Y86961D01*
X266436Y86945D01*
X266557Y86805D01*
X266673Y86665D01*
X266687Y86654D01*
X266699Y86640D01*
X266844Y86528D01*
X266987Y86413D01*
X267003Y86405D01*
X267017Y86394D01*
X267182Y86312D01*
X267344Y86227D01*
X267361Y86222D01*
X267377Y86214D01*
X267556Y86167D01*
X267731Y86116D01*
X267749Y86114D01*
X267766Y86110D01*
X268097Y86083D01*
X271338Y86083D01*
X273513Y83908D01*
X273534Y83891D01*
X273552Y83870D01*
X273689Y83763D01*
X273825Y83653D01*
X273849Y83640D01*
X273870Y83624D01*
X274027Y83546D01*
X274181Y83464D01*
X274206Y83456D01*
X274230Y83444D01*
X274400Y83399D01*
X274566Y83349D01*
X274593Y83347D01*
X274619Y83340D01*
X274950Y83313D01*
X286066Y83313D01*
X286513Y82866D01*
X286513Y69585D01*
X286514Y69576D01*
X286513Y69567D01*
X286534Y69373D01*
X286553Y69184D01*
X286555Y69176D01*
X286556Y69167D01*
X286614Y68983D01*
X286671Y68799D01*
X286675Y68791D01*
X286678Y68783D01*
X286770Y68615D01*
X286863Y68445D01*
X286868Y68438D01*
X286873Y68431D01*
X286997Y68283D01*
X287120Y68136D01*
X287127Y68130D01*
X287133Y68124D01*
X287285Y68004D01*
X287434Y67884D01*
X287442Y67879D01*
X287449Y67874D01*
X287622Y67786D01*
X287791Y67698D01*
X287800Y67696D01*
X287808Y67692D01*
X287994Y67640D01*
X288178Y67587D01*
X288187Y67586D01*
X288196Y67584D01*
X288389Y67569D01*
X288580Y67554D01*
X288588Y67555D01*
X288597Y67554D01*
X288790Y67578D01*
X288979Y67601D01*
X288988Y67603D01*
X288997Y67605D01*
X289180Y67666D01*
X289362Y67726D01*
X289370Y67730D01*
X289378Y67733D01*
X289545Y67829D01*
X289713Y67923D01*
X289720Y67929D01*
X289727Y67934D01*
X289980Y68148D01*
X298489Y76657D01*
X298506Y76678D01*
X298527Y76696D01*
X298634Y76834D01*
X298744Y76969D01*
X298757Y76993D01*
X298773Y77014D01*
X298851Y77171D01*
X298933Y77325D01*
X298941Y77350D01*
X298953Y77374D01*
X298998Y77544D01*
X299048Y77711D01*
X299050Y77737D01*
X299057Y77763D01*
X299084Y78094D01*
X299084Y121702D01*
X307815Y130433D01*
X307827Y130447D01*
X307840Y130459D01*
X307954Y130603D01*
X308070Y130745D01*
X308079Y130761D01*
X308090Y130775D01*
X308173Y130938D01*
X308259Y131101D01*
X308264Y131118D01*
X308272Y131134D01*
X308322Y131311D01*
X308374Y131487D01*
X308375Y131504D01*
X308380Y131522D01*
X308394Y131705D01*
X308410Y131888D01*
X308408Y131905D01*
X308410Y131923D01*
X308387Y132105D01*
X308367Y132288D01*
X308361Y132305D01*
X308359Y132323D01*
X308301Y132496D01*
X308245Y132672D01*
X308237Y132687D01*
X308231Y132704D01*
X308139Y132863D01*
X308050Y133024D01*
X308039Y133038D01*
X308030Y133053D01*
X307815Y133306D01*
X307085Y134036D01*
X307085Y142664D01*
X313186Y148765D01*
X321814Y148765D01*
X327915Y142664D01*
X327915Y134036D01*
X321814Y127935D01*
X313345Y127935D01*
X313318Y127933D01*
X313292Y127935D01*
X313118Y127913D01*
X312944Y127895D01*
X312919Y127888D01*
X312892Y127884D01*
X312726Y127829D01*
X312559Y127777D01*
X312536Y127764D01*
X312510Y127756D01*
X312359Y127669D01*
X312205Y127585D01*
X312185Y127568D01*
X312162Y127555D01*
X311909Y127340D01*
X311400Y126832D01*
X311395Y126825D01*
X311388Y126820D01*
X311267Y126670D01*
X311145Y126521D01*
X311141Y126513D01*
X311136Y126506D01*
X311047Y126336D01*
X310957Y126165D01*
X310954Y126156D01*
X310950Y126149D01*
X310897Y125965D01*
X310842Y125779D01*
X310841Y125770D01*
X310839Y125762D01*
X310823Y125571D01*
X310806Y125378D01*
X310807Y125369D01*
X310806Y125360D01*
X310828Y125171D01*
X310849Y124978D01*
X310852Y124969D01*
X310853Y124961D01*
X310913Y124777D01*
X310970Y124594D01*
X310975Y124586D01*
X310978Y124578D01*
X311073Y124409D01*
X311165Y124242D01*
X311171Y124235D01*
X311175Y124227D01*
X311301Y124082D01*
X311426Y123935D01*
X311433Y123929D01*
X311439Y123922D01*
X311590Y123805D01*
X311742Y123685D01*
X311750Y123681D01*
X311757Y123676D01*
X311929Y123590D01*
X312101Y123503D01*
X312109Y123500D01*
X312117Y123496D01*
X312305Y123446D01*
X312488Y123395D01*
X312497Y123394D01*
X312506Y123392D01*
X312837Y123365D01*
X321814Y123365D01*
X327866Y117313D01*
X327879Y117302D01*
X327891Y117288D01*
X328035Y117174D01*
X328177Y117058D01*
X328193Y117050D01*
X328207Y117038D01*
X328371Y116955D01*
X328533Y116869D01*
X328550Y116864D01*
X328566Y116856D01*
X328743Y116807D01*
X328919Y116754D01*
X328937Y116753D01*
X328954Y116748D01*
X329137Y116735D01*
X329320Y116718D01*
X329338Y116720D01*
X329355Y116719D01*
X329537Y116742D01*
X329720Y116761D01*
X329737Y116767D01*
X329755Y116769D01*
X329928Y116827D01*
X330104Y116883D01*
X330120Y116892D01*
X330136Y116897D01*
X330296Y116989D01*
X330456Y117078D01*
X330470Y117089D01*
X330485Y117098D01*
X330738Y117313D01*
X338537Y125112D01*
X338548Y125126D01*
X338562Y125137D01*
X338675Y125281D01*
X338792Y125423D01*
X338800Y125439D01*
X338812Y125453D01*
X338895Y125617D01*
X338981Y125779D01*
X338986Y125796D01*
X338994Y125812D01*
X339043Y125989D01*
X339096Y126165D01*
X339097Y126183D01*
X339102Y126200D01*
X339115Y126383D01*
X339132Y126566D01*
X339130Y126584D01*
X339131Y126601D01*
X339108Y126783D01*
X339089Y126966D01*
X339083Y126983D01*
X339081Y127001D01*
X339023Y127175D01*
X338967Y127350D01*
X338958Y127366D01*
X338953Y127382D01*
X338861Y127542D01*
X338772Y127702D01*
X338761Y127716D01*
X338752Y127731D01*
X338537Y127984D01*
X332485Y134036D01*
X332485Y142664D01*
X338586Y148765D01*
X347214Y148765D01*
X353315Y142664D01*
X353315Y134036D01*
X347263Y127984D01*
X347252Y127971D01*
X347238Y127959D01*
X347124Y127815D01*
X347008Y127673D01*
X347000Y127657D01*
X346988Y127643D01*
X346905Y127479D01*
X346819Y127317D01*
X346814Y127300D01*
X346806Y127284D01*
X346757Y127106D01*
X346704Y126931D01*
X346703Y126913D01*
X346698Y126896D01*
X346685Y126713D01*
X346668Y126530D01*
X346670Y126512D01*
X346669Y126495D01*
X346692Y126313D01*
X346711Y126130D01*
X346717Y126113D01*
X346719Y126095D01*
X346777Y125921D01*
X346833Y125746D01*
X346842Y125730D01*
X346847Y125714D01*
X346939Y125554D01*
X347028Y125394D01*
X347039Y125380D01*
X347048Y125365D01*
X347263Y125112D01*
X354585Y117790D01*
X354585Y115489D01*
X343408Y115489D01*
X343390Y115487D01*
X343373Y115489D01*
X343190Y115468D01*
X343008Y115449D01*
X342991Y115444D01*
X342973Y115442D01*
X342798Y115385D01*
X342623Y115331D01*
X342607Y115323D01*
X342590Y115317D01*
X342430Y115227D01*
X342269Y115139D01*
X342255Y115128D01*
X342239Y115119D01*
X342100Y114999D01*
X341959Y114882D01*
X341948Y114868D01*
X341935Y114856D01*
X341822Y114711D01*
X341707Y114568D01*
X341699Y114552D01*
X341688Y114538D01*
X341606Y114373D01*
X341566Y114297D01*
X341414Y114211D01*
X341252Y114123D01*
X341239Y114112D01*
X341223Y114103D01*
X341084Y113983D01*
X340943Y113865D01*
X340932Y113852D01*
X340918Y113840D01*
X340806Y113695D01*
X340691Y113552D01*
X340683Y113536D01*
X340672Y113522D01*
X340589Y113356D01*
X340505Y113194D01*
X340500Y113177D01*
X340492Y113161D01*
X340444Y112983D01*
X340394Y112808D01*
X340392Y112790D01*
X340388Y112773D01*
X340361Y112442D01*
X340361Y101265D01*
X338060Y101265D01*
X330738Y108587D01*
X330724Y108598D01*
X330713Y108612D01*
X330569Y108725D01*
X330427Y108842D01*
X330411Y108850D01*
X330397Y108862D01*
X330233Y108945D01*
X330071Y109031D01*
X330054Y109036D01*
X330038Y109044D01*
X329861Y109093D01*
X329685Y109146D01*
X329667Y109147D01*
X329650Y109152D01*
X329467Y109165D01*
X329284Y109182D01*
X329266Y109180D01*
X329249Y109181D01*
X329067Y109158D01*
X328884Y109139D01*
X328867Y109133D01*
X328849Y109131D01*
X328675Y109073D01*
X328500Y109017D01*
X328484Y109008D01*
X328468Y109003D01*
X328308Y108911D01*
X328148Y108822D01*
X328134Y108811D01*
X328119Y108802D01*
X327866Y108587D01*
X321814Y102535D01*
X313186Y102535D01*
X307633Y108088D01*
X307626Y108094D01*
X307621Y108101D01*
X307471Y108221D01*
X307322Y108343D01*
X307314Y108347D01*
X307307Y108353D01*
X307137Y108441D01*
X306966Y108532D01*
X306957Y108534D01*
X306950Y108538D01*
X306765Y108592D01*
X306580Y108647D01*
X306571Y108647D01*
X306563Y108650D01*
X306371Y108665D01*
X306179Y108683D01*
X306170Y108682D01*
X306161Y108683D01*
X305972Y108661D01*
X305779Y108640D01*
X305770Y108637D01*
X305762Y108636D01*
X305580Y108576D01*
X305395Y108518D01*
X305387Y108514D01*
X305379Y108511D01*
X305210Y108416D01*
X305043Y108323D01*
X305036Y108317D01*
X305028Y108313D01*
X304882Y108187D01*
X304736Y108063D01*
X304730Y108056D01*
X304723Y108050D01*
X304606Y107898D01*
X304486Y107747D01*
X304482Y107739D01*
X304477Y107732D01*
X304391Y107559D01*
X304304Y107388D01*
X304301Y107379D01*
X304297Y107371D01*
X304247Y107185D01*
X304196Y107000D01*
X304195Y106991D01*
X304193Y106982D01*
X304166Y106652D01*
X304166Y75148D01*
X287108Y58090D01*
X287091Y58069D01*
X287070Y58051D01*
X286963Y57913D01*
X286853Y57778D01*
X286840Y57754D01*
X286824Y57733D01*
X286746Y57576D01*
X286664Y57422D01*
X286656Y57397D01*
X286644Y57373D01*
X286599Y57203D01*
X286549Y57036D01*
X286547Y57010D01*
X286540Y56984D01*
X286513Y56653D01*
X286513Y44134D01*
X286066Y43687D01*
X273547Y43687D01*
X273520Y43685D01*
X273493Y43687D01*
X273320Y43665D01*
X273146Y43647D01*
X273121Y43640D01*
X273094Y43636D01*
X272928Y43581D01*
X272761Y43529D01*
X272738Y43516D01*
X272712Y43508D01*
X272561Y43421D01*
X272407Y43337D01*
X272387Y43320D01*
X272363Y43307D01*
X272110Y43092D01*
X264478Y35460D01*
X264461Y35439D01*
X264440Y35421D01*
X264333Y35283D01*
X264223Y35148D01*
X264210Y35124D01*
X264194Y35103D01*
X264116Y34946D01*
X264034Y34792D01*
X264026Y34767D01*
X264014Y34743D01*
X263969Y34573D01*
X263919Y34406D01*
X263917Y34380D01*
X263910Y34354D01*
X263883Y34023D01*
X263883Y33462D01*
X261813Y31392D01*
X258887Y31392D01*
X256817Y33462D01*
X256817Y36388D01*
X258887Y38458D01*
X259448Y38458D01*
X259475Y38460D01*
X259501Y38458D01*
X259675Y38480D01*
X259849Y38498D01*
X259874Y38505D01*
X259901Y38509D01*
X260067Y38565D01*
X260234Y38616D01*
X260257Y38628D01*
X260283Y38637D01*
X260434Y38724D01*
X260588Y38808D01*
X260608Y38825D01*
X260631Y38838D01*
X260884Y39053D01*
X262052Y40220D01*
X262057Y40227D01*
X262064Y40232D01*
X262185Y40382D01*
X262307Y40531D01*
X262311Y40539D01*
X262316Y40546D01*
X262405Y40716D01*
X262495Y40887D01*
X262498Y40896D01*
X262502Y40903D01*
X262555Y41087D01*
X262610Y41273D01*
X262611Y41282D01*
X262613Y41290D01*
X262629Y41481D01*
X262646Y41674D01*
X262645Y41683D01*
X262646Y41692D01*
X262624Y41881D01*
X262603Y42074D01*
X262600Y42083D01*
X262599Y42091D01*
X262540Y42273D01*
X262482Y42458D01*
X262477Y42466D01*
X262474Y42474D01*
X262380Y42641D01*
X262287Y42810D01*
X262281Y42817D01*
X262277Y42825D01*
X262151Y42970D01*
X262026Y43117D01*
X262019Y43123D01*
X262013Y43130D01*
X261863Y43246D01*
X261710Y43367D01*
X261702Y43371D01*
X261695Y43376D01*
X261525Y43461D01*
X261351Y43549D01*
X261343Y43552D01*
X261335Y43556D01*
X261149Y43605D01*
X260964Y43657D01*
X260955Y43658D01*
X260946Y43660D01*
X260615Y43687D01*
X225922Y43687D01*
X225895Y43685D01*
X225868Y43687D01*
X225695Y43665D01*
X225521Y43647D01*
X225496Y43640D01*
X225469Y43636D01*
X225303Y43581D01*
X225136Y43529D01*
X225113Y43516D01*
X225087Y43508D01*
X224936Y43421D01*
X224782Y43337D01*
X224762Y43320D01*
X224738Y43307D01*
X224485Y43092D01*
X193751Y12358D01*
X193746Y12351D01*
X193739Y12346D01*
X193619Y12196D01*
X193496Y12047D01*
X193492Y12039D01*
X193487Y12032D01*
X193398Y11861D01*
X193308Y11691D01*
X193305Y11683D01*
X193301Y11675D01*
X193248Y11489D01*
X193193Y11305D01*
X193192Y11296D01*
X193190Y11288D01*
X193174Y11096D01*
X193157Y10904D01*
X193158Y10895D01*
X193157Y10886D01*
X193179Y10697D01*
X193200Y10504D01*
X193203Y10495D01*
X193204Y10487D01*
X193263Y10305D01*
X193321Y10120D01*
X193326Y10112D01*
X193329Y10104D01*
X193424Y9935D01*
X193516Y9768D01*
X193522Y9761D01*
X193526Y9753D01*
X193652Y9607D01*
X193777Y9461D01*
X193784Y9455D01*
X193790Y9448D01*
X193941Y9331D01*
X194093Y9211D01*
X194101Y9207D01*
X194108Y9202D01*
X194280Y9116D01*
X194452Y9029D01*
X194460Y9026D01*
X194468Y9022D01*
X194655Y8972D01*
X194840Y8921D01*
X194848Y8920D01*
X194857Y8918D01*
X195188Y8891D01*
X341006Y8891D01*
X341033Y8893D01*
X341060Y8891D01*
X341233Y8913D01*
X341407Y8931D01*
X341432Y8938D01*
X341459Y8942D01*
X341625Y8997D01*
X341792Y9049D01*
X341815Y9062D01*
X341841Y9070D01*
X341992Y9157D01*
X342146Y9241D01*
X342166Y9258D01*
X342190Y9271D01*
X342443Y9486D01*
X351890Y18933D01*
X351891Y18934D01*
X351893Y18936D01*
X352019Y19091D01*
X352145Y19244D01*
X352146Y19246D01*
X352147Y19248D01*
X352241Y19425D01*
X352333Y19600D01*
X352334Y19602D01*
X352335Y19604D01*
X352391Y19795D01*
X352448Y19986D01*
X352448Y19988D01*
X352449Y19990D01*
X352466Y20181D01*
X352484Y20387D01*
X352484Y20389D01*
X352484Y20391D01*
X352464Y20575D01*
X352441Y20787D01*
X352440Y20789D01*
X352440Y20791D01*
X352381Y20977D01*
X352320Y21171D01*
X352318Y21173D01*
X352318Y21175D01*
X352219Y21352D01*
X352125Y21523D01*
X352123Y21525D01*
X352122Y21527D01*
X351991Y21681D01*
X351864Y21830D01*
X351862Y21832D01*
X351861Y21833D01*
X351704Y21957D01*
X351548Y22080D01*
X351546Y22081D01*
X351545Y22082D01*
X351368Y22171D01*
X351189Y22262D01*
X351187Y22263D01*
X351185Y22264D01*
X350998Y22315D01*
X350801Y22370D01*
X350799Y22370D01*
X350797Y22371D01*
X350601Y22385D01*
X350400Y22400D01*
X350398Y22399D01*
X350395Y22399D01*
X350198Y22374D01*
X350001Y22349D01*
X349998Y22348D01*
X349996Y22348D01*
X349801Y22282D01*
X349619Y22221D01*
X349617Y22220D01*
X349615Y22219D01*
X349325Y22058D01*
X347343Y20734D01*
X344591Y19263D01*
X341710Y18069D01*
X338724Y17164D01*
X335664Y16555D01*
X335063Y16496D01*
X335063Y43937D01*
X362504Y43937D01*
X362445Y43336D01*
X361836Y40276D01*
X360931Y37290D01*
X359737Y34409D01*
X358266Y31657D01*
X356942Y29675D01*
X356941Y29673D01*
X356940Y29672D01*
X356846Y29495D01*
X356753Y29320D01*
X356752Y29318D01*
X356751Y29316D01*
X356695Y29126D01*
X356637Y28934D01*
X356637Y28932D01*
X356636Y28930D01*
X356618Y28732D01*
X356600Y28533D01*
X356600Y28531D01*
X356600Y28529D01*
X356621Y28329D01*
X356642Y28133D01*
X356643Y28131D01*
X356643Y28129D01*
X356704Y27937D01*
X356763Y27749D01*
X356764Y27747D01*
X356765Y27745D01*
X356860Y27572D01*
X356957Y27396D01*
X356958Y27394D01*
X356960Y27393D01*
X357088Y27241D01*
X357217Y27089D01*
X357219Y27087D01*
X357220Y27086D01*
X357377Y26961D01*
X357532Y26838D01*
X357534Y26837D01*
X357536Y26836D01*
X357714Y26745D01*
X357891Y26655D01*
X357893Y26655D01*
X357895Y26654D01*
X358089Y26599D01*
X358278Y26546D01*
X358281Y26546D01*
X358283Y26546D01*
X358488Y26531D01*
X358680Y26516D01*
X358682Y26516D01*
X358684Y26516D01*
X358891Y26542D01*
X359079Y26566D01*
X359081Y26566D01*
X359084Y26567D01*
X359275Y26631D01*
X359461Y26693D01*
X359463Y26694D01*
X359465Y26695D01*
X359637Y26794D01*
X359811Y26893D01*
X359812Y26895D01*
X359814Y26896D01*
X360067Y27110D01*
X368339Y35382D01*
X368339Y35383D01*
X370423Y37466D01*
X384922Y37466D01*
X384945Y37468D01*
X384967Y37466D01*
X385144Y37488D01*
X385323Y37506D01*
X385344Y37512D01*
X385367Y37515D01*
X385536Y37571D01*
X385708Y37624D01*
X385728Y37634D01*
X385749Y37641D01*
X385904Y37730D01*
X386062Y37816D01*
X386079Y37830D01*
X386098Y37841D01*
X386233Y37958D01*
X386371Y38073D01*
X386385Y38091D01*
X386402Y38105D01*
X386511Y38247D01*
X386624Y38387D01*
X386634Y38407D01*
X386647Y38425D01*
X386799Y38720D01*
X388427Y42649D01*
X391357Y45579D01*
X395184Y47165D01*
X417616Y47165D01*
X421443Y45579D01*
X424373Y42649D01*
X424686Y41895D01*
X424696Y41875D01*
X424703Y41854D01*
X424791Y41698D01*
X424876Y41540D01*
X424890Y41523D01*
X424901Y41503D01*
X425018Y41367D01*
X425132Y41229D01*
X425150Y41215D01*
X425164Y41198D01*
X425305Y41089D01*
X425445Y40976D01*
X425465Y40965D01*
X425482Y40952D01*
X425643Y40872D01*
X425802Y40789D01*
X425823Y40782D01*
X425843Y40772D01*
X426016Y40726D01*
X426188Y40676D01*
X426210Y40674D01*
X426232Y40668D01*
X426562Y40641D01*
X437038Y40641D01*
X437060Y40643D01*
X437082Y40641D01*
X437260Y40663D01*
X437438Y40681D01*
X437460Y40687D01*
X437482Y40690D01*
X437651Y40746D01*
X437823Y40799D01*
X437843Y40809D01*
X437864Y40816D01*
X438019Y40905D01*
X438177Y40991D01*
X438194Y41005D01*
X438214Y41016D01*
X438349Y41134D01*
X438486Y41248D01*
X438500Y41266D01*
X438517Y41280D01*
X438627Y41423D01*
X438739Y41562D01*
X438749Y41582D01*
X438763Y41600D01*
X438914Y41895D01*
X439227Y42649D01*
X442157Y45579D01*
X445984Y47165D01*
X468416Y47165D01*
X472243Y45579D01*
X475173Y42649D01*
X476759Y38822D01*
X476759Y34678D01*
X475173Y30851D01*
X472243Y27921D01*
X468416Y26335D01*
X445984Y26335D01*
X442157Y27921D01*
X439227Y30851D01*
X437796Y34305D01*
X437785Y34325D01*
X437778Y34346D01*
X437690Y34502D01*
X437606Y34660D01*
X437591Y34677D01*
X437580Y34697D01*
X437464Y34832D01*
X437349Y34971D01*
X437332Y34985D01*
X437317Y35002D01*
X437176Y35111D01*
X437037Y35224D01*
X437017Y35235D01*
X436999Y35248D01*
X436838Y35328D01*
X436680Y35411D01*
X436659Y35418D01*
X436639Y35428D01*
X436465Y35474D01*
X436294Y35524D01*
X436271Y35526D01*
X436250Y35532D01*
X435919Y35559D01*
X427681Y35559D01*
X427659Y35557D01*
X427636Y35559D01*
X427459Y35537D01*
X427280Y35519D01*
X427259Y35513D01*
X427237Y35510D01*
X427067Y35454D01*
X426895Y35401D01*
X426876Y35391D01*
X426855Y35384D01*
X426699Y35295D01*
X426541Y35209D01*
X426524Y35195D01*
X426505Y35184D01*
X426369Y35066D01*
X426232Y34952D01*
X426218Y34934D01*
X426201Y34920D01*
X426092Y34778D01*
X425980Y34638D01*
X425969Y34618D01*
X425956Y34600D01*
X425804Y34305D01*
X424373Y30851D01*
X421443Y27921D01*
X417616Y26335D01*
X395184Y26335D01*
X391357Y27921D01*
X388427Y30851D01*
X388311Y31130D01*
X388300Y31150D01*
X388293Y31171D01*
X388205Y31327D01*
X388121Y31485D01*
X388107Y31502D01*
X388096Y31522D01*
X387978Y31657D01*
X387864Y31796D01*
X387847Y31810D01*
X387832Y31827D01*
X387691Y31936D01*
X387552Y32049D01*
X387532Y32060D01*
X387514Y32073D01*
X387354Y32153D01*
X387195Y32236D01*
X387174Y32243D01*
X387154Y32253D01*
X386981Y32299D01*
X386809Y32349D01*
X386787Y32351D01*
X386765Y32357D01*
X386434Y32384D01*
X373369Y32384D01*
X373342Y32382D01*
X373315Y32384D01*
X373142Y32362D01*
X372968Y32344D01*
X372943Y32337D01*
X372916Y32333D01*
X372750Y32278D01*
X372583Y32226D01*
X372560Y32213D01*
X372534Y32205D01*
X372383Y32118D01*
X372229Y32034D01*
X372209Y32017D01*
X372185Y32004D01*
X371932Y31789D01*
X346036Y5893D01*
X346036Y5892D01*
X345611Y5468D01*
X345606Y5461D01*
X345599Y5456D01*
X345479Y5306D01*
X345356Y5157D01*
X345352Y5149D01*
X345347Y5142D01*
X345259Y4973D01*
X345168Y4801D01*
X345165Y4792D01*
X345161Y4785D01*
X345108Y4601D01*
X345053Y4415D01*
X345052Y4406D01*
X345050Y4398D01*
X345034Y4206D01*
X345017Y4014D01*
X345018Y4005D01*
X345017Y3996D01*
X345039Y3806D01*
X345060Y3614D01*
X345063Y3605D01*
X345064Y3597D01*
X345124Y3413D01*
X345181Y3230D01*
X345186Y3222D01*
X345189Y3214D01*
X345284Y3045D01*
X345376Y2878D01*
X345382Y2871D01*
X345386Y2863D01*
X345512Y2718D01*
X345637Y2571D01*
X345644Y2565D01*
X345650Y2558D01*
X345801Y2441D01*
X345953Y2321D01*
X345961Y2317D01*
X345968Y2312D01*
X346140Y2226D01*
X346312Y2139D01*
X346320Y2136D01*
X346328Y2132D01*
X346516Y2082D01*
X346699Y2031D01*
X346708Y2030D01*
X346717Y2028D01*
X347048Y2001D01*
X477252Y2001D01*
X477279Y2003D01*
X477306Y2001D01*
X477479Y2023D01*
X477653Y2041D01*
X477678Y2048D01*
X477705Y2052D01*
X477871Y2107D01*
X478038Y2159D01*
X478061Y2172D01*
X478087Y2180D01*
X478238Y2267D01*
X478392Y2351D01*
X478412Y2368D01*
X478436Y2381D01*
X478689Y2596D01*
X478856Y2763D01*
X480000Y2763D01*
X480066Y2769D01*
X480159Y2769D01*
X482538Y2956D01*
X482610Y2969D01*
X482684Y2973D01*
X482848Y3012D01*
X482934Y3027D01*
X482965Y3040D01*
X483006Y3049D01*
X487531Y4519D01*
X487671Y4581D01*
X487814Y4636D01*
X487861Y4664D01*
X487900Y4681D01*
X487970Y4731D01*
X488097Y4808D01*
X491946Y7604D01*
X492060Y7706D01*
X492179Y7802D01*
X492215Y7844D01*
X492247Y7872D01*
X492299Y7941D01*
X492396Y8054D01*
X495192Y11903D01*
X495269Y12035D01*
X495353Y12163D01*
X495374Y12214D01*
X495395Y12250D01*
X495423Y12332D01*
X495481Y12469D01*
X496951Y16994D01*
X496966Y17065D01*
X496991Y17134D01*
X497018Y17302D01*
X497036Y17387D01*
X497037Y17420D01*
X497044Y17462D01*
X497231Y19841D01*
X497230Y19907D01*
X497237Y20000D01*
X497237Y21144D01*
X497404Y21311D01*
X497421Y21332D01*
X497442Y21350D01*
X497549Y21488D01*
X497659Y21623D01*
X497672Y21647D01*
X497688Y21668D01*
X497766Y21825D01*
X497848Y21979D01*
X497856Y22004D01*
X497868Y22028D01*
X497913Y22198D01*
X497963Y22365D01*
X497965Y22391D01*
X497972Y22417D01*
X497999Y22748D01*
X497999Y177252D01*
X497997Y177279D01*
X497999Y177306D01*
X497977Y177479D01*
X497959Y177653D01*
X497952Y177678D01*
X497948Y177705D01*
X497893Y177871D01*
X497841Y178038D01*
X497828Y178061D01*
X497820Y178087D01*
X497733Y178238D01*
X497649Y178392D01*
X497632Y178412D01*
X497619Y178436D01*
X497404Y178689D01*
X497237Y178856D01*
X497237Y180000D01*
X497231Y180066D01*
X497231Y180159D01*
X497044Y182538D01*
X497031Y182610D01*
X497027Y182684D01*
X496988Y182848D01*
X496973Y182934D01*
X496960Y182965D01*
X496951Y183006D01*
X495481Y187531D01*
X495439Y187625D01*
X495417Y187693D01*
X495397Y187729D01*
X495364Y187814D01*
X495336Y187861D01*
X495319Y187900D01*
X495269Y187970D01*
X495192Y188097D01*
X492396Y191946D01*
X492294Y192060D01*
X492198Y192179D01*
X492156Y192215D01*
X492128Y192247D01*
X492059Y192299D01*
X491946Y192396D01*
X488097Y195192D01*
X487965Y195269D01*
X487837Y195353D01*
X487786Y195374D01*
X487750Y195395D01*
X487668Y195423D01*
X487531Y195481D01*
X483006Y196951D01*
X482935Y196966D01*
X482866Y196991D01*
X482698Y197018D01*
X482613Y197036D01*
X482580Y197037D01*
X482538Y197044D01*
X480159Y197231D01*
X480093Y197230D01*
X480000Y197237D01*
X478856Y197237D01*
X478689Y197404D01*
X478668Y197421D01*
X478650Y197442D01*
X478512Y197549D01*
X478377Y197659D01*
X478353Y197672D01*
X478332Y197688D01*
X478175Y197766D01*
X478021Y197848D01*
X477996Y197856D01*
X477972Y197868D01*
X477802Y197913D01*
X477635Y197963D01*
X477609Y197965D01*
X477583Y197972D01*
X477252Y197999D01*
X22748Y197999D01*
X22721Y197997D01*
X22694Y197999D01*
X22521Y197977D01*
X22347Y197959D01*
X22322Y197952D01*
X22295Y197948D01*
X22129Y197893D01*
X21962Y197841D01*
X21939Y197828D01*
X21913Y197820D01*
X21762Y197733D01*
X21608Y197649D01*
X21588Y197632D01*
X21564Y197619D01*
X21311Y197404D01*
X21144Y197237D01*
X20000Y197237D01*
X19934Y197231D01*
X19841Y197231D01*
X17462Y197044D01*
X17390Y197031D01*
X17316Y197027D01*
X17168Y196992D01*
X17163Y196991D01*
X17153Y196988D01*
X17152Y196988D01*
X17066Y196973D01*
X17035Y196960D01*
X16994Y196951D01*
X12469Y195481D01*
X12329Y195419D01*
X12186Y195364D01*
X12139Y195336D01*
X12100Y195319D01*
X12030Y195269D01*
X11903Y195192D01*
X8054Y192396D01*
X7940Y192294D01*
X7821Y192198D01*
X7785Y192156D01*
X7753Y192128D01*
X7701Y192059D01*
X7604Y191946D01*
X4808Y188097D01*
X4746Y187991D01*
X4741Y187985D01*
X4730Y187965D01*
X4647Y187837D01*
X4626Y187786D01*
X4605Y187750D01*
X4577Y187670D01*
X4555Y187628D01*
X4546Y187594D01*
X4519Y187531D01*
X3049Y183006D01*
X3034Y182935D01*
X3009Y182866D01*
X2982Y182698D01*
X2964Y182613D01*
X2963Y182580D01*
X2956Y182538D01*
X2769Y180159D01*
X2770Y180093D01*
X2763Y180000D01*
X2763Y178856D01*
X2596Y178689D01*
X2579Y178668D01*
X2558Y178650D01*
X2451Y178512D01*
X2341Y178377D01*
X2328Y178353D01*
X2312Y178332D01*
X2234Y178175D01*
X2152Y178021D01*
X2144Y177996D01*
X2132Y177972D01*
X2087Y177802D01*
X2037Y177635D01*
X2035Y177609D01*
X2028Y177583D01*
X2001Y177252D01*
X2001Y22748D01*
X2003Y22721D01*
X2001Y22694D01*
X2023Y22521D01*
X2041Y22347D01*
X2048Y22322D01*
X2052Y22295D01*
X2107Y22129D01*
X2159Y21962D01*
X2172Y21939D01*
X2180Y21913D01*
X2267Y21762D01*
X2351Y21608D01*
X2368Y21588D01*
X2381Y21564D01*
X2596Y21311D01*
X2763Y21144D01*
X2763Y20000D01*
X2769Y19934D01*
X2769Y19841D01*
X2956Y17462D01*
X2969Y17390D01*
X2973Y17316D01*
X3012Y17152D01*
X3027Y17066D01*
X3040Y17035D01*
X3049Y16994D01*
X4519Y12469D01*
X4581Y12329D01*
X4636Y12186D01*
X4664Y12139D01*
X4681Y12100D01*
X4731Y12030D01*
X4808Y11903D01*
X7604Y8054D01*
X7706Y7940D01*
X7802Y7821D01*
X7844Y7785D01*
X7872Y7753D01*
X7941Y7701D01*
X8054Y7604D01*
X11903Y4808D01*
X12035Y4731D01*
X12163Y4647D01*
X12214Y4626D01*
X12250Y4605D01*
X12332Y4577D01*
X12469Y4519D01*
X16994Y3049D01*
X17065Y3034D01*
X17134Y3009D01*
X17302Y2982D01*
X17387Y2964D01*
X17420Y2963D01*
X17462Y2956D01*
X19841Y2769D01*
X19907Y2770D01*
X20000Y2763D01*
X21144Y2763D01*
X21311Y2596D01*
X21318Y2590D01*
X21319Y2589D01*
X21328Y2582D01*
X21332Y2579D01*
X21350Y2558D01*
X21488Y2451D01*
X21623Y2341D01*
X21647Y2328D01*
X21668Y2312D01*
X21825Y2234D01*
X21979Y2152D01*
X22004Y2144D01*
X22028Y2132D01*
X22198Y2087D01*
X22365Y2037D01*
X22391Y2035D01*
X22417Y2028D01*
X22748Y2001D01*
X145077Y2001D01*
X145086Y2002D01*
G37*
%LPC*%
G36*
X395184Y102535D02*
X395184Y102535D01*
X391357Y104121D01*
X388427Y107051D01*
X386841Y110878D01*
X386841Y115022D01*
X388427Y118849D01*
X391357Y121779D01*
X394660Y123148D01*
X394738Y123189D01*
X394821Y123222D01*
X394915Y123284D01*
X395015Y123338D01*
X395083Y123394D01*
X395158Y123443D01*
X395238Y123522D01*
X395325Y123594D01*
X395381Y123663D01*
X395445Y123725D01*
X395508Y123819D01*
X395579Y123907D01*
X395620Y123985D01*
X395670Y124059D01*
X395714Y124163D01*
X395766Y124263D01*
X395791Y124348D01*
X395825Y124430D01*
X395847Y124541D01*
X395879Y124650D01*
X395887Y124738D01*
X395904Y124825D01*
X395904Y124938D01*
X395914Y125051D01*
X395904Y125139D01*
X395904Y125228D01*
X395881Y125339D01*
X395869Y125451D01*
X395842Y125535D01*
X395824Y125622D01*
X395780Y125727D01*
X395746Y125834D01*
X395702Y125912D01*
X395668Y125994D01*
X395604Y126087D01*
X395549Y126186D01*
X395491Y126253D01*
X395442Y126327D01*
X395361Y126406D01*
X395287Y126492D01*
X395217Y126546D01*
X395154Y126608D01*
X395059Y126670D01*
X394970Y126740D01*
X394891Y126780D01*
X394817Y126828D01*
X394686Y126883D01*
X394611Y126921D01*
X394566Y126933D01*
X394510Y126956D01*
X392770Y127521D01*
X391132Y128356D01*
X389644Y129437D01*
X388343Y130738D01*
X387262Y132226D01*
X386427Y133864D01*
X385859Y135614D01*
X385828Y135811D01*
X405892Y135811D01*
X405910Y135812D01*
X405927Y135811D01*
X406110Y135832D01*
X406292Y135851D01*
X406309Y135856D01*
X406327Y135858D01*
X406405Y135883D01*
X406542Y135844D01*
X406560Y135842D01*
X406577Y135838D01*
X406908Y135811D01*
X426972Y135811D01*
X426941Y135614D01*
X426373Y133864D01*
X425538Y132226D01*
X424457Y130738D01*
X423156Y129437D01*
X421668Y128356D01*
X420030Y127521D01*
X418290Y126956D01*
X418208Y126920D01*
X418124Y126894D01*
X418024Y126840D01*
X417921Y126794D01*
X417848Y126743D01*
X417770Y126701D01*
X417684Y126628D01*
X417591Y126563D01*
X417530Y126499D01*
X417462Y126441D01*
X417392Y126353D01*
X417314Y126271D01*
X417266Y126196D01*
X417211Y126127D01*
X417160Y126026D01*
X417099Y125930D01*
X417068Y125847D01*
X417027Y125769D01*
X416997Y125660D01*
X416956Y125554D01*
X416942Y125466D01*
X416918Y125381D01*
X416909Y125269D01*
X416890Y125157D01*
X416893Y125068D01*
X416886Y124980D01*
X416900Y124868D01*
X416904Y124755D01*
X416924Y124668D01*
X416935Y124580D01*
X416971Y124473D01*
X416997Y124363D01*
X417034Y124282D01*
X417062Y124198D01*
X417118Y124100D01*
X417165Y123997D01*
X417217Y123925D01*
X417261Y123848D01*
X417335Y123763D01*
X417402Y123672D01*
X417467Y123612D01*
X417526Y123545D01*
X417615Y123476D01*
X417698Y123399D01*
X417774Y123353D01*
X417845Y123299D01*
X417970Y123235D01*
X418043Y123191D01*
X418086Y123175D01*
X418140Y123148D01*
X421443Y121779D01*
X424373Y118849D01*
X424686Y118095D01*
X424696Y118075D01*
X424703Y118054D01*
X424791Y117898D01*
X424876Y117740D01*
X424890Y117723D01*
X424901Y117703D01*
X425018Y117567D01*
X425132Y117429D01*
X425150Y117415D01*
X425164Y117398D01*
X425305Y117289D01*
X425445Y117176D01*
X425465Y117165D01*
X425482Y117152D01*
X425643Y117072D01*
X425802Y116989D01*
X425823Y116982D01*
X425843Y116972D01*
X426016Y116926D01*
X426188Y116876D01*
X426210Y116874D01*
X426232Y116868D01*
X426562Y116841D01*
X437038Y116841D01*
X437060Y116843D01*
X437082Y116841D01*
X437260Y116863D01*
X437438Y116881D01*
X437460Y116887D01*
X437482Y116890D01*
X437651Y116946D01*
X437823Y116999D01*
X437843Y117009D01*
X437864Y117016D01*
X438019Y117105D01*
X438177Y117191D01*
X438194Y117205D01*
X438214Y117216D01*
X438349Y117334D01*
X438486Y117448D01*
X438500Y117466D01*
X438517Y117480D01*
X438627Y117623D01*
X438739Y117762D01*
X438749Y117782D01*
X438763Y117800D01*
X438914Y118095D01*
X439227Y118849D01*
X442157Y121779D01*
X445460Y123148D01*
X445538Y123189D01*
X445621Y123222D01*
X445715Y123284D01*
X445815Y123338D01*
X445883Y123394D01*
X445958Y123443D01*
X446038Y123522D01*
X446125Y123594D01*
X446181Y123663D01*
X446245Y123725D01*
X446308Y123819D01*
X446379Y123907D01*
X446420Y123985D01*
X446470Y124059D01*
X446514Y124163D01*
X446566Y124263D01*
X446591Y124348D01*
X446625Y124430D01*
X446647Y124541D01*
X446679Y124650D01*
X446687Y124738D01*
X446704Y124825D01*
X446704Y124938D01*
X446714Y125051D01*
X446704Y125139D01*
X446704Y125228D01*
X446681Y125339D01*
X446669Y125451D01*
X446642Y125535D01*
X446624Y125622D01*
X446580Y125727D01*
X446546Y125834D01*
X446502Y125912D01*
X446468Y125994D01*
X446404Y126087D01*
X446349Y126186D01*
X446291Y126253D01*
X446242Y126327D01*
X446161Y126406D01*
X446087Y126492D01*
X446017Y126546D01*
X445954Y126608D01*
X445859Y126670D01*
X445770Y126740D01*
X445691Y126780D01*
X445617Y126828D01*
X445486Y126883D01*
X445411Y126921D01*
X445366Y126933D01*
X445310Y126956D01*
X443570Y127521D01*
X441932Y128356D01*
X440444Y129437D01*
X439143Y130738D01*
X438062Y132226D01*
X437227Y133864D01*
X436659Y135614D01*
X436628Y135811D01*
X456692Y135811D01*
X456710Y135812D01*
X456727Y135811D01*
X456910Y135832D01*
X457092Y135851D01*
X457109Y135856D01*
X457127Y135858D01*
X457205Y135883D01*
X457342Y135844D01*
X457360Y135842D01*
X457377Y135838D01*
X457708Y135811D01*
X477772Y135811D01*
X477741Y135614D01*
X477173Y133864D01*
X476338Y132226D01*
X475257Y130738D01*
X473956Y129437D01*
X472468Y128356D01*
X470830Y127521D01*
X469090Y126956D01*
X469008Y126920D01*
X468924Y126894D01*
X468824Y126840D01*
X468721Y126794D01*
X468648Y126743D01*
X468570Y126701D01*
X468484Y126628D01*
X468391Y126563D01*
X468330Y126499D01*
X468262Y126441D01*
X468192Y126353D01*
X468114Y126271D01*
X468066Y126196D01*
X468011Y126127D01*
X467960Y126026D01*
X467899Y125930D01*
X467868Y125847D01*
X467827Y125769D01*
X467797Y125660D01*
X467756Y125554D01*
X467742Y125466D01*
X467718Y125381D01*
X467709Y125269D01*
X467690Y125157D01*
X467693Y125068D01*
X467686Y124980D01*
X467700Y124868D01*
X467704Y124755D01*
X467724Y124668D01*
X467735Y124580D01*
X467771Y124473D01*
X467797Y124363D01*
X467834Y124282D01*
X467862Y124198D01*
X467918Y124100D01*
X467965Y123997D01*
X468017Y123925D01*
X468061Y123848D01*
X468135Y123763D01*
X468202Y123672D01*
X468267Y123612D01*
X468326Y123545D01*
X468415Y123476D01*
X468498Y123399D01*
X468574Y123353D01*
X468645Y123299D01*
X468770Y123235D01*
X468843Y123191D01*
X468886Y123175D01*
X468940Y123148D01*
X472243Y121779D01*
X475173Y118849D01*
X476759Y115022D01*
X476759Y110878D01*
X475173Y107051D01*
X472243Y104121D01*
X468416Y102535D01*
X445984Y102535D01*
X442157Y104121D01*
X439227Y107051D01*
X437796Y110505D01*
X437785Y110525D01*
X437778Y110546D01*
X437690Y110702D01*
X437606Y110860D01*
X437591Y110877D01*
X437580Y110897D01*
X437464Y111032D01*
X437349Y111171D01*
X437332Y111185D01*
X437317Y111202D01*
X437176Y111311D01*
X437037Y111424D01*
X437017Y111435D01*
X436999Y111448D01*
X436838Y111528D01*
X436680Y111611D01*
X436659Y111618D01*
X436639Y111628D01*
X436465Y111674D01*
X436294Y111724D01*
X436271Y111726D01*
X436250Y111732D01*
X435919Y111759D01*
X427681Y111759D01*
X427659Y111757D01*
X427636Y111759D01*
X427459Y111737D01*
X427280Y111719D01*
X427259Y111713D01*
X427237Y111710D01*
X427067Y111654D01*
X426895Y111601D01*
X426876Y111591D01*
X426855Y111584D01*
X426699Y111495D01*
X426541Y111409D01*
X426524Y111395D01*
X426505Y111384D01*
X426369Y111266D01*
X426232Y111152D01*
X426218Y111134D01*
X426201Y111120D01*
X426092Y110978D01*
X425980Y110838D01*
X425969Y110818D01*
X425956Y110800D01*
X425804Y110505D01*
X424373Y107051D01*
X421443Y104121D01*
X417616Y102535D01*
X395184Y102535D01*
G37*
%LPD*%
%LPC*%
G36*
X395184Y51735D02*
X395184Y51735D01*
X391357Y53321D01*
X388427Y56251D01*
X386841Y60078D01*
X386841Y64222D01*
X388427Y68049D01*
X391357Y70979D01*
X395184Y72565D01*
X417616Y72565D01*
X421443Y70979D01*
X424373Y68049D01*
X424686Y67295D01*
X424696Y67275D01*
X424703Y67254D01*
X424791Y67098D01*
X424876Y66940D01*
X424890Y66923D01*
X424901Y66903D01*
X425018Y66767D01*
X425132Y66629D01*
X425150Y66615D01*
X425164Y66598D01*
X425305Y66489D01*
X425445Y66376D01*
X425465Y66365D01*
X425482Y66352D01*
X425643Y66272D01*
X425802Y66189D01*
X425823Y66182D01*
X425843Y66172D01*
X426016Y66126D01*
X426188Y66076D01*
X426210Y66074D01*
X426232Y66068D01*
X426562Y66041D01*
X437038Y66041D01*
X437060Y66043D01*
X437082Y66041D01*
X437260Y66063D01*
X437438Y66081D01*
X437460Y66087D01*
X437482Y66090D01*
X437651Y66146D01*
X437823Y66199D01*
X437843Y66209D01*
X437864Y66216D01*
X438019Y66305D01*
X438177Y66391D01*
X438194Y66405D01*
X438214Y66416D01*
X438349Y66534D01*
X438486Y66648D01*
X438500Y66666D01*
X438517Y66680D01*
X438627Y66823D01*
X438739Y66962D01*
X438749Y66982D01*
X438763Y67000D01*
X438914Y67295D01*
X439227Y68049D01*
X442157Y70979D01*
X445984Y72565D01*
X468416Y72565D01*
X472243Y70979D01*
X475173Y68049D01*
X476759Y64222D01*
X476759Y60078D01*
X475173Y56251D01*
X472243Y53321D01*
X470635Y52655D01*
X470635Y52654D01*
X468416Y51735D01*
X445984Y51735D01*
X442157Y53321D01*
X439227Y56251D01*
X437796Y59705D01*
X437790Y59716D01*
X437787Y59724D01*
X437783Y59732D01*
X437778Y59746D01*
X437690Y59902D01*
X437606Y60060D01*
X437591Y60077D01*
X437580Y60097D01*
X437464Y60232D01*
X437349Y60371D01*
X437332Y60385D01*
X437317Y60402D01*
X437176Y60511D01*
X437037Y60624D01*
X437017Y60635D01*
X436999Y60648D01*
X436838Y60728D01*
X436680Y60811D01*
X436659Y60818D01*
X436639Y60828D01*
X436465Y60874D01*
X436294Y60924D01*
X436271Y60926D01*
X436250Y60932D01*
X435919Y60959D01*
X427681Y60959D01*
X427659Y60957D01*
X427636Y60959D01*
X427459Y60937D01*
X427280Y60919D01*
X427259Y60913D01*
X427237Y60910D01*
X427067Y60854D01*
X426895Y60801D01*
X426876Y60791D01*
X426855Y60784D01*
X426699Y60695D01*
X426541Y60609D01*
X426524Y60595D01*
X426505Y60584D01*
X426369Y60466D01*
X426232Y60352D01*
X426218Y60334D01*
X426201Y60320D01*
X426092Y60178D01*
X425980Y60038D01*
X425969Y60018D01*
X425956Y60000D01*
X425804Y59705D01*
X424373Y56251D01*
X421443Y53321D01*
X419835Y52655D01*
X419835Y52654D01*
X417616Y51735D01*
X395184Y51735D01*
G37*
%LPD*%
%LPC*%
G36*
X395184Y77135D02*
X395184Y77135D01*
X391357Y78721D01*
X388427Y81651D01*
X386841Y85478D01*
X386841Y89622D01*
X388427Y93449D01*
X391357Y96379D01*
X394444Y97658D01*
X395184Y97965D01*
X417616Y97965D01*
X421443Y96379D01*
X424373Y93449D01*
X424686Y92695D01*
X424696Y92675D01*
X424703Y92654D01*
X424791Y92498D01*
X424876Y92340D01*
X424890Y92323D01*
X424901Y92303D01*
X425018Y92167D01*
X425132Y92029D01*
X425150Y92015D01*
X425164Y91998D01*
X425305Y91889D01*
X425445Y91776D01*
X425465Y91765D01*
X425482Y91752D01*
X425643Y91672D01*
X425802Y91589D01*
X425823Y91582D01*
X425843Y91572D01*
X426016Y91526D01*
X426188Y91476D01*
X426210Y91474D01*
X426232Y91468D01*
X426562Y91441D01*
X437038Y91441D01*
X437060Y91443D01*
X437082Y91441D01*
X437260Y91463D01*
X437438Y91481D01*
X437460Y91487D01*
X437482Y91490D01*
X437651Y91546D01*
X437823Y91599D01*
X437843Y91609D01*
X437864Y91616D01*
X438019Y91705D01*
X438177Y91791D01*
X438194Y91805D01*
X438214Y91816D01*
X438349Y91934D01*
X438486Y92048D01*
X438500Y92066D01*
X438517Y92080D01*
X438627Y92223D01*
X438739Y92362D01*
X438749Y92382D01*
X438763Y92400D01*
X438914Y92695D01*
X439227Y93449D01*
X442157Y96379D01*
X445244Y97658D01*
X445984Y97965D01*
X468416Y97965D01*
X472243Y96379D01*
X475173Y93449D01*
X476759Y89622D01*
X476759Y85478D01*
X475173Y81651D01*
X472243Y78721D01*
X468416Y77135D01*
X445984Y77135D01*
X442157Y78721D01*
X439227Y81651D01*
X437796Y85105D01*
X437785Y85125D01*
X437778Y85146D01*
X437690Y85302D01*
X437606Y85460D01*
X437591Y85477D01*
X437580Y85497D01*
X437464Y85632D01*
X437349Y85771D01*
X437332Y85785D01*
X437317Y85802D01*
X437176Y85911D01*
X437037Y86024D01*
X437017Y86035D01*
X436999Y86048D01*
X436838Y86128D01*
X436680Y86211D01*
X436659Y86218D01*
X436639Y86228D01*
X436465Y86274D01*
X436294Y86324D01*
X436271Y86326D01*
X436250Y86332D01*
X435919Y86359D01*
X427681Y86359D01*
X427659Y86357D01*
X427636Y86359D01*
X427459Y86337D01*
X427280Y86319D01*
X427259Y86313D01*
X427237Y86310D01*
X427067Y86254D01*
X426895Y86201D01*
X426876Y86191D01*
X426855Y86184D01*
X426699Y86095D01*
X426541Y86009D01*
X426524Y85995D01*
X426505Y85984D01*
X426369Y85866D01*
X426232Y85752D01*
X426218Y85734D01*
X426201Y85720D01*
X426092Y85578D01*
X425980Y85438D01*
X425969Y85418D01*
X425956Y85400D01*
X425804Y85105D01*
X424373Y81651D01*
X421443Y78721D01*
X417616Y77135D01*
X395184Y77135D01*
G37*
%LPD*%
G36*
X188633Y15243D02*
X188633Y15243D01*
X188660Y15241D01*
X188833Y15263D01*
X189007Y15281D01*
X189032Y15288D01*
X189059Y15292D01*
X189225Y15347D01*
X189392Y15399D01*
X189415Y15412D01*
X189441Y15420D01*
X189592Y15507D01*
X189746Y15591D01*
X189766Y15608D01*
X189790Y15621D01*
X190043Y15836D01*
X214427Y40220D01*
X214432Y40227D01*
X214439Y40232D01*
X214559Y40382D01*
X214682Y40531D01*
X214686Y40539D01*
X214691Y40546D01*
X214780Y40717D01*
X214870Y40887D01*
X214873Y40895D01*
X214877Y40903D01*
X214930Y41089D01*
X214985Y41273D01*
X214986Y41282D01*
X214988Y41290D01*
X215004Y41482D01*
X215021Y41674D01*
X215020Y41683D01*
X215021Y41692D01*
X214999Y41878D01*
X214978Y42074D01*
X214975Y42083D01*
X214974Y42091D01*
X214915Y42273D01*
X214857Y42458D01*
X214852Y42466D01*
X214849Y42474D01*
X214755Y42641D01*
X214662Y42810D01*
X214656Y42817D01*
X214652Y42825D01*
X214526Y42971D01*
X214401Y43117D01*
X214394Y43123D01*
X214388Y43130D01*
X214237Y43247D01*
X214085Y43367D01*
X214077Y43371D01*
X214070Y43376D01*
X213898Y43462D01*
X213726Y43549D01*
X213718Y43552D01*
X213710Y43556D01*
X213523Y43606D01*
X213338Y43657D01*
X213330Y43658D01*
X213321Y43660D01*
X212990Y43687D01*
X189952Y43687D01*
X189934Y43685D01*
X189916Y43687D01*
X189734Y43666D01*
X189551Y43647D01*
X189534Y43642D01*
X189517Y43640D01*
X189342Y43583D01*
X189166Y43529D01*
X189151Y43521D01*
X189134Y43515D01*
X188973Y43425D01*
X188812Y43337D01*
X188799Y43326D01*
X188783Y43317D01*
X188644Y43197D01*
X188503Y43080D01*
X188492Y43066D01*
X188478Y43054D01*
X188366Y42909D01*
X188251Y42766D01*
X188243Y42750D01*
X188232Y42736D01*
X188150Y42571D01*
X188065Y42409D01*
X188060Y42392D01*
X188052Y42376D01*
X188005Y42197D01*
X187954Y42022D01*
X187952Y42004D01*
X187948Y41987D01*
X187921Y41656D01*
X187921Y20434D01*
X187176Y19689D01*
X181124Y19689D01*
X180379Y20434D01*
X180379Y41656D01*
X180377Y41674D01*
X180379Y41692D01*
X180358Y41874D01*
X180339Y42057D01*
X180334Y42074D01*
X180332Y42091D01*
X180275Y42266D01*
X180221Y42442D01*
X180213Y42457D01*
X180207Y42474D01*
X180117Y42634D01*
X180029Y42796D01*
X180018Y42809D01*
X180009Y42825D01*
X179889Y42964D01*
X179772Y43105D01*
X179758Y43116D01*
X179746Y43130D01*
X179601Y43242D01*
X179458Y43357D01*
X179442Y43365D01*
X179428Y43376D01*
X179263Y43458D01*
X179101Y43543D01*
X179084Y43548D01*
X179068Y43556D01*
X178889Y43603D01*
X178714Y43654D01*
X178696Y43656D01*
X178679Y43660D01*
X178348Y43687D01*
X177252Y43687D01*
X177234Y43685D01*
X177216Y43687D01*
X177034Y43666D01*
X176851Y43647D01*
X176834Y43642D01*
X176817Y43640D01*
X176642Y43583D01*
X176466Y43529D01*
X176451Y43521D01*
X176434Y43515D01*
X176273Y43425D01*
X176112Y43337D01*
X176099Y43326D01*
X176083Y43317D01*
X175944Y43197D01*
X175803Y43080D01*
X175792Y43066D01*
X175778Y43054D01*
X175666Y42909D01*
X175551Y42766D01*
X175543Y42750D01*
X175532Y42736D01*
X175450Y42571D01*
X175365Y42409D01*
X175360Y42392D01*
X175352Y42376D01*
X175305Y42197D01*
X175254Y42022D01*
X175252Y42004D01*
X175248Y41987D01*
X175221Y41656D01*
X175221Y20434D01*
X174476Y19689D01*
X168424Y19689D01*
X167679Y20434D01*
X167679Y41656D01*
X167677Y41674D01*
X167679Y41692D01*
X167658Y41874D01*
X167639Y42057D01*
X167634Y42074D01*
X167632Y42091D01*
X167575Y42266D01*
X167521Y42442D01*
X167513Y42457D01*
X167507Y42474D01*
X167417Y42634D01*
X167329Y42796D01*
X167318Y42809D01*
X167309Y42825D01*
X167189Y42964D01*
X167072Y43105D01*
X167058Y43116D01*
X167046Y43130D01*
X166901Y43242D01*
X166758Y43357D01*
X166742Y43365D01*
X166728Y43376D01*
X166563Y43458D01*
X166401Y43543D01*
X166384Y43548D01*
X166368Y43556D01*
X166189Y43603D01*
X166014Y43654D01*
X165996Y43656D01*
X165979Y43660D01*
X165648Y43687D01*
X164552Y43687D01*
X164534Y43685D01*
X164516Y43687D01*
X164334Y43666D01*
X164151Y43647D01*
X164134Y43642D01*
X164117Y43640D01*
X163942Y43583D01*
X163766Y43529D01*
X163751Y43521D01*
X163734Y43515D01*
X163573Y43425D01*
X163412Y43337D01*
X163399Y43326D01*
X163383Y43317D01*
X163244Y43197D01*
X163103Y43080D01*
X163092Y43066D01*
X163078Y43054D01*
X162966Y42909D01*
X162851Y42766D01*
X162843Y42750D01*
X162832Y42736D01*
X162750Y42571D01*
X162665Y42409D01*
X162660Y42392D01*
X162652Y42376D01*
X162605Y42197D01*
X162554Y42022D01*
X162552Y42004D01*
X162548Y41987D01*
X162521Y41656D01*
X162521Y19714D01*
X162523Y19687D01*
X162521Y19660D01*
X162543Y19486D01*
X162561Y19313D01*
X162568Y19288D01*
X162572Y19261D01*
X162628Y19095D01*
X162679Y18928D01*
X162692Y18905D01*
X162700Y18879D01*
X162787Y18728D01*
X162871Y18574D01*
X162888Y18554D01*
X162901Y18530D01*
X163116Y18277D01*
X165557Y15836D01*
X165578Y15819D01*
X165596Y15798D01*
X165734Y15692D01*
X165869Y15581D01*
X165893Y15568D01*
X165914Y15552D01*
X166070Y15474D01*
X166225Y15392D01*
X166250Y15384D01*
X166274Y15372D01*
X166443Y15327D01*
X166611Y15277D01*
X166637Y15275D01*
X166663Y15268D01*
X166994Y15241D01*
X188606Y15241D01*
X188633Y15243D01*
G37*
%LPC*%
G36*
X47063Y157063D02*
X47063Y157063D01*
X47063Y184504D01*
X47664Y184445D01*
X50724Y183836D01*
X53710Y182931D01*
X56591Y181737D01*
X59343Y180266D01*
X61936Y178533D01*
X64348Y176554D01*
X66554Y174348D01*
X68533Y171936D01*
X70266Y169343D01*
X71737Y166591D01*
X72931Y163710D01*
X73836Y160724D01*
X74445Y157664D01*
X74504Y157063D01*
X47063Y157063D01*
G37*
%LPD*%
%LPC*%
G36*
X335063Y52063D02*
X335063Y52063D01*
X335063Y79504D01*
X335664Y79445D01*
X338724Y78836D01*
X341710Y77931D01*
X344591Y76737D01*
X347343Y75266D01*
X349936Y73533D01*
X352348Y71554D01*
X354554Y69348D01*
X356533Y66936D01*
X358266Y64343D01*
X359737Y61591D01*
X360931Y58710D01*
X361836Y55724D01*
X362445Y52664D01*
X362504Y52063D01*
X335063Y52063D01*
G37*
%LPD*%
%LPC*%
G36*
X11496Y157063D02*
X11496Y157063D01*
X11555Y157664D01*
X12164Y160724D01*
X13069Y163710D01*
X14263Y166591D01*
X15734Y169343D01*
X17467Y171936D01*
X19446Y174348D01*
X21652Y176554D01*
X24064Y178533D01*
X26657Y180266D01*
X29409Y181737D01*
X32290Y182931D01*
X35276Y183836D01*
X38336Y184445D01*
X38937Y184504D01*
X38937Y157063D01*
X11496Y157063D01*
G37*
%LPD*%
%LPC*%
G36*
X47063Y148937D02*
X47063Y148937D01*
X74504Y148937D01*
X74445Y148336D01*
X73836Y145276D01*
X72931Y142290D01*
X71737Y139409D01*
X70266Y136657D01*
X68533Y134064D01*
X66554Y131652D01*
X64348Y129446D01*
X61936Y127467D01*
X59343Y125734D01*
X56591Y124263D01*
X55349Y123748D01*
X53710Y123069D01*
X50724Y122164D01*
X47664Y121555D01*
X47063Y121496D01*
X47063Y148937D01*
G37*
%LPD*%
%LPC*%
G36*
X299496Y52063D02*
X299496Y52063D01*
X299555Y52664D01*
X300164Y55724D01*
X301069Y58710D01*
X302263Y61591D01*
X303734Y64343D01*
X305467Y66936D01*
X307446Y69348D01*
X309652Y71554D01*
X312064Y73533D01*
X314657Y75266D01*
X317409Y76737D01*
X318878Y77346D01*
X320290Y77931D01*
X323276Y78836D01*
X326336Y79445D01*
X326937Y79504D01*
X326937Y52063D01*
X299496Y52063D01*
G37*
%LPD*%
%LPC*%
G36*
X38336Y121555D02*
X38336Y121555D01*
X35276Y122164D01*
X32290Y123069D01*
X29409Y124263D01*
X26657Y125734D01*
X24064Y127467D01*
X21652Y129446D01*
X19446Y131652D01*
X17467Y134064D01*
X15734Y136657D01*
X14263Y139409D01*
X13069Y142290D01*
X12164Y145276D01*
X11555Y148336D01*
X11496Y148937D01*
X38937Y148937D01*
X38937Y121496D01*
X38336Y121555D01*
G37*
%LPD*%
%LPC*%
G36*
X326336Y16555D02*
X326336Y16555D01*
X323276Y17164D01*
X320290Y18069D01*
X317409Y19263D01*
X314657Y20734D01*
X312064Y22467D01*
X309652Y24446D01*
X307446Y26652D01*
X305467Y29064D01*
X303734Y31657D01*
X302263Y34409D01*
X301069Y37290D01*
X300164Y40276D01*
X299555Y43336D01*
X299496Y43937D01*
X326937Y43937D01*
X326937Y16496D01*
X326336Y16555D01*
G37*
%LPD*%
%LPC*%
G36*
X162743Y156790D02*
X162743Y156790D01*
X161272Y157399D01*
X159949Y158283D01*
X159288Y158944D01*
X159275Y158955D01*
X159263Y158969D01*
X159119Y159082D01*
X158977Y159199D01*
X158961Y159207D01*
X158947Y159218D01*
X158784Y159301D01*
X158621Y159388D01*
X158604Y159393D01*
X158588Y159401D01*
X158411Y159450D01*
X158235Y159502D01*
X158217Y159504D01*
X158200Y159509D01*
X158017Y159522D01*
X157834Y159539D01*
X157816Y159537D01*
X157799Y159538D01*
X157616Y159515D01*
X157434Y159495D01*
X157417Y159490D01*
X157399Y159488D01*
X157225Y159429D01*
X157050Y159374D01*
X157034Y159365D01*
X157018Y159359D01*
X156858Y159268D01*
X156698Y159179D01*
X156684Y159168D01*
X156669Y159159D01*
X156416Y158944D01*
X156258Y158786D01*
X153755Y157749D01*
X151045Y157749D01*
X148542Y158786D01*
X146626Y160702D01*
X145589Y163205D01*
X145589Y176995D01*
X146626Y179498D01*
X148542Y181414D01*
X151045Y182451D01*
X153755Y182451D01*
X156258Y181414D01*
X156416Y181256D01*
X156429Y181245D01*
X156441Y181231D01*
X156585Y181117D01*
X156727Y181001D01*
X156743Y180993D01*
X156757Y180982D01*
X156921Y180898D01*
X157083Y180812D01*
X157100Y180807D01*
X157116Y180799D01*
X157293Y180750D01*
X157469Y180698D01*
X157487Y180696D01*
X157504Y180691D01*
X157687Y180678D01*
X157870Y180661D01*
X157888Y180663D01*
X157905Y180662D01*
X158087Y180685D01*
X158270Y180705D01*
X158287Y180710D01*
X158305Y180712D01*
X158478Y180771D01*
X158654Y180826D01*
X158670Y180835D01*
X158686Y180841D01*
X158846Y180932D01*
X159006Y181021D01*
X159020Y181033D01*
X159035Y181041D01*
X159288Y181256D01*
X159949Y181917D01*
X161272Y182801D01*
X161681Y182971D01*
X161682Y182971D01*
X162743Y183410D01*
X163069Y183475D01*
X163069Y170100D01*
X163069Y156725D01*
X162743Y156790D01*
G37*
%LPD*%
G36*
X140275Y19763D02*
X140275Y19763D01*
X140284Y19762D01*
X140473Y19784D01*
X140666Y19805D01*
X140675Y19808D01*
X140683Y19809D01*
X140865Y19868D01*
X141050Y19926D01*
X141058Y19931D01*
X141066Y19934D01*
X141235Y20029D01*
X141402Y20121D01*
X141409Y20127D01*
X141417Y20131D01*
X141563Y20257D01*
X141709Y20382D01*
X141715Y20389D01*
X141722Y20395D01*
X141839Y20546D01*
X141959Y20698D01*
X141963Y20706D01*
X141968Y20713D01*
X142054Y20885D01*
X142141Y21057D01*
X142144Y21065D01*
X142148Y21073D01*
X142198Y21260D01*
X142249Y21445D01*
X142250Y21453D01*
X142252Y21462D01*
X142279Y21793D01*
X142279Y41656D01*
X142277Y41674D01*
X142279Y41692D01*
X142258Y41874D01*
X142239Y42057D01*
X142234Y42074D01*
X142232Y42091D01*
X142175Y42266D01*
X142121Y42442D01*
X142113Y42457D01*
X142107Y42474D01*
X142017Y42634D01*
X141929Y42796D01*
X141918Y42809D01*
X141909Y42825D01*
X141789Y42964D01*
X141672Y43105D01*
X141658Y43116D01*
X141646Y43130D01*
X141501Y43242D01*
X141358Y43357D01*
X141342Y43365D01*
X141328Y43376D01*
X141163Y43458D01*
X141001Y43543D01*
X140984Y43548D01*
X140968Y43556D01*
X140789Y43603D01*
X140614Y43654D01*
X140596Y43656D01*
X140579Y43660D01*
X140248Y43687D01*
X120385Y43687D01*
X120376Y43686D01*
X120367Y43687D01*
X120174Y43666D01*
X119984Y43647D01*
X119976Y43645D01*
X119967Y43644D01*
X119782Y43585D01*
X119599Y43529D01*
X119591Y43525D01*
X119583Y43522D01*
X119415Y43429D01*
X119245Y43337D01*
X119238Y43332D01*
X119231Y43327D01*
X119083Y43203D01*
X118936Y43080D01*
X118930Y43073D01*
X118924Y43067D01*
X118804Y42915D01*
X118684Y42766D01*
X118679Y42758D01*
X118674Y42751D01*
X118586Y42578D01*
X118498Y42409D01*
X118496Y42400D01*
X118492Y42392D01*
X118440Y42206D01*
X118387Y42022D01*
X118386Y42013D01*
X118384Y42004D01*
X118369Y41811D01*
X118354Y41620D01*
X118355Y41612D01*
X118354Y41603D01*
X118378Y41410D01*
X118401Y41221D01*
X118403Y41212D01*
X118405Y41203D01*
X118466Y41020D01*
X118526Y40838D01*
X118530Y40830D01*
X118533Y40822D01*
X118629Y40655D01*
X118723Y40487D01*
X118729Y40480D01*
X118734Y40473D01*
X118948Y40220D01*
X138812Y20356D01*
X138819Y20351D01*
X138824Y20344D01*
X138974Y20224D01*
X139123Y20101D01*
X139131Y20097D01*
X139138Y20092D01*
X139309Y20003D01*
X139479Y19913D01*
X139487Y19910D01*
X139495Y19906D01*
X139681Y19853D01*
X139865Y19798D01*
X139874Y19797D01*
X139882Y19795D01*
X140074Y19779D01*
X140266Y19762D01*
X140275Y19763D01*
G37*
%LPC*%
G36*
X315428Y153335D02*
X315428Y153335D01*
X311601Y154921D01*
X308671Y157851D01*
X307085Y161678D01*
X307085Y165822D01*
X308671Y169649D01*
X311601Y172579D01*
X315428Y174165D01*
X319572Y174165D01*
X323399Y172579D01*
X326329Y169649D01*
X327915Y165822D01*
X327915Y161678D01*
X326329Y157851D01*
X323399Y154921D01*
X321700Y154217D01*
X319572Y153335D01*
X315428Y153335D01*
G37*
%LPD*%
%LPC*%
G36*
X14924Y14729D02*
X14924Y14729D01*
X14179Y15474D01*
X14179Y32026D01*
X14924Y32771D01*
X28976Y32771D01*
X29721Y32026D01*
X29721Y15474D01*
X28976Y14729D01*
X14924Y14729D01*
G37*
%LPD*%
%LPC*%
G36*
X59924Y14729D02*
X59924Y14729D01*
X59179Y15474D01*
X59179Y32026D01*
X59924Y32771D01*
X73976Y32771D01*
X74721Y32026D01*
X74721Y15474D01*
X73976Y14729D01*
X59924Y14729D01*
G37*
%LPD*%
G36*
X160421Y8892D02*
X160421Y8892D01*
X160430Y8891D01*
X160622Y8912D01*
X160813Y8931D01*
X160821Y8933D01*
X160830Y8934D01*
X161013Y8992D01*
X161198Y9049D01*
X161206Y9053D01*
X161214Y9056D01*
X161383Y9149D01*
X161552Y9241D01*
X161559Y9246D01*
X161567Y9251D01*
X161713Y9375D01*
X161861Y9498D01*
X161867Y9505D01*
X161873Y9511D01*
X161993Y9662D01*
X162113Y9812D01*
X162118Y9820D01*
X162123Y9827D01*
X162211Y10000D01*
X162299Y10169D01*
X162301Y10178D01*
X162305Y10186D01*
X162357Y10372D01*
X162410Y10556D01*
X162411Y10565D01*
X162413Y10574D01*
X162428Y10767D01*
X162443Y10958D01*
X162442Y10966D01*
X162443Y10975D01*
X162419Y11168D01*
X162396Y11357D01*
X162394Y11366D01*
X162392Y11375D01*
X162331Y11558D01*
X162271Y11740D01*
X162267Y11748D01*
X162264Y11756D01*
X162168Y11923D01*
X162074Y12091D01*
X162068Y12098D01*
X162063Y12105D01*
X161849Y12358D01*
X158293Y15914D01*
X156209Y17998D01*
X156209Y18362D01*
X156207Y18389D01*
X156209Y18416D01*
X156187Y18589D01*
X156169Y18763D01*
X156162Y18788D01*
X156158Y18815D01*
X156103Y18981D01*
X156051Y19148D01*
X156038Y19171D01*
X156030Y19197D01*
X155943Y19348D01*
X155859Y19502D01*
X155842Y19522D01*
X155829Y19546D01*
X155614Y19799D01*
X154979Y20434D01*
X154979Y41656D01*
X154977Y41674D01*
X154979Y41692D01*
X154958Y41874D01*
X154939Y42057D01*
X154934Y42074D01*
X154932Y42091D01*
X154875Y42266D01*
X154821Y42442D01*
X154813Y42457D01*
X154807Y42474D01*
X154717Y42634D01*
X154629Y42796D01*
X154618Y42809D01*
X154609Y42825D01*
X154489Y42964D01*
X154372Y43105D01*
X154358Y43116D01*
X154346Y43130D01*
X154201Y43242D01*
X154058Y43357D01*
X154042Y43365D01*
X154028Y43376D01*
X153863Y43458D01*
X153701Y43543D01*
X153684Y43548D01*
X153668Y43556D01*
X153489Y43603D01*
X153314Y43654D01*
X153296Y43656D01*
X153279Y43660D01*
X152948Y43687D01*
X151852Y43687D01*
X151834Y43685D01*
X151816Y43687D01*
X151634Y43666D01*
X151451Y43647D01*
X151434Y43642D01*
X151417Y43640D01*
X151242Y43583D01*
X151066Y43529D01*
X151051Y43521D01*
X151034Y43515D01*
X150873Y43425D01*
X150712Y43337D01*
X150699Y43326D01*
X150683Y43317D01*
X150544Y43197D01*
X150403Y43080D01*
X150392Y43066D01*
X150378Y43054D01*
X150266Y42909D01*
X150151Y42766D01*
X150143Y42750D01*
X150132Y42736D01*
X150050Y42571D01*
X149965Y42409D01*
X149960Y42392D01*
X149952Y42376D01*
X149905Y42197D01*
X149854Y42022D01*
X149852Y42004D01*
X149848Y41987D01*
X149821Y41656D01*
X149821Y20434D01*
X149076Y19689D01*
X144383Y19689D01*
X144374Y19688D01*
X144365Y19689D01*
X144171Y19668D01*
X143982Y19649D01*
X143974Y19647D01*
X143965Y19646D01*
X143781Y19588D01*
X143597Y19531D01*
X143589Y19527D01*
X143581Y19524D01*
X143412Y19431D01*
X143243Y19339D01*
X143236Y19334D01*
X143228Y19329D01*
X143082Y19205D01*
X142934Y19082D01*
X142928Y19075D01*
X142922Y19069D01*
X142802Y18918D01*
X142682Y18768D01*
X142677Y18760D01*
X142672Y18753D01*
X142584Y18580D01*
X142496Y18411D01*
X142494Y18402D01*
X142490Y18394D01*
X142438Y18208D01*
X142385Y18024D01*
X142384Y18015D01*
X142382Y18006D01*
X142367Y17813D01*
X142352Y17622D01*
X142353Y17614D01*
X142352Y17605D01*
X142376Y17412D01*
X142399Y17223D01*
X142401Y17214D01*
X142403Y17205D01*
X142464Y17022D01*
X142524Y16840D01*
X142528Y16832D01*
X142531Y16824D01*
X142627Y16657D01*
X142721Y16489D01*
X142727Y16482D01*
X142732Y16475D01*
X142946Y16222D01*
X149682Y9486D01*
X149703Y9469D01*
X149721Y9448D01*
X149859Y9341D01*
X149994Y9231D01*
X150018Y9218D01*
X150039Y9202D01*
X150196Y9124D01*
X150350Y9042D01*
X150375Y9034D01*
X150399Y9022D01*
X150569Y8977D01*
X150736Y8927D01*
X150762Y8925D01*
X150788Y8918D01*
X151119Y8891D01*
X160412Y8891D01*
X160421Y8892D01*
G37*
G36*
X192296Y83315D02*
X192296Y83315D01*
X192314Y83313D01*
X192496Y83334D01*
X192679Y83353D01*
X192696Y83358D01*
X192713Y83360D01*
X192888Y83417D01*
X193064Y83471D01*
X193079Y83479D01*
X193096Y83485D01*
X193256Y83575D01*
X193418Y83663D01*
X193431Y83674D01*
X193447Y83683D01*
X193586Y83803D01*
X193727Y83920D01*
X193738Y83934D01*
X193752Y83946D01*
X193864Y84091D01*
X193979Y84234D01*
X193987Y84250D01*
X193998Y84264D01*
X194080Y84429D01*
X194165Y84591D01*
X194170Y84608D01*
X194178Y84624D01*
X194225Y84803D01*
X194276Y84978D01*
X194278Y84996D01*
X194282Y85013D01*
X194309Y85344D01*
X194309Y105561D01*
X194307Y105579D01*
X194309Y105597D01*
X194288Y105779D01*
X194269Y105962D01*
X194264Y105979D01*
X194262Y105996D01*
X194205Y106171D01*
X194151Y106347D01*
X194143Y106362D01*
X194137Y106379D01*
X194047Y106539D01*
X193959Y106701D01*
X193948Y106714D01*
X193939Y106730D01*
X193819Y106869D01*
X193702Y107010D01*
X193688Y107021D01*
X193676Y107035D01*
X193531Y107147D01*
X193388Y107262D01*
X193372Y107270D01*
X193358Y107281D01*
X193193Y107363D01*
X193031Y107448D01*
X193014Y107453D01*
X192998Y107461D01*
X192819Y107508D01*
X192644Y107559D01*
X192626Y107561D01*
X192609Y107565D01*
X192278Y107592D01*
X191402Y107592D01*
X191375Y107590D01*
X191348Y107592D01*
X191175Y107570D01*
X191001Y107552D01*
X190976Y107545D01*
X190949Y107541D01*
X190783Y107486D01*
X190616Y107434D01*
X190593Y107421D01*
X190567Y107413D01*
X190416Y107326D01*
X190262Y107242D01*
X190242Y107225D01*
X190218Y107212D01*
X189965Y106997D01*
X188516Y105548D01*
X188499Y105527D01*
X188478Y105509D01*
X188371Y105371D01*
X188261Y105236D01*
X188248Y105212D01*
X188232Y105191D01*
X188154Y105034D01*
X188072Y104880D01*
X188064Y104855D01*
X188052Y104831D01*
X188007Y104661D01*
X187957Y104494D01*
X187955Y104468D01*
X187948Y104442D01*
X187921Y104111D01*
X187921Y85344D01*
X187923Y85326D01*
X187921Y85308D01*
X187942Y85126D01*
X187961Y84943D01*
X187966Y84926D01*
X187968Y84909D01*
X188025Y84734D01*
X188079Y84558D01*
X188087Y84543D01*
X188093Y84526D01*
X188183Y84366D01*
X188271Y84204D01*
X188282Y84191D01*
X188291Y84175D01*
X188411Y84036D01*
X188528Y83895D01*
X188542Y83884D01*
X188554Y83870D01*
X188699Y83758D01*
X188842Y83643D01*
X188858Y83635D01*
X188872Y83624D01*
X189037Y83542D01*
X189199Y83457D01*
X189216Y83452D01*
X189232Y83444D01*
X189411Y83397D01*
X189586Y83346D01*
X189604Y83344D01*
X189621Y83340D01*
X189952Y83313D01*
X192278Y83313D01*
X192296Y83315D01*
G37*
G36*
X500069Y192627D02*
X500069Y192627D01*
X500102Y192626D01*
X500268Y192651D01*
X500435Y192670D01*
X500467Y192681D01*
X500500Y192686D01*
X500658Y192743D01*
X500818Y192795D01*
X500847Y192812D01*
X500879Y192823D01*
X501022Y192910D01*
X501169Y192993D01*
X501194Y193015D01*
X501223Y193032D01*
X501346Y193146D01*
X501474Y193256D01*
X501494Y193283D01*
X501518Y193305D01*
X501617Y193441D01*
X501720Y193574D01*
X501735Y193604D01*
X501755Y193631D01*
X501825Y193784D01*
X501900Y193935D01*
X501908Y193967D01*
X501922Y193997D01*
X501960Y194161D01*
X502004Y194324D01*
X502007Y194361D01*
X502014Y194389D01*
X502017Y194476D01*
X502031Y194654D01*
X502031Y200000D01*
X502029Y200018D01*
X502031Y200036D01*
X502010Y200218D01*
X501991Y200401D01*
X501986Y200418D01*
X501984Y200435D01*
X501927Y200610D01*
X501873Y200786D01*
X501865Y200801D01*
X501859Y200818D01*
X501769Y200978D01*
X501681Y201140D01*
X501670Y201153D01*
X501661Y201169D01*
X501541Y201308D01*
X501424Y201449D01*
X501410Y201460D01*
X501398Y201474D01*
X501253Y201586D01*
X501110Y201701D01*
X501094Y201709D01*
X501080Y201720D01*
X500915Y201802D01*
X500753Y201887D01*
X500736Y201892D01*
X500720Y201900D01*
X500541Y201947D01*
X500366Y201998D01*
X500348Y202000D01*
X500331Y202004D01*
X500000Y202031D01*
X494654Y202031D01*
X494487Y202015D01*
X494319Y202003D01*
X494287Y201995D01*
X494254Y201991D01*
X494093Y201942D01*
X493931Y201898D01*
X493901Y201883D01*
X493869Y201873D01*
X493721Y201793D01*
X493570Y201718D01*
X493544Y201697D01*
X493515Y201681D01*
X493386Y201574D01*
X493253Y201470D01*
X493231Y201445D01*
X493206Y201424D01*
X493100Y201293D01*
X492990Y201165D01*
X492974Y201136D01*
X492953Y201110D01*
X492876Y200961D01*
X492793Y200814D01*
X492783Y200782D01*
X492768Y200753D01*
X492721Y200591D01*
X492669Y200431D01*
X492666Y200398D01*
X492656Y200366D01*
X492643Y200198D01*
X492623Y200031D01*
X492626Y199998D01*
X492623Y199964D01*
X492643Y199797D01*
X492657Y199630D01*
X492666Y199598D01*
X492670Y199565D01*
X492723Y199405D01*
X492769Y199243D01*
X492785Y199214D01*
X492795Y199182D01*
X492878Y199035D01*
X492956Y198886D01*
X492977Y198860D01*
X492993Y198831D01*
X493103Y198704D01*
X493209Y198573D01*
X493237Y198549D01*
X493256Y198527D01*
X493325Y198474D01*
X493460Y198357D01*
X496296Y196296D01*
X498357Y193460D01*
X498469Y193334D01*
X498576Y193206D01*
X498602Y193185D01*
X498624Y193160D01*
X498759Y193058D01*
X498890Y192953D01*
X498920Y192938D01*
X498946Y192918D01*
X499099Y192845D01*
X499247Y192768D01*
X499279Y192759D01*
X499309Y192744D01*
X499473Y192703D01*
X499634Y192656D01*
X499668Y192654D01*
X499700Y192645D01*
X499868Y192637D01*
X500036Y192623D01*
X500069Y192627D01*
G37*
G36*
X500018Y-2029D02*
X500018Y-2029D01*
X500036Y-2031D01*
X500218Y-2010D01*
X500401Y-1991D01*
X500418Y-1986D01*
X500435Y-1984D01*
X500610Y-1927D01*
X500786Y-1873D01*
X500801Y-1865D01*
X500818Y-1859D01*
X500978Y-1769D01*
X501140Y-1681D01*
X501153Y-1670D01*
X501169Y-1661D01*
X501308Y-1541D01*
X501449Y-1424D01*
X501460Y-1410D01*
X501474Y-1398D01*
X501586Y-1253D01*
X501701Y-1110D01*
X501709Y-1094D01*
X501720Y-1080D01*
X501802Y-915D01*
X501887Y-753D01*
X501892Y-736D01*
X501900Y-720D01*
X501947Y-541D01*
X501998Y-366D01*
X502000Y-348D01*
X502004Y-331D01*
X502031Y0D01*
X502031Y5346D01*
X502015Y5513D01*
X502003Y5681D01*
X501995Y5713D01*
X501991Y5746D01*
X501942Y5907D01*
X501898Y6069D01*
X501883Y6099D01*
X501873Y6131D01*
X501793Y6279D01*
X501718Y6430D01*
X501697Y6456D01*
X501681Y6485D01*
X501574Y6614D01*
X501470Y6747D01*
X501445Y6769D01*
X501424Y6794D01*
X501293Y6900D01*
X501165Y7010D01*
X501136Y7026D01*
X501110Y7047D01*
X500961Y7124D01*
X500814Y7207D01*
X500782Y7217D01*
X500753Y7232D01*
X500591Y7279D01*
X500431Y7331D01*
X500398Y7334D01*
X500366Y7344D01*
X500198Y7357D01*
X500031Y7377D01*
X499998Y7374D01*
X499964Y7377D01*
X499797Y7357D01*
X499630Y7343D01*
X499598Y7334D01*
X499565Y7330D01*
X499405Y7277D01*
X499243Y7231D01*
X499214Y7215D01*
X499182Y7205D01*
X499035Y7122D01*
X498886Y7044D01*
X498860Y7023D01*
X498831Y7007D01*
X498704Y6897D01*
X498573Y6791D01*
X498549Y6763D01*
X498527Y6744D01*
X498474Y6675D01*
X498357Y6540D01*
X496296Y3704D01*
X493460Y1643D01*
X493335Y1531D01*
X493206Y1424D01*
X493185Y1398D01*
X493160Y1376D01*
X493059Y1241D01*
X492953Y1110D01*
X492938Y1080D01*
X492918Y1054D01*
X492845Y902D01*
X492768Y753D01*
X492759Y721D01*
X492744Y691D01*
X492703Y527D01*
X492656Y366D01*
X492654Y332D01*
X492645Y300D01*
X492637Y132D01*
X492623Y-36D01*
X492627Y-69D01*
X492626Y-102D01*
X492651Y-269D01*
X492670Y-435D01*
X492681Y-467D01*
X492686Y-500D01*
X492743Y-658D01*
X492795Y-818D01*
X492812Y-847D01*
X492823Y-879D01*
X492910Y-1022D01*
X492993Y-1169D01*
X493015Y-1194D01*
X493032Y-1223D01*
X493146Y-1346D01*
X493256Y-1474D01*
X493283Y-1494D01*
X493305Y-1518D01*
X493441Y-1617D01*
X493574Y-1720D01*
X493604Y-1735D01*
X493631Y-1755D01*
X493784Y-1825D01*
X493935Y-1900D01*
X493967Y-1908D01*
X493997Y-1922D01*
X494161Y-1960D01*
X494324Y-2004D01*
X494361Y-2007D01*
X494389Y-2014D01*
X494476Y-2017D01*
X494654Y-2031D01*
X500000Y-2031D01*
X500018Y-2029D01*
G37*
G36*
X2Y192626D02*
X2Y192626D01*
X36Y192623D01*
X203Y192643D01*
X370Y192657D01*
X402Y192666D01*
X435Y192670D01*
X595Y192722D01*
X757Y192769D01*
X786Y192785D01*
X818Y192795D01*
X965Y192878D01*
X1114Y192956D01*
X1140Y192977D01*
X1169Y192993D01*
X1296Y193103D01*
X1427Y193209D01*
X1451Y193237D01*
X1474Y193256D01*
X1526Y193325D01*
X1643Y193460D01*
X3704Y196296D01*
X6540Y198357D01*
X6665Y198469D01*
X6794Y198576D01*
X6815Y198602D01*
X6840Y198624D01*
X6942Y198759D01*
X7047Y198890D01*
X7062Y198920D01*
X7082Y198946D01*
X7155Y199099D01*
X7232Y199247D01*
X7241Y199279D01*
X7256Y199309D01*
X7297Y199473D01*
X7344Y199634D01*
X7346Y199668D01*
X7355Y199700D01*
X7363Y199868D01*
X7377Y200036D01*
X7373Y200069D01*
X7374Y200102D01*
X7349Y200268D01*
X7330Y200435D01*
X7319Y200467D01*
X7314Y200500D01*
X7257Y200658D01*
X7205Y200818D01*
X7188Y200847D01*
X7177Y200879D01*
X7090Y201022D01*
X7007Y201169D01*
X6985Y201194D01*
X6968Y201223D01*
X6854Y201346D01*
X6744Y201474D01*
X6717Y201494D01*
X6695Y201518D01*
X6559Y201617D01*
X6426Y201720D01*
X6396Y201735D01*
X6369Y201755D01*
X6216Y201825D01*
X6065Y201900D01*
X6033Y201908D01*
X6003Y201922D01*
X5839Y201960D01*
X5676Y202004D01*
X5639Y202007D01*
X5611Y202014D01*
X5524Y202017D01*
X5346Y202031D01*
X0Y202031D01*
X-18Y202029D01*
X-36Y202031D01*
X-218Y202010D01*
X-401Y201991D01*
X-418Y201986D01*
X-435Y201984D01*
X-610Y201927D01*
X-786Y201873D01*
X-801Y201865D01*
X-818Y201859D01*
X-978Y201769D01*
X-1140Y201681D01*
X-1153Y201670D01*
X-1169Y201661D01*
X-1308Y201541D01*
X-1449Y201424D01*
X-1460Y201410D01*
X-1474Y201398D01*
X-1586Y201253D01*
X-1701Y201110D01*
X-1709Y201094D01*
X-1720Y201080D01*
X-1802Y200915D01*
X-1887Y200753D01*
X-1892Y200736D01*
X-1900Y200720D01*
X-1947Y200541D01*
X-1998Y200366D01*
X-2000Y200348D01*
X-2004Y200331D01*
X-2031Y200000D01*
X-2031Y194654D01*
X-2015Y194487D01*
X-2003Y194319D01*
X-1995Y194287D01*
X-1991Y194254D01*
X-1942Y194093D01*
X-1898Y193931D01*
X-1883Y193901D01*
X-1873Y193869D01*
X-1793Y193721D01*
X-1718Y193570D01*
X-1697Y193544D01*
X-1681Y193515D01*
X-1574Y193386D01*
X-1470Y193253D01*
X-1445Y193231D01*
X-1424Y193206D01*
X-1293Y193100D01*
X-1165Y192990D01*
X-1136Y192974D01*
X-1110Y192953D01*
X-961Y192876D01*
X-814Y192793D01*
X-782Y192783D01*
X-753Y192768D01*
X-591Y192721D01*
X-431Y192669D01*
X-398Y192666D01*
X-366Y192656D01*
X-198Y192643D01*
X-31Y192623D01*
X2Y192626D01*
G37*
G36*
X5513Y-2015D02*
X5513Y-2015D01*
X5681Y-2003D01*
X5713Y-1995D01*
X5746Y-1991D01*
X5907Y-1942D01*
X6069Y-1898D01*
X6099Y-1883D01*
X6131Y-1873D01*
X6279Y-1793D01*
X6430Y-1718D01*
X6456Y-1697D01*
X6485Y-1681D01*
X6614Y-1574D01*
X6747Y-1470D01*
X6769Y-1445D01*
X6794Y-1424D01*
X6900Y-1293D01*
X7010Y-1165D01*
X7026Y-1136D01*
X7047Y-1110D01*
X7124Y-961D01*
X7207Y-814D01*
X7217Y-782D01*
X7232Y-753D01*
X7279Y-591D01*
X7331Y-431D01*
X7334Y-398D01*
X7344Y-366D01*
X7357Y-198D01*
X7377Y-31D01*
X7374Y2D01*
X7377Y36D01*
X7357Y203D01*
X7343Y370D01*
X7334Y402D01*
X7330Y435D01*
X7278Y595D01*
X7231Y757D01*
X7215Y786D01*
X7205Y818D01*
X7122Y965D01*
X7044Y1114D01*
X7023Y1140D01*
X7007Y1169D01*
X6897Y1296D01*
X6791Y1427D01*
X6763Y1451D01*
X6744Y1474D01*
X6675Y1526D01*
X6540Y1643D01*
X3704Y3704D01*
X1643Y6540D01*
X1531Y6665D01*
X1424Y6794D01*
X1398Y6815D01*
X1376Y6840D01*
X1241Y6941D01*
X1110Y7047D01*
X1080Y7062D01*
X1054Y7082D01*
X902Y7155D01*
X753Y7232D01*
X721Y7241D01*
X691Y7256D01*
X527Y7297D01*
X366Y7344D01*
X332Y7346D01*
X300Y7355D01*
X132Y7363D01*
X-36Y7377D01*
X-69Y7373D01*
X-102Y7374D01*
X-269Y7349D01*
X-435Y7330D01*
X-467Y7319D01*
X-500Y7314D01*
X-658Y7257D01*
X-818Y7205D01*
X-847Y7188D01*
X-879Y7177D01*
X-1022Y7090D01*
X-1169Y7007D01*
X-1194Y6985D01*
X-1223Y6968D01*
X-1346Y6854D01*
X-1474Y6744D01*
X-1494Y6717D01*
X-1518Y6695D01*
X-1617Y6559D01*
X-1720Y6426D01*
X-1735Y6396D01*
X-1755Y6369D01*
X-1825Y6216D01*
X-1900Y6065D01*
X-1908Y6033D01*
X-1922Y6003D01*
X-1960Y5839D01*
X-2004Y5676D01*
X-2007Y5639D01*
X-2014Y5611D01*
X-2017Y5524D01*
X-2031Y5346D01*
X-2031Y0D01*
X-2029Y-18D01*
X-2031Y-36D01*
X-2010Y-218D01*
X-1991Y-401D01*
X-1986Y-418D01*
X-1984Y-435D01*
X-1927Y-610D01*
X-1873Y-786D01*
X-1865Y-801D01*
X-1859Y-818D01*
X-1769Y-978D01*
X-1681Y-1140D01*
X-1670Y-1153D01*
X-1661Y-1169D01*
X-1541Y-1308D01*
X-1424Y-1449D01*
X-1410Y-1460D01*
X-1398Y-1474D01*
X-1253Y-1586D01*
X-1110Y-1701D01*
X-1094Y-1709D01*
X-1080Y-1720D01*
X-915Y-1802D01*
X-753Y-1887D01*
X-736Y-1892D01*
X-720Y-1900D01*
X-541Y-1947D01*
X-366Y-1998D01*
X-348Y-2000D01*
X-331Y-2004D01*
X0Y-2031D01*
X5346Y-2031D01*
X5513Y-2015D01*
G37*
%LPC*%
G36*
X345439Y101265D02*
X345439Y101265D01*
X345439Y110411D01*
X354585Y110411D01*
X354585Y108110D01*
X347740Y101265D01*
X345439Y101265D01*
G37*
%LPD*%
%LPC*%
G36*
X25199Y106499D02*
X25199Y106499D01*
X25199Y113541D01*
X28785Y113541D01*
X29431Y113368D01*
X30010Y113033D01*
X30483Y112560D01*
X30818Y111981D01*
X30991Y111335D01*
X30991Y106499D01*
X25199Y106499D01*
G37*
%LPD*%
%LPC*%
G36*
X12909Y106499D02*
X12909Y106499D01*
X12909Y111335D01*
X13082Y111981D01*
X13417Y112560D01*
X13890Y113033D01*
X14469Y113368D01*
X15115Y113541D01*
X18701Y113541D01*
X18701Y106499D01*
X12909Y106499D01*
G37*
%LPD*%
%LPC*%
G36*
X25199Y92959D02*
X25199Y92959D01*
X25199Y100001D01*
X30991Y100001D01*
X30991Y95165D01*
X30818Y94519D01*
X30483Y93940D01*
X30010Y93467D01*
X29431Y93132D01*
X28785Y92959D01*
X25199Y92959D01*
G37*
%LPD*%
%LPC*%
G36*
X15115Y92959D02*
X15115Y92959D01*
X14469Y93132D01*
X13890Y93467D01*
X13417Y93940D01*
X13082Y94519D01*
X12909Y95165D01*
X12909Y100001D01*
X18701Y100001D01*
X18701Y92959D01*
X15115Y92959D01*
G37*
%LPD*%
%LPC*%
G36*
X330999Y47999D02*
X330999Y47999D01*
X330999Y48001D01*
X331001Y48001D01*
X331001Y47999D01*
X330999Y47999D01*
G37*
%LPD*%
%LPC*%
G36*
X42999Y152999D02*
X42999Y152999D01*
X42999Y153001D01*
X43001Y153001D01*
X43001Y152999D01*
X42999Y152999D01*
G37*
%LPD*%
D10*
X177800Y164560D02*
X177800Y175640D01*
X165100Y175640D02*
X165100Y164560D01*
X152400Y164560D02*
X152400Y175640D01*
D11*
X397256Y163750D02*
X415544Y163750D01*
X415544Y138350D02*
X397256Y138350D01*
X397256Y112950D02*
X415544Y112950D01*
X415544Y87550D02*
X397256Y87550D01*
X397256Y62150D02*
X415544Y62150D01*
X415544Y36750D02*
X397256Y36750D01*
X448056Y163750D02*
X466344Y163750D01*
X466344Y138350D02*
X448056Y138350D01*
X448056Y112950D02*
X466344Y112950D01*
X466344Y87550D02*
X448056Y87550D01*
X448056Y62150D02*
X466344Y62150D01*
X466344Y36750D02*
X448056Y36750D01*
D12*
X331000Y48000D03*
X43000Y153000D03*
D13*
X317500Y163750D03*
D14*
X317500Y138350D03*
X317500Y112950D03*
X342900Y163750D03*
X342900Y138350D03*
X342900Y112950D03*
D15*
X184150Y95040D03*
X171550Y95040D03*
X158850Y95040D03*
X146150Y95040D03*
X184150Y31960D03*
X171450Y31960D03*
X158750Y31960D03*
X146050Y31960D03*
D16*
X234950Y58500D03*
X234950Y68500D03*
X120650Y58500D03*
X120650Y68500D03*
X260350Y58500D03*
X260350Y68500D03*
X247650Y58500D03*
X247650Y68500D03*
X273050Y58500D03*
X273050Y68500D03*
D17*
X209550Y57000D03*
X209550Y70000D03*
X222250Y57000D03*
X222250Y70000D03*
D18*
X66950Y23750D03*
X66950Y103250D03*
X21950Y23750D03*
X21950Y103250D03*
D19*
X101600Y71000D03*
X101600Y56000D03*
D20*
X406400Y38100D02*
X457200Y38100D01*
X406400Y38100D02*
X406400Y36750D01*
X457200Y36750D02*
X457200Y38100D01*
X114300Y53975D02*
X101600Y53975D01*
X114300Y53975D02*
X117475Y50800D01*
X127000Y50800D01*
X158750Y82550D01*
X158750Y92075D01*
X158850Y95040D01*
X371475Y34925D02*
X406400Y34925D01*
X371475Y34925D02*
X342900Y6350D01*
X149225Y6350D01*
X101600Y53975D01*
X406400Y36750D02*
X406400Y34925D01*
X101600Y53975D02*
X101600Y56000D01*
X234950Y69850D02*
X247650Y69850D01*
X257175Y60325D02*
X260350Y60325D01*
X257175Y60325D02*
X247650Y69850D01*
X260350Y60325D02*
X260350Y58500D01*
X247650Y68500D02*
X247650Y69850D01*
X215900Y63500D02*
X209550Y57150D01*
X215900Y63500D02*
X228600Y63500D01*
X234950Y69850D01*
X209550Y57150D02*
X209550Y57000D01*
X234950Y68500D02*
X234950Y69850D01*
X260350Y57150D02*
X266700Y50800D01*
X260350Y57150D02*
X260350Y58500D01*
X406400Y63500D02*
X457200Y63500D01*
X457200Y62150D01*
X406400Y62150D02*
X406400Y63500D01*
D21*
X266700Y50800D03*
D20*
X342900Y165100D02*
X406400Y165100D01*
X457200Y165100D01*
X457200Y163750D01*
X406400Y163750D02*
X406400Y165100D01*
X260350Y69850D02*
X254000Y76200D01*
X196850Y76200D01*
X184150Y63500D01*
X184150Y47625D01*
X260350Y68500D02*
X260350Y69850D01*
X222250Y53975D02*
X215900Y47625D01*
X184150Y47625D01*
X222250Y53975D02*
X222250Y57000D01*
X196850Y149225D02*
X177800Y168275D01*
X196850Y149225D02*
X196850Y76200D01*
X177800Y168275D02*
X177800Y170100D01*
X327025Y180975D02*
X342900Y165100D01*
X327025Y180975D02*
X228600Y180975D01*
X196850Y149225D01*
X342900Y163750D02*
X342900Y165100D01*
X183833Y46673D02*
X183833Y32385D01*
X184150Y31960D01*
X183833Y46673D02*
X184150Y47625D01*
X209550Y69850D02*
X222250Y69850D01*
X222250Y70000D01*
X247650Y58500D02*
X247650Y41275D01*
X209550Y69850D02*
X200025Y69850D01*
X209550Y69850D02*
X209550Y70000D01*
D21*
X200025Y69850D03*
D22*
X215900Y133350D03*
X273050Y139700D03*
X292100Y120650D03*
X374650Y101600D03*
X381000Y139700D03*
X44450Y63500D03*
X133350Y38100D03*
X196850Y31750D03*
X215900Y19050D03*
X260350Y25400D03*
X292100Y95250D03*
X152400Y12700D03*
X120650Y6350D03*
X177800Y127000D03*
X203200Y177800D03*
D20*
X120650Y85725D02*
X120650Y68500D01*
X146050Y53975D02*
X146050Y31960D01*
X146050Y53975D02*
X168275Y76200D01*
X187325Y76200D01*
X406400Y88900D02*
X457200Y88900D01*
X457200Y87550D01*
X406400Y87550D02*
X406400Y88900D01*
D21*
X187325Y76200D03*
D20*
X171450Y50800D02*
X171450Y31960D01*
X260350Y34925D02*
X301625Y76200D01*
X301625Y120650D01*
X317500Y136525D01*
X317500Y138350D01*
X406400Y114300D02*
X457200Y114300D01*
X457200Y112950D01*
X406400Y112950D02*
X406400Y114300D01*
D21*
X171450Y50800D03*
X260350Y34925D03*
D20*
X273050Y60325D02*
X276225Y60325D01*
X279400Y63500D01*
X279400Y73025D01*
X269875Y82550D01*
X273050Y60325D02*
X273050Y58500D01*
X130175Y104775D02*
X123825Y104775D01*
X69850Y104775D01*
X130175Y104775D02*
X142875Y117475D01*
X161925Y117475D01*
X171450Y107950D01*
X171450Y95250D01*
X69850Y104775D02*
X66950Y103250D01*
X171450Y95250D02*
X171550Y95040D01*
X123825Y101600D02*
X123825Y104775D01*
D21*
X269875Y82550D03*
X123825Y101600D03*
D20*
X184150Y104775D02*
X184150Y95040D01*
X184150Y104775D02*
X190500Y111125D01*
D21*
X190500Y111125D03*
D20*
X234950Y57150D02*
X190500Y12700D01*
X165100Y12700D01*
X158750Y19050D01*
X158750Y31960D01*
X234950Y57150D02*
X234950Y58500D01*
X158750Y57150D02*
X158750Y31960D01*
X158750Y57150D02*
X171450Y69850D01*
D21*
X171450Y69850D03*
D20*
X263525Y79375D02*
X273050Y69850D01*
X263525Y79375D02*
X263525Y123825D01*
X273050Y69850D02*
X273050Y68500D01*
D21*
X263525Y123825D03*
D20*
X120650Y60325D02*
X111125Y60325D01*
X101600Y69850D01*
X120650Y60325D02*
X120650Y58500D01*
X101600Y69850D02*
X101600Y71000D01*
M02*
