G04 EAGLE Gerber RS-274X export*
G75*
%MOMM*%
%FSLAX34Y34*%
%LPD*%
%INBottom Copper*%
%IPPOS*%
%AMOC8*
5,1,8,0,0,1.08239X$1,22.5*%
G01*
%ADD10C,1.108000*%
%ADD11C,1.524000*%
%ADD12C,5.842000*%
%ADD13C,1.524000*%
%ADD14P,1.649562X8X292.500000*%
%ADD15C,0.254000*%
%ADD16C,0.706400*%
%ADD17C,0.756400*%

G36*
X500018Y-2029D02*
X500018Y-2029D01*
X500036Y-2031D01*
X500218Y-2010D01*
X500401Y-1991D01*
X500418Y-1986D01*
X500435Y-1984D01*
X500610Y-1927D01*
X500786Y-1873D01*
X500801Y-1865D01*
X500818Y-1859D01*
X500978Y-1769D01*
X501140Y-1681D01*
X501153Y-1670D01*
X501169Y-1661D01*
X501308Y-1541D01*
X501449Y-1424D01*
X501460Y-1410D01*
X501474Y-1398D01*
X501586Y-1253D01*
X501701Y-1110D01*
X501709Y-1094D01*
X501720Y-1080D01*
X501802Y-915D01*
X501887Y-753D01*
X501892Y-736D01*
X501900Y-720D01*
X501947Y-541D01*
X501998Y-366D01*
X502000Y-348D01*
X502004Y-331D01*
X502031Y0D01*
X502031Y200000D01*
X502029Y200018D01*
X502031Y200036D01*
X502010Y200218D01*
X501991Y200401D01*
X501986Y200418D01*
X501984Y200435D01*
X501927Y200610D01*
X501873Y200786D01*
X501865Y200801D01*
X501859Y200818D01*
X501769Y200978D01*
X501681Y201140D01*
X501670Y201153D01*
X501661Y201169D01*
X501541Y201308D01*
X501424Y201449D01*
X501410Y201460D01*
X501398Y201474D01*
X501253Y201586D01*
X501110Y201701D01*
X501094Y201709D01*
X501080Y201720D01*
X500915Y201802D01*
X500753Y201887D01*
X500736Y201892D01*
X500720Y201900D01*
X500541Y201947D01*
X500366Y201998D01*
X500348Y202000D01*
X500331Y202004D01*
X500000Y202031D01*
X0Y202031D01*
X-18Y202029D01*
X-36Y202031D01*
X-218Y202010D01*
X-401Y201991D01*
X-418Y201986D01*
X-435Y201984D01*
X-610Y201927D01*
X-786Y201873D01*
X-801Y201865D01*
X-818Y201859D01*
X-978Y201769D01*
X-1140Y201681D01*
X-1153Y201670D01*
X-1169Y201661D01*
X-1308Y201541D01*
X-1449Y201424D01*
X-1460Y201410D01*
X-1474Y201398D01*
X-1586Y201253D01*
X-1701Y201110D01*
X-1709Y201094D01*
X-1720Y201080D01*
X-1802Y200915D01*
X-1887Y200753D01*
X-1892Y200736D01*
X-1900Y200720D01*
X-1947Y200541D01*
X-1998Y200366D01*
X-2000Y200348D01*
X-2004Y200331D01*
X-2031Y200000D01*
X-2031Y0D01*
X-2029Y-18D01*
X-2031Y-36D01*
X-2010Y-218D01*
X-1991Y-401D01*
X-1986Y-418D01*
X-1984Y-435D01*
X-1927Y-610D01*
X-1873Y-786D01*
X-1865Y-801D01*
X-1859Y-818D01*
X-1769Y-978D01*
X-1681Y-1140D01*
X-1670Y-1153D01*
X-1661Y-1169D01*
X-1541Y-1308D01*
X-1424Y-1449D01*
X-1410Y-1460D01*
X-1398Y-1474D01*
X-1253Y-1586D01*
X-1110Y-1701D01*
X-1094Y-1709D01*
X-1080Y-1720D01*
X-915Y-1802D01*
X-753Y-1887D01*
X-736Y-1892D01*
X-720Y-1900D01*
X-541Y-1947D01*
X-366Y-1998D01*
X-348Y-2000D01*
X-331Y-2004D01*
X0Y-2031D01*
X500000Y-2031D01*
X500018Y-2029D01*
G37*
%LPC*%
G36*
X265745Y36472D02*
X265745Y36472D01*
X263979Y37203D01*
X263044Y38139D01*
X263023Y38156D01*
X263005Y38177D01*
X262867Y38284D01*
X262732Y38394D01*
X262708Y38407D01*
X262687Y38423D01*
X262530Y38501D01*
X262376Y38583D01*
X262351Y38591D01*
X262327Y38603D01*
X262157Y38648D01*
X261990Y38698D01*
X261964Y38700D01*
X261938Y38707D01*
X261607Y38734D01*
X179923Y38734D01*
X177839Y40818D01*
X173255Y45402D01*
X173234Y45419D01*
X173216Y45440D01*
X173078Y45547D01*
X172943Y45657D01*
X172919Y45670D01*
X172898Y45686D01*
X172742Y45764D01*
X172587Y45846D01*
X172562Y45854D01*
X172538Y45866D01*
X172368Y45911D01*
X172201Y45961D01*
X172175Y45963D01*
X172149Y45970D01*
X171818Y45997D01*
X170495Y45997D01*
X168729Y46728D01*
X167378Y48079D01*
X166647Y49845D01*
X166647Y51755D01*
X167132Y52926D01*
X167139Y52948D01*
X167149Y52967D01*
X167197Y53140D01*
X167249Y53312D01*
X167251Y53334D01*
X167257Y53355D01*
X167270Y53535D01*
X167287Y53712D01*
X167285Y53734D01*
X167286Y53757D01*
X167264Y53935D01*
X167245Y54113D01*
X167239Y54134D01*
X167236Y54156D01*
X167179Y54326D01*
X167125Y54497D01*
X167115Y54517D01*
X167108Y54538D01*
X167018Y54693D01*
X166932Y54850D01*
X166918Y54867D01*
X166907Y54887D01*
X166692Y55140D01*
X125630Y96202D01*
X125609Y96219D01*
X125591Y96240D01*
X125453Y96347D01*
X125318Y96457D01*
X125294Y96470D01*
X125273Y96486D01*
X125116Y96564D01*
X124962Y96646D01*
X124937Y96654D01*
X124913Y96666D01*
X124743Y96711D01*
X124576Y96761D01*
X124550Y96763D01*
X124524Y96770D01*
X124193Y96797D01*
X122870Y96797D01*
X121104Y97528D01*
X119753Y98879D01*
X119022Y100645D01*
X119022Y102555D01*
X119753Y104321D01*
X121104Y105672D01*
X122870Y106403D01*
X124780Y106403D01*
X126546Y105672D01*
X127897Y104321D01*
X128628Y102555D01*
X128628Y101232D01*
X128630Y101205D01*
X128628Y101178D01*
X128650Y101005D01*
X128668Y100831D01*
X128675Y100806D01*
X128679Y100779D01*
X128734Y100613D01*
X128786Y100446D01*
X128799Y100423D01*
X128807Y100397D01*
X128894Y100246D01*
X128978Y100092D01*
X128995Y100072D01*
X129008Y100048D01*
X129223Y99795D01*
X164039Y64979D01*
X164043Y64976D01*
X164046Y64972D01*
X164199Y64848D01*
X164351Y64724D01*
X164355Y64722D01*
X164358Y64719D01*
X164538Y64625D01*
X164707Y64535D01*
X164711Y64534D01*
X164715Y64532D01*
X164907Y64476D01*
X165093Y64420D01*
X165097Y64420D01*
X165101Y64419D01*
X165294Y64402D01*
X165494Y64384D01*
X165498Y64384D01*
X165502Y64384D01*
X165693Y64405D01*
X165894Y64427D01*
X165898Y64429D01*
X165903Y64429D01*
X166087Y64488D01*
X166068Y64419D01*
X166015Y64233D01*
X166015Y64228D01*
X166014Y64224D01*
X165999Y64023D01*
X165984Y63831D01*
X165985Y63827D01*
X165984Y63822D01*
X166010Y63622D01*
X166033Y63432D01*
X166034Y63427D01*
X166035Y63423D01*
X166097Y63238D01*
X166159Y63049D01*
X166162Y63046D01*
X166163Y63041D01*
X166260Y62872D01*
X166359Y62700D01*
X166362Y62696D01*
X166364Y62692D01*
X166579Y62439D01*
X168732Y60286D01*
X168753Y60269D01*
X168771Y60248D01*
X168909Y60142D01*
X169044Y60031D01*
X169068Y60018D01*
X169089Y60002D01*
X169245Y59924D01*
X169400Y59842D01*
X169425Y59834D01*
X169449Y59822D01*
X169618Y59777D01*
X169786Y59727D01*
X169812Y59725D01*
X169838Y59718D01*
X170169Y59691D01*
X173228Y59691D01*
X173246Y59693D01*
X173264Y59691D01*
X173446Y59712D01*
X173629Y59731D01*
X173646Y59736D01*
X173663Y59738D01*
X173838Y59795D01*
X174014Y59849D01*
X174029Y59857D01*
X174046Y59863D01*
X174206Y59953D01*
X174368Y60041D01*
X174381Y60052D01*
X174397Y60061D01*
X174536Y60181D01*
X174677Y60298D01*
X174688Y60312D01*
X174702Y60324D01*
X174814Y60469D01*
X174929Y60612D01*
X174937Y60628D01*
X174948Y60642D01*
X175030Y60806D01*
X175115Y60969D01*
X175120Y60986D01*
X175128Y61002D01*
X175175Y61181D01*
X175226Y61356D01*
X175228Y61374D01*
X175232Y61391D01*
X175259Y61722D01*
X175259Y63189D01*
X175258Y63203D01*
X175259Y63216D01*
X175238Y63402D01*
X175219Y63590D01*
X175215Y63603D01*
X175214Y63616D01*
X175157Y63794D01*
X175101Y63975D01*
X175095Y63987D01*
X175091Y63999D01*
X174999Y64164D01*
X174909Y64329D01*
X174901Y64339D01*
X174894Y64351D01*
X174771Y64495D01*
X174652Y64638D01*
X174641Y64647D01*
X174633Y64657D01*
X174484Y64773D01*
X174338Y64891D01*
X174326Y64897D01*
X174316Y64905D01*
X174146Y64990D01*
X173981Y65076D01*
X173968Y65080D01*
X173956Y65086D01*
X173774Y65136D01*
X173594Y65187D01*
X173580Y65189D01*
X173567Y65192D01*
X173381Y65205D01*
X173192Y65220D01*
X173179Y65219D01*
X173166Y65220D01*
X172979Y65195D01*
X172793Y65173D01*
X172780Y65169D01*
X172767Y65168D01*
X172451Y65066D01*
X172405Y65047D01*
X170495Y65047D01*
X168792Y65752D01*
X168788Y65754D01*
X168784Y65756D01*
X168596Y65812D01*
X168407Y65869D01*
X168402Y65869D01*
X168398Y65871D01*
X168200Y65889D01*
X168006Y65907D01*
X168002Y65907D01*
X167997Y65907D01*
X167802Y65886D01*
X167606Y65865D01*
X167601Y65864D01*
X167597Y65864D01*
X167413Y65805D01*
X167404Y65802D01*
X167424Y65878D01*
X167477Y66067D01*
X167477Y66071D01*
X167478Y66075D01*
X167492Y66272D01*
X167506Y66468D01*
X167506Y66473D01*
X167506Y66477D01*
X167481Y66671D01*
X167456Y66868D01*
X167455Y66872D01*
X167454Y66876D01*
X167352Y67192D01*
X166647Y68895D01*
X166647Y70805D01*
X167378Y72571D01*
X168314Y73506D01*
X168331Y73527D01*
X168352Y73545D01*
X168459Y73683D01*
X168569Y73818D01*
X168582Y73842D01*
X168598Y73863D01*
X168676Y74020D01*
X168758Y74174D01*
X168766Y74199D01*
X168778Y74223D01*
X168823Y74393D01*
X168873Y74560D01*
X168875Y74586D01*
X168882Y74612D01*
X168909Y74943D01*
X168909Y104240D01*
X184685Y120016D01*
X256864Y120016D01*
X256878Y120017D01*
X256891Y120016D01*
X257077Y120037D01*
X257265Y120056D01*
X257278Y120060D01*
X257291Y120061D01*
X257470Y120119D01*
X257650Y120174D01*
X257662Y120180D01*
X257675Y120184D01*
X257839Y120276D01*
X258004Y120366D01*
X258014Y120374D01*
X258026Y120381D01*
X258169Y120503D01*
X258313Y120623D01*
X258322Y120634D01*
X258332Y120643D01*
X258448Y120791D01*
X258566Y120937D01*
X258572Y120949D01*
X258580Y120960D01*
X258665Y121128D01*
X258751Y121294D01*
X258755Y121307D01*
X258761Y121319D01*
X258811Y121501D01*
X258863Y121681D01*
X258864Y121695D01*
X258867Y121708D01*
X258880Y121895D01*
X258895Y122083D01*
X258894Y122096D01*
X258895Y122109D01*
X258870Y122296D01*
X258848Y122482D01*
X258844Y122495D01*
X258843Y122509D01*
X258741Y122824D01*
X258722Y122870D01*
X258722Y124780D01*
X258742Y124829D01*
X258749Y124850D01*
X258759Y124870D01*
X258807Y125043D01*
X258859Y125214D01*
X258861Y125236D01*
X258867Y125258D01*
X258880Y125437D01*
X258897Y125615D01*
X258895Y125637D01*
X258896Y125659D01*
X258874Y125838D01*
X258855Y126015D01*
X258849Y126037D01*
X258846Y126059D01*
X258789Y126229D01*
X258736Y126400D01*
X258725Y126419D01*
X258718Y126440D01*
X258628Y126595D01*
X258542Y126753D01*
X258528Y126770D01*
X258517Y126789D01*
X258302Y127042D01*
X239255Y146089D01*
X239234Y146106D01*
X239217Y146127D01*
X239079Y146234D01*
X238944Y146344D01*
X238920Y146357D01*
X238899Y146373D01*
X238742Y146451D01*
X238588Y146533D01*
X238562Y146541D01*
X238538Y146553D01*
X238369Y146598D01*
X238202Y146648D01*
X238175Y146650D01*
X238149Y146657D01*
X237819Y146684D01*
X159285Y146684D01*
X148272Y157698D01*
X148272Y158215D01*
X148269Y158242D01*
X148271Y158268D01*
X148249Y158442D01*
X148232Y158616D01*
X148224Y158641D01*
X148221Y158668D01*
X148165Y158834D01*
X148114Y159001D01*
X148101Y159024D01*
X148092Y159050D01*
X148005Y159201D01*
X147922Y159355D01*
X147905Y159375D01*
X147891Y159398D01*
X147677Y159651D01*
X146626Y160702D01*
X145589Y163205D01*
X145589Y176995D01*
X146626Y179498D01*
X148542Y181414D01*
X151045Y182451D01*
X153755Y182451D01*
X156258Y181414D01*
X156775Y180897D01*
X156789Y180886D01*
X156800Y180872D01*
X156944Y180758D01*
X157086Y180642D01*
X157102Y180633D01*
X157116Y180622D01*
X157279Y180539D01*
X157442Y180453D01*
X157459Y180448D01*
X157475Y180440D01*
X157651Y180391D01*
X157828Y180338D01*
X157846Y180337D01*
X157863Y180332D01*
X158046Y180319D01*
X158229Y180302D01*
X158247Y180304D01*
X158265Y180303D01*
X158446Y180326D01*
X158629Y180345D01*
X158646Y180351D01*
X158664Y180353D01*
X158838Y180412D01*
X159013Y180467D01*
X159029Y180476D01*
X159046Y180481D01*
X159205Y180573D01*
X159365Y180662D01*
X159379Y180673D01*
X159395Y180682D01*
X159648Y180897D01*
X160273Y181522D01*
X161513Y182351D01*
X162891Y182922D01*
X163069Y182957D01*
X163069Y170100D01*
X163069Y157243D01*
X162891Y157278D01*
X161513Y157849D01*
X160273Y158678D01*
X159648Y159303D01*
X159634Y159314D01*
X159622Y159328D01*
X159478Y159442D01*
X159336Y159558D01*
X159320Y159567D01*
X159306Y159578D01*
X159143Y159661D01*
X158980Y159747D01*
X158963Y159752D01*
X158947Y159760D01*
X158771Y159809D01*
X158594Y159862D01*
X158577Y159863D01*
X158559Y159868D01*
X158377Y159881D01*
X158193Y159898D01*
X158176Y159896D01*
X158158Y159897D01*
X157976Y159874D01*
X157793Y159855D01*
X157776Y159849D01*
X157758Y159847D01*
X157584Y159788D01*
X157409Y159733D01*
X157394Y159724D01*
X157377Y159719D01*
X157217Y159627D01*
X157057Y159538D01*
X157043Y159527D01*
X157028Y159518D01*
X156775Y159303D01*
X156750Y159278D01*
X156739Y159264D01*
X156725Y159253D01*
X156612Y159109D01*
X156495Y158967D01*
X156487Y158951D01*
X156476Y158937D01*
X156392Y158772D01*
X156306Y158611D01*
X156301Y158594D01*
X156293Y158578D01*
X156244Y158400D01*
X156192Y158225D01*
X156190Y158207D01*
X156185Y158190D01*
X156172Y158007D01*
X156155Y157824D01*
X156157Y157806D01*
X156156Y157789D01*
X156179Y157607D01*
X156199Y157424D01*
X156204Y157407D01*
X156206Y157389D01*
X156265Y157215D01*
X156320Y157040D01*
X156329Y157024D01*
X156334Y157007D01*
X156426Y156848D01*
X156515Y156688D01*
X156526Y156674D01*
X156535Y156659D01*
X156750Y156406D01*
X160795Y152361D01*
X160816Y152344D01*
X160833Y152323D01*
X160971Y152217D01*
X161106Y152106D01*
X161130Y152093D01*
X161151Y152077D01*
X161307Y151999D01*
X161462Y151917D01*
X161488Y151909D01*
X161512Y151897D01*
X161681Y151852D01*
X161848Y151802D01*
X161875Y151800D01*
X161901Y151793D01*
X162231Y151766D01*
X240765Y151766D01*
X263308Y129223D01*
X263329Y129206D01*
X263346Y129185D01*
X263484Y129078D01*
X263619Y128968D01*
X263643Y128955D01*
X263664Y128939D01*
X263821Y128861D01*
X263975Y128779D01*
X264001Y128771D01*
X264025Y128759D01*
X264194Y128714D01*
X264361Y128664D01*
X264388Y128662D01*
X264414Y128655D01*
X264415Y128655D01*
X266246Y127897D01*
X267597Y126546D01*
X268328Y124780D01*
X268328Y122837D01*
X268329Y122828D01*
X268328Y122819D01*
X268349Y122626D01*
X268368Y122437D01*
X268370Y122428D01*
X268371Y122419D01*
X268430Y122235D01*
X268486Y122052D01*
X268490Y122044D01*
X268493Y122035D01*
X268586Y121867D01*
X268678Y121698D01*
X268683Y121691D01*
X268688Y121683D01*
X268812Y121536D01*
X268935Y121388D01*
X268942Y121383D01*
X268948Y121376D01*
X269100Y121256D01*
X269249Y121136D01*
X269257Y121132D01*
X269264Y121126D01*
X269437Y121039D01*
X269606Y120951D01*
X269615Y120948D01*
X269623Y120944D01*
X269809Y120892D01*
X269993Y120839D01*
X270002Y120838D01*
X270011Y120836D01*
X270204Y120822D01*
X270395Y120806D01*
X270403Y120807D01*
X270412Y120807D01*
X270605Y120831D01*
X270794Y120853D01*
X270803Y120856D01*
X270812Y120857D01*
X270994Y120918D01*
X271177Y120978D01*
X271185Y120982D01*
X271193Y120985D01*
X271360Y121081D01*
X271528Y121176D01*
X271535Y121182D01*
X271542Y121186D01*
X271795Y121401D01*
X308753Y158358D01*
X308767Y158376D01*
X308784Y158390D01*
X308894Y158531D01*
X309008Y158670D01*
X309018Y158690D01*
X309032Y158707D01*
X309113Y158868D01*
X309196Y159026D01*
X309203Y159047D01*
X309213Y159067D01*
X309260Y159240D01*
X309311Y159412D01*
X309313Y159434D01*
X309319Y159455D01*
X309331Y159633D01*
X309348Y159813D01*
X309345Y159835D01*
X309347Y159857D01*
X309324Y160033D01*
X309304Y160213D01*
X309297Y160234D01*
X309295Y160256D01*
X309193Y160572D01*
X308609Y161982D01*
X308609Y165519D01*
X309963Y168786D01*
X312464Y171287D01*
X315731Y172641D01*
X319269Y172641D01*
X322536Y171287D01*
X325037Y168786D01*
X326391Y165519D01*
X326391Y161981D01*
X325037Y158714D01*
X322536Y156213D01*
X319269Y154859D01*
X315732Y154859D01*
X314658Y155304D01*
X314637Y155310D01*
X314617Y155321D01*
X314444Y155369D01*
X314273Y155420D01*
X314250Y155423D01*
X314229Y155429D01*
X314049Y155442D01*
X313872Y155459D01*
X313850Y155456D01*
X313827Y155458D01*
X313649Y155435D01*
X313471Y155417D01*
X313450Y155410D01*
X313428Y155408D01*
X313258Y155351D01*
X313087Y155297D01*
X313067Y155286D01*
X313046Y155279D01*
X312891Y155190D01*
X312734Y155104D01*
X312717Y155090D01*
X312697Y155078D01*
X312444Y154864D01*
X276301Y118721D01*
X276296Y118714D01*
X276289Y118708D01*
X276169Y118559D01*
X276046Y118409D01*
X276042Y118401D01*
X276037Y118394D01*
X275948Y118223D01*
X275858Y118054D01*
X275855Y118045D01*
X275851Y118037D01*
X275798Y117852D01*
X275743Y117668D01*
X275742Y117659D01*
X275740Y117650D01*
X275724Y117456D01*
X275707Y117267D01*
X275708Y117258D01*
X275707Y117249D01*
X275729Y117060D01*
X275750Y116866D01*
X275753Y116858D01*
X275754Y116849D01*
X275813Y116667D01*
X275871Y116483D01*
X275876Y116475D01*
X275879Y116466D01*
X275974Y116298D01*
X276066Y116130D01*
X276072Y116124D01*
X276076Y116116D01*
X276202Y115970D01*
X276327Y115823D01*
X276334Y115818D01*
X276340Y115811D01*
X276491Y115694D01*
X276643Y115574D01*
X276651Y115570D01*
X276658Y115564D01*
X276830Y115479D01*
X277002Y115391D01*
X277010Y115389D01*
X277018Y115385D01*
X277205Y115335D01*
X277390Y115283D01*
X277398Y115283D01*
X277407Y115280D01*
X277738Y115253D01*
X306578Y115253D01*
X306596Y115255D01*
X306614Y115254D01*
X306796Y115275D01*
X306979Y115293D01*
X306996Y115298D01*
X307013Y115300D01*
X307188Y115357D01*
X307364Y115411D01*
X307379Y115420D01*
X307396Y115425D01*
X307556Y115516D01*
X307718Y115603D01*
X307731Y115614D01*
X307747Y115623D01*
X307886Y115743D01*
X308027Y115861D01*
X308038Y115875D01*
X308052Y115886D01*
X308164Y116031D01*
X308279Y116175D01*
X308287Y116190D01*
X308298Y116204D01*
X308380Y116369D01*
X308417Y116441D01*
X313817Y121841D01*
X321183Y121841D01*
X326391Y116633D01*
X326391Y109267D01*
X321183Y104059D01*
X313817Y104059D01*
X308300Y109577D01*
X308279Y109594D01*
X308262Y109614D01*
X308124Y109721D01*
X307988Y109832D01*
X307965Y109844D01*
X307944Y109861D01*
X307787Y109939D01*
X307633Y110021D01*
X307607Y110028D01*
X307583Y110040D01*
X307414Y110086D01*
X307247Y110135D01*
X307220Y110138D01*
X307194Y110145D01*
X306864Y110172D01*
X196661Y110172D01*
X196639Y110170D01*
X196616Y110171D01*
X196439Y110150D01*
X196260Y110132D01*
X196239Y110125D01*
X196217Y110123D01*
X196047Y110066D01*
X195875Y110014D01*
X195856Y110003D01*
X195834Y109996D01*
X195679Y109907D01*
X195521Y109822D01*
X195504Y109808D01*
X195485Y109797D01*
X195350Y109679D01*
X195212Y109564D01*
X195198Y109547D01*
X195181Y109532D01*
X195072Y109390D01*
X194960Y109250D01*
X194949Y109231D01*
X194936Y109213D01*
X194784Y108918D01*
X194572Y108404D01*
X193221Y107053D01*
X191455Y106322D01*
X189545Y106322D01*
X187779Y107053D01*
X186428Y108404D01*
X185785Y109958D01*
X185779Y109969D01*
X185775Y109982D01*
X185684Y110146D01*
X185595Y110312D01*
X185586Y110323D01*
X185580Y110334D01*
X185458Y110478D01*
X185338Y110623D01*
X185328Y110631D01*
X185319Y110641D01*
X185171Y110759D01*
X185026Y110877D01*
X185014Y110883D01*
X185004Y110891D01*
X184836Y110976D01*
X184669Y111064D01*
X184656Y111067D01*
X184645Y111073D01*
X184464Y111124D01*
X184283Y111177D01*
X184270Y111178D01*
X184257Y111181D01*
X184068Y111195D01*
X183882Y111211D01*
X183869Y111210D01*
X183855Y111211D01*
X183667Y111187D01*
X183482Y111166D01*
X183469Y111162D01*
X183456Y111160D01*
X183277Y111100D01*
X183098Y111043D01*
X183087Y111036D01*
X183074Y111032D01*
X182911Y110938D01*
X182747Y110847D01*
X182737Y110838D01*
X182725Y110831D01*
X182472Y110617D01*
X174586Y102730D01*
X174569Y102709D01*
X174548Y102692D01*
X174441Y102554D01*
X174331Y102419D01*
X174318Y102395D01*
X174302Y102374D01*
X174224Y102217D01*
X174142Y102063D01*
X174134Y102037D01*
X174122Y102013D01*
X174077Y101844D01*
X174027Y101677D01*
X174025Y101650D01*
X174018Y101624D01*
X173991Y101294D01*
X173991Y87122D01*
X173993Y87104D01*
X173991Y87086D01*
X174012Y86904D01*
X174031Y86721D01*
X174036Y86704D01*
X174038Y86687D01*
X174095Y86512D01*
X174149Y86336D01*
X174157Y86321D01*
X174163Y86304D01*
X174253Y86144D01*
X174341Y85982D01*
X174352Y85969D01*
X174361Y85953D01*
X174481Y85814D01*
X174598Y85673D01*
X174612Y85662D01*
X174624Y85648D01*
X174769Y85536D01*
X174912Y85421D01*
X174928Y85413D01*
X174942Y85402D01*
X175107Y85320D01*
X175269Y85235D01*
X175286Y85230D01*
X175302Y85222D01*
X175481Y85175D01*
X175656Y85124D01*
X175674Y85122D01*
X175691Y85118D01*
X176022Y85091D01*
X264782Y85091D01*
X264809Y85093D01*
X264836Y85091D01*
X265009Y85113D01*
X265183Y85131D01*
X265208Y85138D01*
X265235Y85142D01*
X265401Y85197D01*
X265568Y85249D01*
X265591Y85262D01*
X265617Y85270D01*
X265768Y85357D01*
X265922Y85441D01*
X265942Y85458D01*
X265966Y85471D01*
X266219Y85686D01*
X267154Y86622D01*
X268920Y87353D01*
X270830Y87353D01*
X272596Y86622D01*
X273947Y85271D01*
X274678Y83505D01*
X274678Y81595D01*
X273947Y79829D01*
X273150Y79033D01*
X273145Y79026D01*
X273138Y79021D01*
X273018Y78872D01*
X272895Y78722D01*
X272891Y78714D01*
X272886Y78707D01*
X272797Y78537D01*
X272707Y78366D01*
X272704Y78357D01*
X272700Y78350D01*
X272647Y78165D01*
X272592Y77980D01*
X272591Y77971D01*
X272589Y77963D01*
X272573Y77772D01*
X272555Y77579D01*
X272556Y77570D01*
X272556Y77561D01*
X272578Y77371D01*
X272599Y77179D01*
X272602Y77170D01*
X272603Y77162D01*
X272662Y76979D01*
X272720Y76795D01*
X272725Y76787D01*
X272727Y76779D01*
X272822Y76612D01*
X272915Y76443D01*
X272921Y76436D01*
X272925Y76428D01*
X273051Y76283D01*
X273176Y76136D01*
X273183Y76130D01*
X273189Y76123D01*
X273340Y76006D01*
X273492Y75886D01*
X273500Y75882D01*
X273507Y75877D01*
X273679Y75791D01*
X273851Y75704D01*
X273859Y75701D01*
X273867Y75697D01*
X274053Y75648D01*
X274238Y75596D01*
X274247Y75595D01*
X274256Y75593D01*
X274587Y75566D01*
X293381Y75566D01*
X293408Y75568D01*
X293435Y75566D01*
X293608Y75588D01*
X293782Y75606D01*
X293807Y75613D01*
X293834Y75617D01*
X294000Y75672D01*
X294167Y75724D01*
X294190Y75737D01*
X294216Y75745D01*
X294367Y75832D01*
X294521Y75916D01*
X294541Y75933D01*
X294565Y75946D01*
X294818Y76161D01*
X313273Y94616D01*
X355791Y94616D01*
X355808Y94618D01*
X355826Y94616D01*
X356008Y94637D01*
X356191Y94656D01*
X356208Y94661D01*
X356226Y94663D01*
X356400Y94720D01*
X356576Y94774D01*
X356592Y94782D01*
X356609Y94788D01*
X356769Y94878D01*
X356930Y94966D01*
X356944Y94977D01*
X356959Y94986D01*
X357099Y95106D01*
X357239Y95223D01*
X357251Y95237D01*
X357264Y95249D01*
X357377Y95394D01*
X357492Y95537D01*
X357500Y95553D01*
X357511Y95567D01*
X357593Y95732D01*
X357677Y95894D01*
X357682Y95911D01*
X357690Y95927D01*
X357738Y96106D01*
X357789Y96281D01*
X357790Y96299D01*
X357795Y96316D01*
X357822Y96647D01*
X357822Y118756D01*
X357819Y118783D01*
X357821Y118810D01*
X357799Y118983D01*
X357782Y119157D01*
X357774Y119182D01*
X357771Y119209D01*
X357715Y119375D01*
X357664Y119542D01*
X357651Y119565D01*
X357642Y119591D01*
X357555Y119742D01*
X357472Y119896D01*
X357455Y119916D01*
X357442Y119940D01*
X357227Y120193D01*
X348555Y128864D01*
X348534Y128881D01*
X348517Y128902D01*
X348379Y129009D01*
X348244Y129119D01*
X348220Y129132D01*
X348199Y129148D01*
X348042Y129226D01*
X347888Y129308D01*
X347862Y129316D01*
X347838Y129328D01*
X347669Y129373D01*
X347502Y129423D01*
X347475Y129425D01*
X347449Y129432D01*
X347119Y129459D01*
X339217Y129459D01*
X334009Y134667D01*
X334009Y142033D01*
X335193Y143217D01*
X335199Y143224D01*
X335206Y143229D01*
X335326Y143379D01*
X335448Y143528D01*
X335453Y143536D01*
X335458Y143543D01*
X335547Y143713D01*
X335637Y143884D01*
X335640Y143893D01*
X335644Y143900D01*
X335697Y144085D01*
X335752Y144270D01*
X335753Y144279D01*
X335755Y144287D01*
X335771Y144478D01*
X335788Y144671D01*
X335787Y144680D01*
X335788Y144689D01*
X335766Y144878D01*
X335745Y145071D01*
X335742Y145080D01*
X335741Y145088D01*
X335682Y145270D01*
X335623Y145455D01*
X335619Y145463D01*
X335616Y145471D01*
X335522Y145638D01*
X335429Y145807D01*
X335423Y145814D01*
X335418Y145822D01*
X335293Y145967D01*
X335168Y146114D01*
X335161Y146120D01*
X335155Y146127D01*
X335005Y146243D01*
X334852Y146364D01*
X334844Y146368D01*
X334837Y146373D01*
X334666Y146459D01*
X334493Y146546D01*
X334485Y146549D01*
X334477Y146553D01*
X334291Y146603D01*
X334105Y146654D01*
X334096Y146655D01*
X334088Y146657D01*
X333757Y146684D01*
X328919Y146684D01*
X328892Y146682D01*
X328865Y146684D01*
X328692Y146662D01*
X328518Y146644D01*
X328493Y146637D01*
X328466Y146633D01*
X328300Y146578D01*
X328133Y146526D01*
X328110Y146513D01*
X328084Y146505D01*
X327933Y146418D01*
X327779Y146334D01*
X327759Y146317D01*
X327735Y146304D01*
X327482Y146089D01*
X326345Y144951D01*
X326333Y144938D01*
X326320Y144926D01*
X326206Y144782D01*
X326089Y144640D01*
X326081Y144624D01*
X326070Y144610D01*
X325987Y144446D01*
X325901Y144284D01*
X325896Y144267D01*
X325888Y144251D01*
X325838Y144074D01*
X325786Y143898D01*
X325784Y143880D01*
X325780Y143863D01*
X325766Y143680D01*
X325750Y143497D01*
X325752Y143480D01*
X325750Y143462D01*
X325773Y143280D01*
X325793Y143097D01*
X325799Y143080D01*
X325801Y143062D01*
X325859Y142889D01*
X325915Y142713D01*
X325923Y142698D01*
X325929Y142681D01*
X326021Y142521D01*
X326109Y142361D01*
X326121Y142347D01*
X326130Y142332D01*
X326345Y142079D01*
X326391Y142033D01*
X326391Y134667D01*
X321183Y129459D01*
X313817Y129459D01*
X308609Y134667D01*
X308609Y142033D01*
X313817Y147241D01*
X320606Y147241D01*
X320633Y147243D01*
X320660Y147241D01*
X320833Y147263D01*
X321007Y147281D01*
X321032Y147288D01*
X321059Y147292D01*
X321225Y147347D01*
X321392Y147399D01*
X321415Y147412D01*
X321441Y147420D01*
X321592Y147507D01*
X321746Y147591D01*
X321766Y147608D01*
X321790Y147621D01*
X322043Y147836D01*
X323889Y149682D01*
X323889Y149683D01*
X325973Y151766D01*
X337407Y151766D01*
X337416Y151767D01*
X337425Y151766D01*
X337617Y151787D01*
X337808Y151806D01*
X337816Y151808D01*
X337825Y151809D01*
X338007Y151867D01*
X338193Y151924D01*
X338201Y151928D01*
X338209Y151931D01*
X338377Y152024D01*
X338547Y152116D01*
X338553Y152121D01*
X338561Y152126D01*
X338708Y152250D01*
X338856Y152373D01*
X338861Y152380D01*
X338868Y152386D01*
X338987Y152537D01*
X339108Y152687D01*
X339112Y152695D01*
X339118Y152702D01*
X339206Y152875D01*
X339294Y153044D01*
X339296Y153053D01*
X339300Y153061D01*
X339352Y153247D01*
X339405Y153431D01*
X339406Y153440D01*
X339408Y153449D01*
X339422Y153641D01*
X339438Y153833D01*
X339437Y153841D01*
X339438Y153850D01*
X339413Y154043D01*
X339391Y154232D01*
X339388Y154241D01*
X339387Y154250D01*
X339326Y154433D01*
X339266Y154615D01*
X339262Y154623D01*
X339259Y154631D01*
X339163Y154798D01*
X339068Y154966D01*
X339063Y154973D01*
X339058Y154980D01*
X338843Y155233D01*
X334009Y160067D01*
X334009Y167433D01*
X339217Y172641D01*
X346583Y172641D01*
X351791Y167433D01*
X351791Y160067D01*
X346957Y155233D01*
X346951Y155226D01*
X346944Y155221D01*
X346824Y155071D01*
X346702Y154922D01*
X346697Y154914D01*
X346692Y154907D01*
X346603Y154737D01*
X346513Y154566D01*
X346510Y154557D01*
X346506Y154550D01*
X346453Y154365D01*
X346398Y154180D01*
X346397Y154171D01*
X346395Y154163D01*
X346379Y153971D01*
X346362Y153779D01*
X346363Y153770D01*
X346362Y153761D01*
X346384Y153572D01*
X346405Y153379D01*
X346408Y153370D01*
X346409Y153362D01*
X346468Y153180D01*
X346527Y152995D01*
X346531Y152987D01*
X346534Y152979D01*
X346629Y152810D01*
X346722Y152643D01*
X346727Y152636D01*
X346732Y152628D01*
X346858Y152482D01*
X346982Y152336D01*
X346989Y152330D01*
X346995Y152323D01*
X347146Y152206D01*
X347298Y152086D01*
X347306Y152082D01*
X347313Y152077D01*
X347485Y151991D01*
X347657Y151904D01*
X347665Y151901D01*
X347673Y151897D01*
X347860Y151847D01*
X348045Y151796D01*
X348054Y151795D01*
X348062Y151793D01*
X348393Y151766D01*
X355065Y151766D01*
X386220Y120611D01*
X386241Y120594D01*
X386258Y120573D01*
X386396Y120466D01*
X386531Y120356D01*
X386555Y120343D01*
X386576Y120327D01*
X386733Y120249D01*
X386887Y120167D01*
X386913Y120159D01*
X386937Y120147D01*
X387106Y120102D01*
X387273Y120052D01*
X387300Y120050D01*
X387326Y120043D01*
X387656Y120016D01*
X392431Y120016D01*
X392458Y120018D01*
X392484Y120016D01*
X392657Y120038D01*
X392832Y120056D01*
X392857Y120064D01*
X392884Y120067D01*
X393049Y120122D01*
X393217Y120174D01*
X393240Y120187D01*
X393266Y120195D01*
X393417Y120282D01*
X393571Y120366D01*
X393591Y120383D01*
X393614Y120396D01*
X393701Y120469D01*
X397011Y121841D01*
X415789Y121841D01*
X419056Y120487D01*
X421557Y117986D01*
X422911Y114719D01*
X422911Y111181D01*
X421557Y107914D01*
X419056Y105413D01*
X415789Y104059D01*
X397011Y104059D01*
X393744Y105413D01*
X391243Y107914D01*
X389889Y111181D01*
X389889Y112903D01*
X389887Y112921D01*
X389889Y112939D01*
X389868Y113121D01*
X389849Y113304D01*
X389844Y113321D01*
X389842Y113338D01*
X389785Y113513D01*
X389731Y113689D01*
X389723Y113704D01*
X389717Y113721D01*
X389627Y113881D01*
X389539Y114043D01*
X389528Y114056D01*
X389519Y114072D01*
X389399Y114211D01*
X389282Y114352D01*
X389268Y114363D01*
X389256Y114377D01*
X389111Y114489D01*
X388968Y114604D01*
X388952Y114612D01*
X388938Y114623D01*
X388773Y114705D01*
X388611Y114790D01*
X388594Y114795D01*
X388578Y114803D01*
X388399Y114850D01*
X388224Y114901D01*
X388206Y114903D01*
X388189Y114907D01*
X387858Y114934D01*
X384710Y114934D01*
X353555Y146089D01*
X353534Y146106D01*
X353517Y146127D01*
X353379Y146234D01*
X353244Y146344D01*
X353220Y146357D01*
X353199Y146373D01*
X353042Y146451D01*
X352888Y146533D01*
X352862Y146541D01*
X352838Y146553D01*
X352669Y146598D01*
X352502Y146648D01*
X352475Y146650D01*
X352449Y146657D01*
X352119Y146684D01*
X352043Y146684D01*
X352034Y146683D01*
X352025Y146684D01*
X351833Y146663D01*
X351642Y146644D01*
X351634Y146642D01*
X351625Y146641D01*
X351443Y146583D01*
X351257Y146526D01*
X351249Y146522D01*
X351241Y146519D01*
X351073Y146426D01*
X350903Y146334D01*
X350897Y146329D01*
X350889Y146324D01*
X350741Y146199D01*
X350594Y146077D01*
X350589Y146070D01*
X350582Y146064D01*
X350462Y145912D01*
X350342Y145763D01*
X350338Y145755D01*
X350332Y145748D01*
X350245Y145576D01*
X350156Y145406D01*
X350154Y145397D01*
X350150Y145389D01*
X350098Y145203D01*
X350045Y145019D01*
X350044Y145010D01*
X350042Y145001D01*
X350028Y144807D01*
X350012Y144617D01*
X350013Y144609D01*
X350012Y144600D01*
X350037Y144407D01*
X350059Y144218D01*
X350062Y144209D01*
X350063Y144200D01*
X350124Y144017D01*
X350184Y143835D01*
X350188Y143827D01*
X350191Y143819D01*
X350286Y143653D01*
X350382Y143484D01*
X350388Y143477D01*
X350392Y143470D01*
X350607Y143217D01*
X351791Y142033D01*
X351791Y134287D01*
X351742Y134125D01*
X351741Y134107D01*
X351736Y134089D01*
X351722Y133906D01*
X351706Y133724D01*
X351708Y133706D01*
X351707Y133688D01*
X351730Y133505D01*
X351749Y133323D01*
X351755Y133306D01*
X351757Y133288D01*
X351816Y133114D01*
X351871Y132940D01*
X351879Y132924D01*
X351885Y132907D01*
X351977Y132747D01*
X352065Y132587D01*
X352077Y132573D01*
X352086Y132558D01*
X352301Y132305D01*
X360820Y123786D01*
X362903Y121702D01*
X362903Y96647D01*
X362905Y96629D01*
X362904Y96611D01*
X362925Y96429D01*
X362943Y96246D01*
X362948Y96229D01*
X362950Y96212D01*
X363007Y96037D01*
X363061Y95861D01*
X363070Y95846D01*
X363075Y95829D01*
X363166Y95669D01*
X363253Y95507D01*
X363264Y95494D01*
X363273Y95478D01*
X363393Y95339D01*
X363511Y95198D01*
X363525Y95187D01*
X363536Y95173D01*
X363681Y95061D01*
X363825Y94946D01*
X363840Y94938D01*
X363854Y94927D01*
X364019Y94845D01*
X364182Y94760D01*
X364199Y94755D01*
X364215Y94747D01*
X364393Y94700D01*
X364569Y94649D01*
X364587Y94647D01*
X364604Y94643D01*
X364934Y94616D01*
X392431Y94616D01*
X392458Y94618D01*
X392484Y94616D01*
X392657Y94638D01*
X392832Y94656D01*
X392857Y94664D01*
X392884Y94667D01*
X393049Y94722D01*
X393217Y94774D01*
X393240Y94787D01*
X393266Y94795D01*
X393417Y94882D01*
X393571Y94966D01*
X393591Y94983D01*
X393614Y94996D01*
X393701Y95069D01*
X397011Y96441D01*
X415789Y96441D01*
X419056Y95087D01*
X421557Y92586D01*
X422911Y89319D01*
X422911Y85781D01*
X421557Y82514D01*
X419056Y80013D01*
X415789Y78659D01*
X397011Y78659D01*
X393744Y80013D01*
X391243Y82514D01*
X389889Y85781D01*
X389889Y87503D01*
X389887Y87521D01*
X389889Y87539D01*
X389868Y87721D01*
X389849Y87904D01*
X389844Y87921D01*
X389842Y87938D01*
X389785Y88113D01*
X389731Y88289D01*
X389723Y88304D01*
X389717Y88321D01*
X389627Y88481D01*
X389539Y88643D01*
X389528Y88656D01*
X389519Y88672D01*
X389399Y88811D01*
X389282Y88952D01*
X389268Y88963D01*
X389256Y88977D01*
X389111Y89089D01*
X388968Y89204D01*
X388952Y89212D01*
X388938Y89223D01*
X388773Y89305D01*
X388611Y89390D01*
X388594Y89395D01*
X388578Y89403D01*
X388399Y89450D01*
X388224Y89501D01*
X388206Y89503D01*
X388189Y89507D01*
X387858Y89534D01*
X374575Y89534D01*
X374566Y89533D01*
X374557Y89534D01*
X374364Y89513D01*
X374175Y89494D01*
X374166Y89492D01*
X374157Y89491D01*
X373973Y89432D01*
X373790Y89376D01*
X373782Y89372D01*
X373773Y89369D01*
X373605Y89276D01*
X373436Y89184D01*
X373429Y89179D01*
X373421Y89174D01*
X373274Y89050D01*
X373126Y88927D01*
X373121Y88920D01*
X373114Y88914D01*
X372994Y88762D01*
X372874Y88613D01*
X372870Y88605D01*
X372864Y88598D01*
X372777Y88425D01*
X372689Y88256D01*
X372686Y88247D01*
X372682Y88239D01*
X372630Y88053D01*
X372577Y87869D01*
X372576Y87860D01*
X372574Y87851D01*
X372560Y87658D01*
X372544Y87467D01*
X372545Y87459D01*
X372545Y87450D01*
X372569Y87257D01*
X372591Y87068D01*
X372594Y87059D01*
X372595Y87050D01*
X372656Y86868D01*
X372716Y86685D01*
X372720Y86677D01*
X372723Y86669D01*
X372819Y86502D01*
X372914Y86334D01*
X372920Y86327D01*
X372924Y86320D01*
X373139Y86067D01*
X390195Y69011D01*
X390209Y69000D01*
X390220Y68986D01*
X390364Y68872D01*
X390506Y68756D01*
X390522Y68747D01*
X390536Y68736D01*
X390701Y68653D01*
X390862Y68567D01*
X390879Y68562D01*
X390895Y68554D01*
X391073Y68505D01*
X391248Y68452D01*
X391266Y68451D01*
X391283Y68446D01*
X391466Y68433D01*
X391649Y68416D01*
X391667Y68418D01*
X391684Y68417D01*
X391866Y68440D01*
X392049Y68459D01*
X392066Y68465D01*
X392084Y68467D01*
X392257Y68525D01*
X392433Y68581D01*
X392449Y68590D01*
X392466Y68595D01*
X392625Y68687D01*
X392785Y68776D01*
X392799Y68787D01*
X392814Y68796D01*
X393067Y69011D01*
X393744Y69687D01*
X397011Y71041D01*
X415789Y71041D01*
X419056Y69687D01*
X421557Y67186D01*
X422911Y63919D01*
X422911Y60381D01*
X421557Y57114D01*
X419056Y54613D01*
X415789Y53259D01*
X397011Y53259D01*
X393744Y54613D01*
X391243Y57114D01*
X389889Y60381D01*
X389889Y61289D01*
X389887Y61315D01*
X389889Y61342D01*
X389867Y61516D01*
X389849Y61689D01*
X389842Y61715D01*
X389838Y61741D01*
X389783Y61907D01*
X389731Y62074D01*
X389718Y62098D01*
X389710Y62123D01*
X389623Y62275D01*
X389539Y62428D01*
X389522Y62449D01*
X389509Y62472D01*
X389294Y62725D01*
X367843Y84177D01*
X367822Y84194D01*
X367804Y84214D01*
X367666Y84321D01*
X367531Y84432D01*
X367507Y84444D01*
X367486Y84461D01*
X367329Y84539D01*
X367175Y84621D01*
X367150Y84628D01*
X367126Y84640D01*
X366956Y84686D01*
X366789Y84735D01*
X366763Y84738D01*
X366737Y84745D01*
X366406Y84772D01*
X317806Y84772D01*
X317780Y84769D01*
X317753Y84771D01*
X317579Y84749D01*
X317406Y84732D01*
X317380Y84724D01*
X317354Y84721D01*
X317188Y84665D01*
X317021Y84614D01*
X316997Y84601D01*
X316972Y84592D01*
X316820Y84505D01*
X316667Y84422D01*
X316646Y84405D01*
X316623Y84392D01*
X316370Y84177D01*
X297915Y65722D01*
X286056Y65722D01*
X286030Y65719D01*
X286003Y65721D01*
X285829Y65699D01*
X285656Y65682D01*
X285630Y65674D01*
X285604Y65671D01*
X285438Y65615D01*
X285271Y65564D01*
X285247Y65551D01*
X285222Y65542D01*
X285070Y65455D01*
X284917Y65372D01*
X284896Y65355D01*
X284873Y65342D01*
X284620Y65127D01*
X272098Y52605D01*
X272081Y52584D01*
X272060Y52566D01*
X271953Y52428D01*
X271843Y52293D01*
X271830Y52269D01*
X271814Y52248D01*
X271736Y52092D01*
X271654Y51937D01*
X271646Y51912D01*
X271634Y51888D01*
X271589Y51718D01*
X271539Y51551D01*
X271537Y51525D01*
X271530Y51499D01*
X271503Y51168D01*
X271503Y49845D01*
X270772Y48079D01*
X270166Y47474D01*
X270155Y47460D01*
X270141Y47448D01*
X270027Y47304D01*
X269911Y47162D01*
X269902Y47147D01*
X269891Y47132D01*
X269808Y46968D01*
X269722Y46807D01*
X269717Y46790D01*
X269709Y46774D01*
X269660Y46596D01*
X269607Y46421D01*
X269606Y46403D01*
X269601Y46386D01*
X269588Y46203D01*
X269571Y46020D01*
X269573Y46002D01*
X269572Y45984D01*
X269595Y45803D01*
X269614Y45619D01*
X269620Y45602D01*
X269622Y45585D01*
X269680Y45411D01*
X269736Y45236D01*
X269745Y45220D01*
X269750Y45203D01*
X269842Y45043D01*
X269931Y44883D01*
X269942Y44870D01*
X269951Y44854D01*
X270166Y44601D01*
X270772Y43996D01*
X271503Y42230D01*
X271503Y40320D01*
X270772Y38554D01*
X269421Y37203D01*
X267655Y36472D01*
X265745Y36472D01*
G37*
%LPD*%
G36*
X261634Y43818D02*
X261634Y43818D01*
X261660Y43816D01*
X261834Y43838D01*
X262008Y43856D01*
X262033Y43863D01*
X262060Y43867D01*
X262226Y43923D01*
X262393Y43974D01*
X262416Y43986D01*
X262442Y43995D01*
X262593Y44082D01*
X262747Y44166D01*
X262767Y44183D01*
X262790Y44196D01*
X263043Y44411D01*
X263234Y44601D01*
X263245Y44615D01*
X263259Y44627D01*
X263373Y44771D01*
X263489Y44913D01*
X263497Y44928D01*
X263509Y44942D01*
X263592Y45107D01*
X263678Y45268D01*
X263683Y45285D01*
X263691Y45301D01*
X263740Y45479D01*
X263793Y45654D01*
X263794Y45672D01*
X263799Y45689D01*
X263812Y45872D01*
X263829Y46055D01*
X263827Y46073D01*
X263828Y46091D01*
X263805Y46273D01*
X263786Y46455D01*
X263780Y46472D01*
X263778Y46490D01*
X263720Y46664D01*
X263664Y46839D01*
X263655Y46855D01*
X263650Y46872D01*
X263559Y47030D01*
X263469Y47192D01*
X263458Y47205D01*
X263449Y47221D01*
X263234Y47474D01*
X262628Y48079D01*
X261897Y49845D01*
X261897Y51755D01*
X262628Y53521D01*
X263979Y54872D01*
X265745Y55603D01*
X267068Y55603D01*
X267095Y55605D01*
X267122Y55603D01*
X267295Y55625D01*
X267469Y55643D01*
X267494Y55650D01*
X267521Y55654D01*
X267687Y55709D01*
X267854Y55761D01*
X267877Y55774D01*
X267903Y55782D01*
X268054Y55869D01*
X268208Y55953D01*
X268228Y55970D01*
X268252Y55983D01*
X268505Y56198D01*
X279324Y67017D01*
X279329Y67024D01*
X279336Y67029D01*
X279456Y67179D01*
X279579Y67328D01*
X279583Y67336D01*
X279588Y67343D01*
X279677Y67514D01*
X279767Y67684D01*
X279770Y67692D01*
X279774Y67700D01*
X279827Y67886D01*
X279882Y68070D01*
X279883Y68079D01*
X279885Y68087D01*
X279901Y68279D01*
X279918Y68471D01*
X279917Y68480D01*
X279918Y68489D01*
X279896Y68676D01*
X279875Y68871D01*
X279872Y68880D01*
X279871Y68888D01*
X279812Y69070D01*
X279754Y69255D01*
X279749Y69263D01*
X279746Y69271D01*
X279651Y69440D01*
X279559Y69607D01*
X279553Y69614D01*
X279549Y69622D01*
X279423Y69768D01*
X279298Y69914D01*
X279291Y69920D01*
X279285Y69927D01*
X279134Y70044D01*
X278982Y70164D01*
X278974Y70168D01*
X278967Y70173D01*
X278795Y70259D01*
X278623Y70346D01*
X278615Y70349D01*
X278607Y70353D01*
X278420Y70403D01*
X278235Y70454D01*
X278227Y70455D01*
X278218Y70457D01*
X277887Y70484D01*
X262473Y70484D01*
X259893Y73064D01*
X259872Y73081D01*
X259854Y73102D01*
X259716Y73209D01*
X259581Y73319D01*
X259557Y73332D01*
X259536Y73348D01*
X259379Y73426D01*
X259225Y73508D01*
X259200Y73516D01*
X259176Y73528D01*
X259006Y73573D01*
X258839Y73623D01*
X258813Y73625D01*
X258787Y73632D01*
X258456Y73659D01*
X192418Y73659D01*
X192391Y73657D01*
X192364Y73659D01*
X192191Y73637D01*
X192017Y73619D01*
X191992Y73612D01*
X191965Y73608D01*
X191799Y73553D01*
X191632Y73501D01*
X191609Y73488D01*
X191583Y73480D01*
X191432Y73393D01*
X191278Y73309D01*
X191258Y73292D01*
X191234Y73279D01*
X190981Y73064D01*
X190046Y72128D01*
X188280Y71397D01*
X186370Y71397D01*
X185115Y71917D01*
X185085Y71926D01*
X185057Y71940D01*
X184892Y71984D01*
X184729Y72034D01*
X184698Y72037D01*
X184696Y72037D01*
X183808Y72925D01*
X183801Y72930D01*
X183796Y72937D01*
X183648Y73056D01*
X183497Y73180D01*
X183489Y73184D01*
X183482Y73189D01*
X183312Y73278D01*
X183141Y73368D01*
X183132Y73371D01*
X183125Y73375D01*
X182940Y73428D01*
X182755Y73483D01*
X182746Y73484D01*
X182738Y73486D01*
X182547Y73502D01*
X182354Y73520D01*
X182345Y73519D01*
X182336Y73519D01*
X182147Y73497D01*
X181954Y73476D01*
X181945Y73473D01*
X181937Y73472D01*
X181754Y73413D01*
X181570Y73355D01*
X181562Y73350D01*
X181554Y73348D01*
X181387Y73253D01*
X181218Y73160D01*
X181211Y73154D01*
X181203Y73150D01*
X181058Y73024D01*
X180911Y72899D01*
X180905Y72892D01*
X180898Y72886D01*
X180781Y72735D01*
X180661Y72583D01*
X180657Y72575D01*
X180652Y72568D01*
X180566Y72396D01*
X180479Y72224D01*
X180476Y72216D01*
X180472Y72208D01*
X180423Y72022D01*
X180371Y71837D01*
X180370Y71828D01*
X180368Y71819D01*
X180341Y71488D01*
X180341Y56098D01*
X178852Y54609D01*
X178111Y54609D01*
X178097Y54608D01*
X178084Y54609D01*
X177898Y54588D01*
X177710Y54569D01*
X177697Y54565D01*
X177684Y54564D01*
X177505Y54506D01*
X177325Y54451D01*
X177313Y54445D01*
X177300Y54441D01*
X177136Y54349D01*
X176971Y54259D01*
X176961Y54251D01*
X176949Y54244D01*
X176806Y54122D01*
X176662Y54002D01*
X176653Y53991D01*
X176643Y53982D01*
X176527Y53834D01*
X176409Y53688D01*
X176403Y53676D01*
X176395Y53665D01*
X176310Y53497D01*
X176224Y53331D01*
X176220Y53318D01*
X176214Y53306D01*
X176164Y53123D01*
X176112Y52944D01*
X176111Y52930D01*
X176108Y52917D01*
X176095Y52730D01*
X176080Y52542D01*
X176081Y52529D01*
X176080Y52516D01*
X176105Y52329D01*
X176127Y52143D01*
X176131Y52130D01*
X176132Y52116D01*
X176234Y51801D01*
X176253Y51755D01*
X176253Y50432D01*
X176255Y50405D01*
X176253Y50378D01*
X176275Y50204D01*
X176293Y50031D01*
X176300Y50006D01*
X176304Y49979D01*
X176360Y49813D01*
X176411Y49646D01*
X176424Y49623D01*
X176432Y49597D01*
X176519Y49446D01*
X176603Y49292D01*
X176620Y49272D01*
X176633Y49248D01*
X176848Y48995D01*
X181432Y44411D01*
X181453Y44394D01*
X181471Y44373D01*
X181608Y44267D01*
X181744Y44156D01*
X181768Y44143D01*
X181789Y44127D01*
X181945Y44049D01*
X182100Y43967D01*
X182125Y43959D01*
X182149Y43947D01*
X182318Y43902D01*
X182486Y43852D01*
X182512Y43850D01*
X182538Y43843D01*
X182869Y43816D01*
X261607Y43816D01*
X261634Y43818D01*
G37*
%LPC*%
G36*
X47063Y157063D02*
X47063Y157063D01*
X47063Y183994D01*
X47590Y183942D01*
X50601Y183343D01*
X53538Y182452D01*
X56374Y181277D01*
X59082Y179830D01*
X61634Y178125D01*
X64007Y176177D01*
X66177Y174007D01*
X68125Y171634D01*
X69830Y169082D01*
X71277Y166374D01*
X72452Y163538D01*
X73343Y160601D01*
X73942Y157590D01*
X73994Y157063D01*
X47063Y157063D01*
G37*
%LPD*%
%LPC*%
G36*
X335063Y52063D02*
X335063Y52063D01*
X335063Y78994D01*
X335590Y78942D01*
X338601Y78343D01*
X341538Y77452D01*
X344374Y76277D01*
X347082Y74830D01*
X349634Y73125D01*
X352007Y71177D01*
X354177Y69007D01*
X356125Y66634D01*
X357830Y64082D01*
X359277Y61374D01*
X360452Y58538D01*
X361343Y55601D01*
X361942Y52590D01*
X361994Y52063D01*
X335063Y52063D01*
G37*
%LPD*%
%LPC*%
G36*
X12006Y157063D02*
X12006Y157063D01*
X12058Y157590D01*
X12657Y160601D01*
X13548Y163538D01*
X14723Y166374D01*
X16170Y169082D01*
X17875Y171634D01*
X19823Y174007D01*
X21993Y176177D01*
X24366Y178125D01*
X26918Y179830D01*
X29626Y181277D01*
X32462Y182452D01*
X35399Y183343D01*
X38410Y183942D01*
X38937Y183994D01*
X38937Y157063D01*
X12006Y157063D01*
G37*
%LPD*%
%LPC*%
G36*
X47063Y148937D02*
X47063Y148937D01*
X73994Y148937D01*
X73942Y148410D01*
X73343Y145399D01*
X72452Y142462D01*
X71277Y139626D01*
X69830Y136918D01*
X68125Y134366D01*
X66177Y131993D01*
X64007Y129823D01*
X61634Y127875D01*
X59082Y126170D01*
X56374Y124723D01*
X53538Y123548D01*
X50601Y122657D01*
X47590Y122058D01*
X47063Y122006D01*
X47063Y148937D01*
G37*
%LPD*%
%LPC*%
G36*
X300006Y52063D02*
X300006Y52063D01*
X300058Y52590D01*
X300657Y55601D01*
X301548Y58538D01*
X302723Y61374D01*
X304170Y64082D01*
X305875Y66634D01*
X307823Y69007D01*
X309993Y71177D01*
X312366Y73125D01*
X314918Y74830D01*
X317626Y76277D01*
X320462Y77452D01*
X323399Y78343D01*
X326410Y78942D01*
X326937Y78994D01*
X326937Y52063D01*
X300006Y52063D01*
G37*
%LPD*%
%LPC*%
G36*
X335063Y43937D02*
X335063Y43937D01*
X361994Y43937D01*
X361942Y43410D01*
X361343Y40399D01*
X360452Y37462D01*
X359277Y34626D01*
X357830Y31918D01*
X356125Y29366D01*
X354177Y26993D01*
X352007Y24823D01*
X349634Y22875D01*
X347082Y21170D01*
X344374Y19723D01*
X341538Y18548D01*
X338601Y17657D01*
X335590Y17058D01*
X335063Y17006D01*
X335063Y43937D01*
G37*
%LPD*%
%LPC*%
G36*
X38410Y122058D02*
X38410Y122058D01*
X35399Y122657D01*
X32462Y123548D01*
X29626Y124723D01*
X26918Y126170D01*
X24366Y127875D01*
X21993Y129823D01*
X19823Y131993D01*
X17875Y134366D01*
X16170Y136918D01*
X14723Y139626D01*
X13548Y142462D01*
X12657Y145399D01*
X12058Y148410D01*
X12006Y148937D01*
X38937Y148937D01*
X38937Y122006D01*
X38410Y122058D01*
G37*
%LPD*%
%LPC*%
G36*
X326410Y17058D02*
X326410Y17058D01*
X323399Y17657D01*
X320462Y18548D01*
X317626Y19723D01*
X314918Y21170D01*
X312366Y22875D01*
X309993Y24823D01*
X307823Y26993D01*
X305875Y29366D01*
X304170Y31918D01*
X302723Y34626D01*
X301548Y37462D01*
X300657Y40399D01*
X300058Y43410D01*
X300006Y43937D01*
X326937Y43937D01*
X326937Y17006D01*
X326410Y17058D01*
G37*
%LPD*%
%LPC*%
G36*
X447811Y154859D02*
X447811Y154859D01*
X444544Y156213D01*
X442043Y158714D01*
X440689Y161981D01*
X440689Y165519D01*
X442043Y168786D01*
X444544Y171287D01*
X447811Y172641D01*
X466589Y172641D01*
X469856Y171287D01*
X472357Y168786D01*
X473711Y165519D01*
X473711Y161981D01*
X472357Y158714D01*
X469856Y156213D01*
X466589Y154859D01*
X447811Y154859D01*
G37*
%LPD*%
%LPC*%
G36*
X397011Y154859D02*
X397011Y154859D01*
X393744Y156213D01*
X391243Y158714D01*
X389889Y161981D01*
X389889Y165519D01*
X391243Y168786D01*
X393744Y171287D01*
X397011Y172641D01*
X415789Y172641D01*
X419056Y171287D01*
X421557Y168786D01*
X422911Y165519D01*
X422911Y161981D01*
X421557Y158714D01*
X419056Y156213D01*
X415789Y154859D01*
X397011Y154859D01*
G37*
%LPD*%
%LPC*%
G36*
X447811Y104059D02*
X447811Y104059D01*
X444544Y105413D01*
X442043Y107914D01*
X440689Y111181D01*
X440689Y114719D01*
X442043Y117986D01*
X444544Y120487D01*
X447811Y121841D01*
X466589Y121841D01*
X469856Y120487D01*
X472357Y117986D01*
X473711Y114719D01*
X473711Y111181D01*
X472357Y107914D01*
X469856Y105413D01*
X466589Y104059D01*
X447811Y104059D01*
G37*
%LPD*%
%LPC*%
G36*
X447811Y78659D02*
X447811Y78659D01*
X444544Y80013D01*
X442043Y82514D01*
X440689Y85781D01*
X440689Y89319D01*
X442043Y92586D01*
X444544Y95087D01*
X447811Y96441D01*
X466589Y96441D01*
X469856Y95087D01*
X472357Y92586D01*
X473711Y89319D01*
X473711Y85781D01*
X472357Y82514D01*
X469856Y80013D01*
X466589Y78659D01*
X447811Y78659D01*
G37*
%LPD*%
%LPC*%
G36*
X447811Y53259D02*
X447811Y53259D01*
X444544Y54613D01*
X442043Y57114D01*
X440689Y60381D01*
X440689Y63919D01*
X442043Y67186D01*
X444544Y69687D01*
X447811Y71041D01*
X466589Y71041D01*
X469856Y69687D01*
X472357Y67186D01*
X473711Y63919D01*
X473711Y60381D01*
X472357Y57114D01*
X469856Y54613D01*
X466589Y53259D01*
X447811Y53259D01*
G37*
%LPD*%
%LPC*%
G36*
X447811Y27859D02*
X447811Y27859D01*
X444544Y29213D01*
X442043Y31714D01*
X440689Y34981D01*
X440689Y38519D01*
X442043Y41786D01*
X444544Y44287D01*
X445892Y44846D01*
X447811Y45641D01*
X466589Y45641D01*
X469856Y44287D01*
X472357Y41786D01*
X473711Y38519D01*
X473711Y34981D01*
X472357Y31714D01*
X469856Y29213D01*
X466589Y27859D01*
X447811Y27859D01*
G37*
%LPD*%
%LPC*%
G36*
X397011Y27859D02*
X397011Y27859D01*
X393744Y29213D01*
X391243Y31714D01*
X389889Y34981D01*
X389889Y38519D01*
X391243Y41786D01*
X393744Y44287D01*
X395092Y44846D01*
X397011Y45641D01*
X415789Y45641D01*
X419056Y44287D01*
X421557Y41786D01*
X422911Y38519D01*
X422911Y34981D01*
X421557Y31714D01*
X419056Y29213D01*
X415789Y27859D01*
X397011Y27859D01*
G37*
%LPD*%
%LPC*%
G36*
X167131Y170100D02*
X167131Y170100D01*
X167131Y182957D01*
X167309Y182922D01*
X168687Y182351D01*
X169927Y181522D01*
X170552Y180897D01*
X170566Y180886D01*
X170578Y180872D01*
X170722Y180758D01*
X170864Y180642D01*
X170880Y180633D01*
X170894Y180622D01*
X171057Y180539D01*
X171220Y180453D01*
X171237Y180448D01*
X171253Y180440D01*
X171429Y180391D01*
X171606Y180338D01*
X171623Y180337D01*
X171641Y180332D01*
X171823Y180319D01*
X172007Y180302D01*
X172024Y180304D01*
X172042Y180303D01*
X172224Y180326D01*
X172407Y180345D01*
X172424Y180351D01*
X172442Y180353D01*
X172616Y180412D01*
X172791Y180467D01*
X172806Y180476D01*
X172823Y180481D01*
X172983Y180573D01*
X173143Y180662D01*
X173157Y180673D01*
X173172Y180682D01*
X173425Y180897D01*
X173942Y181414D01*
X176445Y182451D01*
X179155Y182451D01*
X181658Y181414D01*
X183574Y179498D01*
X184611Y176995D01*
X184611Y163205D01*
X183574Y160702D01*
X181658Y158786D01*
X179155Y157749D01*
X176445Y157749D01*
X173942Y158786D01*
X173425Y159303D01*
X173411Y159314D01*
X173400Y159328D01*
X173256Y159442D01*
X173114Y159558D01*
X173098Y159567D01*
X173084Y159578D01*
X172921Y159661D01*
X172758Y159747D01*
X172741Y159752D01*
X172725Y159760D01*
X172549Y159809D01*
X172372Y159862D01*
X172354Y159863D01*
X172337Y159868D01*
X172154Y159881D01*
X171971Y159898D01*
X171953Y159896D01*
X171935Y159897D01*
X171754Y159874D01*
X171571Y159855D01*
X171554Y159849D01*
X171536Y159847D01*
X171362Y159788D01*
X171187Y159733D01*
X171171Y159724D01*
X171154Y159719D01*
X170995Y159627D01*
X170835Y159538D01*
X170821Y159527D01*
X170805Y159518D01*
X170552Y159303D01*
X169927Y158678D01*
X168687Y157849D01*
X167309Y157278D01*
X167131Y157243D01*
X167131Y170100D01*
G37*
%LPD*%
%LPC*%
G36*
X408939Y140889D02*
X408939Y140889D01*
X408939Y148003D01*
X414780Y148003D01*
X416280Y147765D01*
X417725Y147296D01*
X419079Y146606D01*
X420308Y145713D01*
X421383Y144638D01*
X422276Y143409D01*
X422966Y142055D01*
X423344Y140889D01*
X408939Y140889D01*
G37*
%LPD*%
%LPC*%
G36*
X459739Y140889D02*
X459739Y140889D01*
X459739Y148003D01*
X465580Y148003D01*
X467080Y147765D01*
X468525Y147296D01*
X469879Y146606D01*
X471108Y145713D01*
X472183Y144638D01*
X473076Y143409D01*
X473766Y142055D01*
X474144Y140889D01*
X459739Y140889D01*
G37*
%LPD*%
%LPC*%
G36*
X389456Y140889D02*
X389456Y140889D01*
X389834Y142055D01*
X390524Y143409D01*
X391417Y144638D01*
X392492Y145713D01*
X393721Y146606D01*
X395075Y147296D01*
X396520Y147765D01*
X398020Y148003D01*
X403861Y148003D01*
X403861Y140889D01*
X389456Y140889D01*
G37*
%LPD*%
%LPC*%
G36*
X440256Y140889D02*
X440256Y140889D01*
X440634Y142055D01*
X441324Y143409D01*
X442217Y144638D01*
X443292Y145713D01*
X444521Y146606D01*
X445875Y147296D01*
X447320Y147765D01*
X448820Y148003D01*
X454661Y148003D01*
X454661Y140889D01*
X440256Y140889D01*
G37*
%LPD*%
%LPC*%
G36*
X459739Y128697D02*
X459739Y128697D01*
X459739Y135811D01*
X474144Y135811D01*
X473766Y134645D01*
X473076Y133291D01*
X472183Y132062D01*
X471108Y130987D01*
X469879Y130094D01*
X468525Y129404D01*
X467080Y128935D01*
X465580Y128697D01*
X459739Y128697D01*
G37*
%LPD*%
%LPC*%
G36*
X408939Y128697D02*
X408939Y128697D01*
X408939Y135811D01*
X423344Y135811D01*
X422966Y134645D01*
X422276Y133291D01*
X421383Y132062D01*
X420308Y130987D01*
X419079Y130094D01*
X417725Y129404D01*
X416280Y128935D01*
X414780Y128697D01*
X408939Y128697D01*
G37*
%LPD*%
%LPC*%
G36*
X448820Y128697D02*
X448820Y128697D01*
X447320Y128935D01*
X445875Y129404D01*
X444521Y130094D01*
X443292Y130987D01*
X442217Y132062D01*
X441324Y133291D01*
X440634Y134645D01*
X440256Y135811D01*
X454661Y135811D01*
X454661Y128697D01*
X448820Y128697D01*
G37*
%LPD*%
%LPC*%
G36*
X398020Y128697D02*
X398020Y128697D01*
X396520Y128935D01*
X395075Y129404D01*
X393721Y130094D01*
X392492Y130987D01*
X391417Y132062D01*
X390524Y133291D01*
X389834Y134645D01*
X389456Y135811D01*
X403861Y135811D01*
X403861Y128697D01*
X398020Y128697D01*
G37*
%LPD*%
%LPC*%
G36*
X345439Y115489D02*
X345439Y115489D01*
X345439Y122603D01*
X346898Y122603D01*
X352553Y116948D01*
X352553Y115489D01*
X345439Y115489D01*
G37*
%LPD*%
%LPC*%
G36*
X333247Y115489D02*
X333247Y115489D01*
X333247Y116948D01*
X338902Y122603D01*
X340361Y122603D01*
X340361Y115489D01*
X333247Y115489D01*
G37*
%LPD*%
%LPC*%
G36*
X345439Y103297D02*
X345439Y103297D01*
X345439Y110411D01*
X352553Y110411D01*
X352553Y108952D01*
X346898Y103297D01*
X345439Y103297D01*
G37*
%LPD*%
%LPC*%
G36*
X338902Y103297D02*
X338902Y103297D01*
X333247Y108952D01*
X333247Y110411D01*
X340361Y110411D01*
X340361Y103297D01*
X338902Y103297D01*
G37*
%LPD*%
%LPC*%
G36*
X42999Y152999D02*
X42999Y152999D01*
X42999Y153001D01*
X43001Y153001D01*
X43001Y152999D01*
X42999Y152999D01*
G37*
%LPD*%
%LPC*%
G36*
X330999Y47999D02*
X330999Y47999D01*
X330999Y48001D01*
X331001Y48001D01*
X331001Y47999D01*
X330999Y47999D01*
G37*
%LPD*%
D10*
X177800Y164560D02*
X177800Y175640D01*
X165100Y175640D02*
X165100Y164560D01*
X152400Y164560D02*
X152400Y175640D01*
D11*
X398780Y163750D02*
X414020Y163750D01*
X414020Y138350D02*
X398780Y138350D01*
X398780Y112950D02*
X414020Y112950D01*
X414020Y87550D02*
X398780Y87550D01*
X398780Y62150D02*
X414020Y62150D01*
X414020Y36750D02*
X398780Y36750D01*
X449580Y163750D02*
X464820Y163750D01*
X464820Y138350D02*
X449580Y138350D01*
X449580Y112950D02*
X464820Y112950D01*
X464820Y87550D02*
X449580Y87550D01*
X449580Y62150D02*
X464820Y62150D01*
X464820Y36750D02*
X449580Y36750D01*
D12*
X331000Y48000D03*
X43000Y153000D03*
D13*
X317500Y163750D03*
D14*
X317500Y138350D03*
X317500Y112950D03*
X342900Y163750D03*
X342900Y138350D03*
X342900Y112950D03*
D15*
X284163Y68263D02*
X266700Y50800D01*
X284163Y68263D02*
X296863Y68263D01*
X315913Y87313D01*
X368300Y87313D01*
X392113Y63500D01*
X406400Y63500D01*
X406400Y62150D01*
D16*
X266700Y50800D03*
X200025Y69850D03*
D17*
X215900Y133350D03*
X273050Y139700D03*
X292100Y120650D03*
X374650Y101600D03*
X381000Y139700D03*
X44450Y63500D03*
X133350Y38100D03*
X196850Y31750D03*
X215900Y19050D03*
X260350Y25400D03*
X292100Y95250D03*
X152400Y12700D03*
X120650Y6350D03*
X177800Y127000D03*
X203200Y177800D03*
D15*
X187325Y76200D02*
X185738Y74613D01*
X187325Y76200D02*
X260350Y76200D01*
X263525Y73025D01*
X295275Y73025D01*
X314325Y92075D01*
X360363Y92075D02*
X392113Y92075D01*
X360363Y92075D02*
X314325Y92075D01*
X392113Y92075D02*
X395288Y88900D01*
X406400Y88900D01*
X406400Y87550D01*
X360363Y120650D02*
X342900Y138113D01*
X360363Y120650D02*
X360363Y92075D01*
X342900Y138113D02*
X342900Y138350D01*
D16*
X187325Y76200D03*
D15*
X403225Y117475D02*
X406400Y114300D01*
X403225Y117475D02*
X385763Y117475D01*
X354013Y149225D01*
X327025Y149225D01*
X317500Y139700D01*
X406400Y114300D02*
X406400Y112950D01*
X317500Y138350D02*
X317500Y139700D01*
X180975Y41275D02*
X171450Y50800D01*
X180975Y41275D02*
X266700Y41275D01*
D16*
X171450Y50800D03*
X266700Y41275D03*
D15*
X266700Y79375D02*
X263525Y82550D01*
X179388Y82550D01*
X178594Y81756D02*
X177800Y80963D01*
X178594Y81756D02*
X179388Y82550D01*
X266700Y79375D02*
X269875Y82550D01*
X177800Y82550D02*
X177800Y57150D01*
X168275Y57150D01*
X123825Y101600D01*
X177800Y82550D02*
X178594Y81756D01*
D16*
X269875Y82550D03*
X123825Y101600D03*
D15*
X189706Y111919D02*
X190500Y112713D01*
X189706Y111919D02*
X188913Y111125D01*
X190500Y112713D02*
X317500Y112713D01*
X317500Y112950D01*
X190500Y111125D02*
X189706Y111919D01*
D16*
X190500Y111125D03*
D15*
X271463Y117475D02*
X317500Y163513D01*
X271463Y117475D02*
X185738Y117475D01*
X171450Y103188D01*
X171450Y69850D02*
X171450Y68263D01*
X171450Y69850D02*
X171450Y103188D01*
X317500Y163513D02*
X317500Y163750D01*
D16*
X171450Y69850D03*
D15*
X239713Y149225D02*
X264319Y124619D01*
X265113Y123825D01*
X239713Y149225D02*
X160338Y149225D01*
X150813Y158750D01*
X150813Y169863D01*
X152400Y169863D01*
X152400Y170100D01*
X263525Y123825D02*
X264319Y124619D01*
D16*
X263525Y123825D03*
M02*
