M48
;GenerationSoftware,Autodesk,EAGLE,9.6.2*%
;CreationDate,2021-04-23T17:41:42Z*%
FMAT,2
ICI,OFF
METRIC,TZ,000.000
T5C0.300
T4C0.350
T3C0.600
T2C1.016
T1C3.000
%
G90
M71
T1
X33100Y4800
X4300Y15300
T2
X31750Y13835
X31750Y16375
X45720Y11295
X45720Y13835
X45720Y16375
X40640Y3675
X40640Y6215
X40640Y8755
X40640Y11295
X40640Y13835
X40640Y16375
X45720Y6215
X45720Y3675
X34290Y11295
X34290Y13835
X34290Y16375
X31750Y11295
X45720Y8755
T3
X17780Y17010
X16510Y17010
X15240Y17010
T4
X21590Y13335
X20320Y17780
X17780Y12700
X12065Y635
X15240Y1270
X29210Y9525
X26035Y2540
X21590Y1905
X19685Y3175
X13335Y3810
X4445Y6350
X38100Y13970
X37465Y10160
X29210Y12065
X27305Y13970
T5
X26670Y5080
X17145Y6985
X19050Y11112
X12382Y10160
X26987Y8255
X26035Y3492
X17145Y5080
X18733Y7620
X20003Y6985
X26352Y12382
M30