G04 EAGLE Gerber RS-274X export*
G75*
%MOMM*%
%FSLAX34Y34*%
%LPD*%
%INTop Copper*%
%IPPOS*%
%AMOC8*
5,1,8,0,0,1.08239X$1,22.5*%
G01*
%ADD10C,1.108000*%
%ADD11C,1.524000*%
%ADD12C,5.842000*%
%ADD13C,1.524000*%
%ADD14P,1.649562X8X292.500000*%
%ADD15R,0.500000X2.200000*%
%ADD16R,0.700000X0.600000*%
%ADD17R,0.900000X0.700000*%
%ADD18R,1.300000X1.550000*%
%ADD19R,0.911800X0.611800*%
%ADD20C,0.254000*%
%ADD21C,0.706400*%
%ADD22C,0.756400*%

G36*
X500018Y-2029D02*
X500018Y-2029D01*
X500036Y-2031D01*
X500218Y-2010D01*
X500401Y-1991D01*
X500418Y-1986D01*
X500435Y-1984D01*
X500610Y-1927D01*
X500786Y-1873D01*
X500801Y-1865D01*
X500818Y-1859D01*
X500978Y-1769D01*
X501140Y-1681D01*
X501153Y-1670D01*
X501169Y-1661D01*
X501308Y-1541D01*
X501449Y-1424D01*
X501460Y-1410D01*
X501474Y-1398D01*
X501586Y-1253D01*
X501701Y-1110D01*
X501709Y-1094D01*
X501720Y-1080D01*
X501802Y-915D01*
X501887Y-753D01*
X501892Y-736D01*
X501900Y-720D01*
X501947Y-541D01*
X501998Y-366D01*
X502000Y-348D01*
X502004Y-331D01*
X502031Y0D01*
X502031Y200000D01*
X502029Y200018D01*
X502031Y200036D01*
X502010Y200218D01*
X501991Y200401D01*
X501986Y200418D01*
X501984Y200435D01*
X501927Y200610D01*
X501873Y200786D01*
X501865Y200801D01*
X501859Y200818D01*
X501769Y200978D01*
X501681Y201140D01*
X501670Y201153D01*
X501661Y201169D01*
X501541Y201308D01*
X501424Y201449D01*
X501410Y201460D01*
X501398Y201474D01*
X501253Y201586D01*
X501110Y201701D01*
X501094Y201709D01*
X501080Y201720D01*
X500915Y201802D01*
X500753Y201887D01*
X500736Y201892D01*
X500720Y201900D01*
X500541Y201947D01*
X500366Y201998D01*
X500348Y202000D01*
X500331Y202004D01*
X500000Y202031D01*
X0Y202031D01*
X-18Y202029D01*
X-36Y202031D01*
X-218Y202010D01*
X-401Y201991D01*
X-418Y201986D01*
X-435Y201984D01*
X-610Y201927D01*
X-786Y201873D01*
X-801Y201865D01*
X-818Y201859D01*
X-978Y201769D01*
X-1140Y201681D01*
X-1153Y201670D01*
X-1169Y201661D01*
X-1308Y201541D01*
X-1449Y201424D01*
X-1460Y201410D01*
X-1474Y201398D01*
X-1586Y201253D01*
X-1701Y201110D01*
X-1709Y201094D01*
X-1720Y201080D01*
X-1802Y200915D01*
X-1887Y200753D01*
X-1892Y200736D01*
X-1900Y200720D01*
X-1947Y200541D01*
X-1998Y200366D01*
X-2000Y200348D01*
X-2004Y200331D01*
X-2031Y200000D01*
X-2031Y0D01*
X-2029Y-18D01*
X-2031Y-36D01*
X-2010Y-218D01*
X-1991Y-401D01*
X-1986Y-418D01*
X-1984Y-435D01*
X-1927Y-610D01*
X-1873Y-786D01*
X-1865Y-801D01*
X-1859Y-818D01*
X-1769Y-978D01*
X-1681Y-1140D01*
X-1670Y-1153D01*
X-1661Y-1169D01*
X-1541Y-1308D01*
X-1424Y-1449D01*
X-1410Y-1460D01*
X-1398Y-1474D01*
X-1253Y-1586D01*
X-1110Y-1701D01*
X-1094Y-1709D01*
X-1080Y-1720D01*
X-915Y-1802D01*
X-753Y-1887D01*
X-736Y-1892D01*
X-720Y-1900D01*
X-541Y-1947D01*
X-366Y-1998D01*
X-348Y-2000D01*
X-331Y-2004D01*
X0Y-2031D01*
X500000Y-2031D01*
X500018Y-2029D01*
G37*
%LPC*%
G36*
X148173Y3809D02*
X148173Y3809D01*
X108890Y43092D01*
X108869Y43109D01*
X108851Y43130D01*
X108713Y43237D01*
X108578Y43347D01*
X108554Y43360D01*
X108533Y43376D01*
X108376Y43454D01*
X108222Y43536D01*
X108197Y43544D01*
X108173Y43556D01*
X108003Y43601D01*
X107836Y43651D01*
X107810Y43653D01*
X107784Y43660D01*
X107453Y43687D01*
X88584Y43687D01*
X88137Y44134D01*
X88137Y82866D01*
X88584Y83313D01*
X139586Y83313D01*
X139604Y83315D01*
X139622Y83313D01*
X139804Y83334D01*
X139987Y83353D01*
X140004Y83358D01*
X140021Y83360D01*
X140196Y83417D01*
X140372Y83471D01*
X140387Y83479D01*
X140404Y83485D01*
X140564Y83575D01*
X140726Y83663D01*
X140739Y83674D01*
X140755Y83683D01*
X140894Y83803D01*
X141035Y83920D01*
X141046Y83934D01*
X141060Y83946D01*
X141172Y84091D01*
X141287Y84234D01*
X141295Y84250D01*
X141306Y84264D01*
X141388Y84429D01*
X141473Y84591D01*
X141478Y84608D01*
X141486Y84624D01*
X141533Y84803D01*
X141584Y84978D01*
X141586Y84996D01*
X141590Y85013D01*
X141617Y85344D01*
X141617Y93009D01*
X146150Y93009D01*
X150683Y93009D01*
X150683Y85344D01*
X150685Y85326D01*
X150683Y85308D01*
X150704Y85126D01*
X150723Y84943D01*
X150728Y84926D01*
X150730Y84909D01*
X150787Y84734D01*
X150841Y84558D01*
X150849Y84543D01*
X150855Y84526D01*
X150945Y84366D01*
X151033Y84204D01*
X151044Y84191D01*
X151053Y84175D01*
X151173Y84036D01*
X151290Y83895D01*
X151304Y83884D01*
X151316Y83870D01*
X151461Y83758D01*
X151604Y83643D01*
X151620Y83635D01*
X151634Y83624D01*
X151799Y83542D01*
X151961Y83457D01*
X151978Y83452D01*
X151994Y83444D01*
X152173Y83397D01*
X152348Y83346D01*
X152366Y83344D01*
X152383Y83340D01*
X152714Y83313D01*
X153048Y83313D01*
X153066Y83315D01*
X153084Y83313D01*
X153266Y83334D01*
X153449Y83353D01*
X153466Y83358D01*
X153483Y83360D01*
X153658Y83417D01*
X153834Y83471D01*
X153849Y83479D01*
X153866Y83485D01*
X154026Y83575D01*
X154188Y83663D01*
X154201Y83674D01*
X154217Y83683D01*
X154356Y83803D01*
X154497Y83920D01*
X154508Y83934D01*
X154522Y83946D01*
X154634Y84091D01*
X154749Y84234D01*
X154757Y84250D01*
X154768Y84264D01*
X154850Y84429D01*
X154935Y84591D01*
X154940Y84608D01*
X154948Y84624D01*
X154995Y84803D01*
X155046Y84978D01*
X155048Y84996D01*
X155052Y85013D01*
X155079Y85344D01*
X155079Y106566D01*
X155824Y107311D01*
X161876Y107311D01*
X162621Y106566D01*
X162621Y85344D01*
X162623Y85326D01*
X162621Y85308D01*
X162642Y85126D01*
X162661Y84943D01*
X162666Y84926D01*
X162668Y84909D01*
X162725Y84734D01*
X162779Y84558D01*
X162787Y84543D01*
X162793Y84526D01*
X162883Y84366D01*
X162971Y84204D01*
X162982Y84191D01*
X162991Y84175D01*
X163111Y84036D01*
X163228Y83895D01*
X163242Y83884D01*
X163254Y83870D01*
X163399Y83758D01*
X163542Y83643D01*
X163558Y83635D01*
X163572Y83624D01*
X163737Y83542D01*
X163899Y83457D01*
X163916Y83452D01*
X163932Y83444D01*
X164111Y83397D01*
X164286Y83346D01*
X164304Y83344D01*
X164321Y83340D01*
X164652Y83313D01*
X165748Y83313D01*
X165766Y83315D01*
X165784Y83313D01*
X165966Y83334D01*
X166149Y83353D01*
X166166Y83358D01*
X166183Y83360D01*
X166358Y83417D01*
X166534Y83471D01*
X166549Y83479D01*
X166566Y83485D01*
X166726Y83575D01*
X166888Y83663D01*
X166901Y83674D01*
X166917Y83683D01*
X167056Y83803D01*
X167197Y83920D01*
X167208Y83934D01*
X167222Y83946D01*
X167334Y84091D01*
X167449Y84234D01*
X167457Y84250D01*
X167468Y84264D01*
X167550Y84429D01*
X167635Y84591D01*
X167640Y84608D01*
X167648Y84624D01*
X167695Y84803D01*
X167746Y84978D01*
X167748Y84996D01*
X167752Y85013D01*
X167779Y85344D01*
X167779Y107186D01*
X167777Y107213D01*
X167779Y107240D01*
X167757Y107414D01*
X167739Y107587D01*
X167732Y107612D01*
X167728Y107639D01*
X167672Y107805D01*
X167621Y107972D01*
X167608Y107995D01*
X167600Y108021D01*
X167513Y108172D01*
X167429Y108326D01*
X167412Y108346D01*
X167399Y108370D01*
X167184Y108623D01*
X161468Y114339D01*
X161447Y114356D01*
X161429Y114377D01*
X161291Y114484D01*
X161156Y114594D01*
X161132Y114607D01*
X161111Y114623D01*
X160954Y114701D01*
X160800Y114783D01*
X160775Y114791D01*
X160751Y114803D01*
X160581Y114848D01*
X160414Y114898D01*
X160388Y114900D01*
X160362Y114907D01*
X160031Y114934D01*
X144769Y114934D01*
X144742Y114932D01*
X144715Y114934D01*
X144542Y114912D01*
X144368Y114894D01*
X144343Y114887D01*
X144316Y114883D01*
X144151Y114828D01*
X143983Y114776D01*
X143960Y114763D01*
X143934Y114755D01*
X143783Y114668D01*
X143629Y114584D01*
X143609Y114567D01*
X143586Y114554D01*
X143332Y114339D01*
X139726Y110733D01*
X139638Y110626D01*
X139545Y110526D01*
X139511Y110471D01*
X139471Y110421D01*
X139406Y110300D01*
X139405Y110298D01*
X139330Y110248D01*
X139210Y110179D01*
X139154Y110131D01*
X139109Y110101D01*
X139052Y110045D01*
X138957Y109964D01*
X131227Y102234D01*
X130643Y102234D01*
X130621Y102232D01*
X130599Y102234D01*
X130422Y102212D01*
X130243Y102194D01*
X130221Y102188D01*
X130199Y102185D01*
X130030Y102129D01*
X129858Y102076D01*
X129838Y102066D01*
X129817Y102059D01*
X129661Y101970D01*
X129504Y101884D01*
X129487Y101870D01*
X129467Y101859D01*
X129331Y101741D01*
X129195Y101627D01*
X129181Y101609D01*
X129164Y101595D01*
X129054Y101453D01*
X128942Y101313D01*
X128932Y101293D01*
X128918Y101275D01*
X128767Y100980D01*
X127897Y98879D01*
X126546Y97528D01*
X124780Y96797D01*
X122870Y96797D01*
X121104Y97528D01*
X119753Y98879D01*
X118883Y100980D01*
X118873Y101000D01*
X118866Y101021D01*
X118778Y101177D01*
X118693Y101335D01*
X118679Y101352D01*
X118668Y101372D01*
X118551Y101507D01*
X118437Y101646D01*
X118419Y101660D01*
X118405Y101677D01*
X118263Y101786D01*
X118124Y101899D01*
X118104Y101910D01*
X118087Y101923D01*
X117926Y102003D01*
X117767Y102086D01*
X117746Y102093D01*
X117726Y102103D01*
X117552Y102149D01*
X117381Y102199D01*
X117359Y102201D01*
X117337Y102207D01*
X117007Y102234D01*
X76752Y102234D01*
X76734Y102232D01*
X76716Y102234D01*
X76534Y102213D01*
X76351Y102194D01*
X76334Y102189D01*
X76317Y102187D01*
X76142Y102130D01*
X75966Y102076D01*
X75951Y102068D01*
X75934Y102062D01*
X75774Y101972D01*
X75612Y101884D01*
X75599Y101873D01*
X75583Y101864D01*
X75444Y101744D01*
X75303Y101627D01*
X75292Y101613D01*
X75278Y101601D01*
X75166Y101456D01*
X75051Y101313D01*
X75043Y101297D01*
X75032Y101283D01*
X74950Y101118D01*
X74865Y100956D01*
X74860Y100939D01*
X74852Y100923D01*
X74804Y100744D01*
X74754Y100569D01*
X74752Y100551D01*
X74748Y100534D01*
X74721Y100203D01*
X74721Y94974D01*
X73976Y94229D01*
X59924Y94229D01*
X59179Y94974D01*
X59179Y111526D01*
X59924Y112271D01*
X73976Y112271D01*
X74721Y111526D01*
X74721Y109347D01*
X74723Y109329D01*
X74721Y109311D01*
X74742Y109129D01*
X74761Y108946D01*
X74766Y108929D01*
X74768Y108912D01*
X74825Y108737D01*
X74879Y108561D01*
X74887Y108546D01*
X74893Y108529D01*
X74983Y108369D01*
X75071Y108207D01*
X75082Y108194D01*
X75091Y108178D01*
X75211Y108039D01*
X75328Y107898D01*
X75342Y107887D01*
X75354Y107873D01*
X75499Y107761D01*
X75642Y107646D01*
X75658Y107638D01*
X75672Y107627D01*
X75837Y107545D01*
X75999Y107460D01*
X76016Y107455D01*
X76032Y107447D01*
X76211Y107400D01*
X76386Y107349D01*
X76404Y107347D01*
X76421Y107343D01*
X76752Y107316D01*
X128281Y107316D01*
X128308Y107318D01*
X128335Y107316D01*
X128508Y107338D01*
X128682Y107356D01*
X128707Y107363D01*
X128734Y107367D01*
X128900Y107422D01*
X129067Y107474D01*
X129090Y107487D01*
X129116Y107495D01*
X129267Y107582D01*
X129421Y107666D01*
X129441Y107683D01*
X129465Y107696D01*
X129718Y107911D01*
X141823Y120016D01*
X162977Y120016D01*
X171907Y111086D01*
X171908Y111086D01*
X173991Y109002D01*
X173991Y108738D01*
X173993Y108711D01*
X173991Y108684D01*
X174013Y108511D01*
X174031Y108337D01*
X174038Y108312D01*
X174042Y108285D01*
X174097Y108119D01*
X174149Y107952D01*
X174162Y107929D01*
X174170Y107903D01*
X174257Y107752D01*
X174341Y107598D01*
X174358Y107578D01*
X174371Y107554D01*
X174586Y107301D01*
X175321Y106566D01*
X175321Y85344D01*
X175323Y85326D01*
X175321Y85308D01*
X175342Y85126D01*
X175361Y84943D01*
X175366Y84926D01*
X175368Y84909D01*
X175425Y84734D01*
X175479Y84558D01*
X175487Y84543D01*
X175493Y84526D01*
X175583Y84366D01*
X175671Y84204D01*
X175682Y84191D01*
X175691Y84175D01*
X175811Y84036D01*
X175928Y83895D01*
X175942Y83884D01*
X175954Y83870D01*
X176099Y83758D01*
X176242Y83643D01*
X176258Y83635D01*
X176272Y83624D01*
X176437Y83542D01*
X176599Y83457D01*
X176616Y83452D01*
X176632Y83444D01*
X176811Y83397D01*
X176986Y83346D01*
X177004Y83344D01*
X177021Y83340D01*
X177352Y83313D01*
X178348Y83313D01*
X178366Y83315D01*
X178384Y83313D01*
X178566Y83334D01*
X178749Y83353D01*
X178766Y83358D01*
X178783Y83360D01*
X178958Y83417D01*
X179134Y83471D01*
X179149Y83479D01*
X179166Y83485D01*
X179326Y83575D01*
X179488Y83663D01*
X179501Y83674D01*
X179517Y83683D01*
X179656Y83803D01*
X179797Y83920D01*
X179808Y83934D01*
X179822Y83946D01*
X179934Y84091D01*
X180049Y84234D01*
X180057Y84250D01*
X180068Y84264D01*
X180150Y84429D01*
X180235Y84591D01*
X180240Y84608D01*
X180248Y84624D01*
X180295Y84803D01*
X180346Y84978D01*
X180348Y84996D01*
X180352Y85013D01*
X180379Y85344D01*
X180379Y106566D01*
X181124Y107311D01*
X182251Y107311D01*
X182278Y107313D01*
X182305Y107311D01*
X182478Y107333D01*
X182652Y107351D01*
X182677Y107358D01*
X182704Y107362D01*
X182870Y107417D01*
X183037Y107469D01*
X183060Y107482D01*
X183086Y107490D01*
X183237Y107577D01*
X183391Y107661D01*
X183411Y107678D01*
X183435Y107691D01*
X183688Y107906D01*
X185102Y109320D01*
X185119Y109341D01*
X185140Y109359D01*
X185247Y109497D01*
X185357Y109632D01*
X185370Y109656D01*
X185386Y109677D01*
X185464Y109834D01*
X185546Y109988D01*
X185554Y110013D01*
X185566Y110037D01*
X185611Y110207D01*
X185661Y110374D01*
X185663Y110400D01*
X185670Y110426D01*
X185697Y110757D01*
X185697Y112080D01*
X186428Y113846D01*
X187779Y115197D01*
X189545Y115928D01*
X191455Y115928D01*
X191501Y115909D01*
X191514Y115905D01*
X191525Y115899D01*
X191706Y115847D01*
X191886Y115793D01*
X191899Y115791D01*
X191912Y115788D01*
X192101Y115772D01*
X192287Y115754D01*
X192300Y115756D01*
X192314Y115755D01*
X192500Y115777D01*
X192687Y115796D01*
X192700Y115800D01*
X192713Y115802D01*
X192891Y115860D01*
X193072Y115916D01*
X193083Y115922D01*
X193096Y115926D01*
X193260Y116019D01*
X193425Y116109D01*
X193435Y116118D01*
X193447Y116124D01*
X193589Y116247D01*
X193733Y116368D01*
X193741Y116379D01*
X193752Y116387D01*
X193866Y116535D01*
X193984Y116683D01*
X193990Y116695D01*
X193998Y116706D01*
X194081Y116872D01*
X194168Y117041D01*
X194172Y117054D01*
X194178Y117066D01*
X194227Y117249D01*
X194278Y117429D01*
X194279Y117442D01*
X194282Y117455D01*
X194309Y117786D01*
X194309Y147331D01*
X194307Y147358D01*
X194309Y147385D01*
X194287Y147558D01*
X194269Y147732D01*
X194262Y147757D01*
X194258Y147784D01*
X194203Y147950D01*
X194151Y148117D01*
X194138Y148140D01*
X194130Y148166D01*
X194043Y148317D01*
X193959Y148471D01*
X193942Y148491D01*
X193929Y148515D01*
X193714Y148768D01*
X184059Y158423D01*
X184041Y158437D01*
X184027Y158454D01*
X183886Y158565D01*
X183747Y158678D01*
X183727Y158689D01*
X183710Y158703D01*
X183549Y158783D01*
X183391Y158867D01*
X183370Y158873D01*
X183350Y158883D01*
X183177Y158931D01*
X183005Y158982D01*
X182983Y158984D01*
X182962Y158990D01*
X182784Y159002D01*
X182604Y159018D01*
X182582Y159016D01*
X182560Y159017D01*
X182383Y158994D01*
X182204Y158975D01*
X182183Y158968D01*
X182161Y158965D01*
X181845Y158864D01*
X179155Y157749D01*
X176445Y157749D01*
X173942Y158786D01*
X173425Y159303D01*
X173411Y159314D01*
X173400Y159328D01*
X173256Y159442D01*
X173114Y159558D01*
X173098Y159567D01*
X173084Y159578D01*
X172921Y159661D01*
X172758Y159747D01*
X172741Y159752D01*
X172725Y159760D01*
X172549Y159809D01*
X172372Y159862D01*
X172354Y159863D01*
X172337Y159868D01*
X172154Y159881D01*
X171971Y159898D01*
X171953Y159896D01*
X171935Y159897D01*
X171754Y159874D01*
X171571Y159855D01*
X171554Y159849D01*
X171536Y159847D01*
X171362Y159788D01*
X171187Y159733D01*
X171171Y159724D01*
X171154Y159719D01*
X170995Y159627D01*
X170835Y159538D01*
X170821Y159527D01*
X170805Y159518D01*
X170552Y159303D01*
X169927Y158678D01*
X168687Y157849D01*
X167309Y157278D01*
X167131Y157243D01*
X167131Y170100D01*
X167131Y182957D01*
X167309Y182922D01*
X168687Y182351D01*
X169927Y181522D01*
X170552Y180897D01*
X170566Y180886D01*
X170578Y180872D01*
X170722Y180758D01*
X170864Y180642D01*
X170880Y180633D01*
X170894Y180622D01*
X171057Y180539D01*
X171220Y180453D01*
X171237Y180448D01*
X171253Y180440D01*
X171429Y180391D01*
X171606Y180338D01*
X171623Y180337D01*
X171641Y180332D01*
X171823Y180319D01*
X172007Y180302D01*
X172024Y180304D01*
X172042Y180303D01*
X172224Y180326D01*
X172407Y180345D01*
X172424Y180351D01*
X172442Y180353D01*
X172616Y180412D01*
X172791Y180467D01*
X172806Y180476D01*
X172823Y180481D01*
X172983Y180573D01*
X173143Y180662D01*
X173157Y180673D01*
X173172Y180682D01*
X173425Y180897D01*
X173942Y181414D01*
X176445Y182451D01*
X179155Y182451D01*
X181658Y181414D01*
X183574Y179498D01*
X184611Y176995D01*
X184611Y165899D01*
X184613Y165872D01*
X184611Y165845D01*
X184633Y165672D01*
X184651Y165498D01*
X184658Y165473D01*
X184662Y165446D01*
X184717Y165280D01*
X184769Y165113D01*
X184782Y165090D01*
X184790Y165064D01*
X184877Y164913D01*
X184961Y164759D01*
X184978Y164739D01*
X184991Y164715D01*
X185206Y164462D01*
X195414Y154254D01*
X195428Y154243D01*
X195439Y154230D01*
X195583Y154116D01*
X195725Y153999D01*
X195741Y153991D01*
X195755Y153980D01*
X195919Y153896D01*
X196081Y153811D01*
X196098Y153806D01*
X196114Y153798D01*
X196291Y153748D01*
X196467Y153696D01*
X196485Y153694D01*
X196502Y153690D01*
X196685Y153676D01*
X196868Y153660D01*
X196886Y153662D01*
X196903Y153660D01*
X197085Y153683D01*
X197268Y153703D01*
X197285Y153708D01*
X197303Y153711D01*
X197476Y153769D01*
X197652Y153824D01*
X197668Y153833D01*
X197684Y153839D01*
X197844Y153931D01*
X198004Y154019D01*
X198018Y154031D01*
X198033Y154040D01*
X198286Y154254D01*
X227548Y183516D01*
X328077Y183516D01*
X330160Y181433D01*
X330161Y181432D01*
X338357Y173236D01*
X338371Y173225D01*
X338380Y173214D01*
X338387Y173209D01*
X338396Y173198D01*
X338534Y173091D01*
X338669Y172981D01*
X338693Y172968D01*
X338714Y172952D01*
X338871Y172874D01*
X339025Y172792D01*
X339050Y172784D01*
X339074Y172772D01*
X339244Y172727D01*
X339411Y172677D01*
X339437Y172675D01*
X339463Y172668D01*
X339794Y172641D01*
X346583Y172641D01*
X350988Y168236D01*
X351008Y168219D01*
X351026Y168198D01*
X351164Y168091D01*
X351299Y167981D01*
X351323Y167968D01*
X351344Y167952D01*
X351501Y167874D01*
X351655Y167792D01*
X351680Y167784D01*
X351704Y167772D01*
X351874Y167727D01*
X352041Y167677D01*
X352067Y167675D01*
X352093Y167668D01*
X352424Y167641D01*
X389411Y167641D01*
X389433Y167643D01*
X389456Y167641D01*
X389633Y167663D01*
X389812Y167681D01*
X389833Y167687D01*
X389855Y167690D01*
X390025Y167746D01*
X390197Y167799D01*
X390216Y167809D01*
X390238Y167816D01*
X390393Y167905D01*
X390551Y167991D01*
X390568Y168005D01*
X390587Y168016D01*
X390723Y168134D01*
X390860Y168248D01*
X390874Y168266D01*
X390891Y168280D01*
X391000Y168423D01*
X391112Y168562D01*
X391123Y168582D01*
X391136Y168600D01*
X391221Y168764D01*
X393744Y171287D01*
X397011Y172641D01*
X415789Y172641D01*
X419056Y171287D01*
X421582Y168762D01*
X421618Y168698D01*
X421702Y168540D01*
X421717Y168523D01*
X421728Y168503D01*
X421845Y168368D01*
X421959Y168229D01*
X421976Y168215D01*
X421991Y168198D01*
X422132Y168089D01*
X422271Y167976D01*
X422291Y167965D01*
X422309Y167952D01*
X422469Y167872D01*
X422628Y167789D01*
X422649Y167782D01*
X422669Y167772D01*
X422843Y167726D01*
X423014Y167676D01*
X423036Y167674D01*
X423058Y167668D01*
X423389Y167641D01*
X440211Y167641D01*
X440233Y167643D01*
X440256Y167641D01*
X440433Y167663D01*
X440612Y167681D01*
X440633Y167687D01*
X440655Y167690D01*
X440825Y167746D01*
X440997Y167799D01*
X441016Y167809D01*
X441038Y167816D01*
X441193Y167905D01*
X441351Y167991D01*
X441368Y168005D01*
X441387Y168016D01*
X441523Y168134D01*
X441660Y168248D01*
X441674Y168266D01*
X441691Y168280D01*
X441800Y168423D01*
X441912Y168562D01*
X441923Y168582D01*
X441936Y168600D01*
X442021Y168764D01*
X444544Y171287D01*
X447811Y172641D01*
X466589Y172641D01*
X469856Y171287D01*
X472357Y168786D01*
X473711Y165519D01*
X473711Y161981D01*
X472357Y158714D01*
X469856Y156213D01*
X466589Y154859D01*
X447811Y154859D01*
X444544Y156213D01*
X442043Y158714D01*
X440969Y161305D01*
X440959Y161325D01*
X440952Y161346D01*
X440864Y161502D01*
X440779Y161660D01*
X440765Y161677D01*
X440754Y161697D01*
X440637Y161832D01*
X440523Y161971D01*
X440505Y161985D01*
X440491Y162002D01*
X440349Y162111D01*
X440210Y162224D01*
X440190Y162235D01*
X440173Y162248D01*
X440012Y162328D01*
X439854Y162411D01*
X439832Y162418D01*
X439812Y162428D01*
X439638Y162474D01*
X439467Y162524D01*
X439445Y162526D01*
X439423Y162532D01*
X439093Y162559D01*
X424507Y162559D01*
X424485Y162557D01*
X424463Y162559D01*
X424285Y162537D01*
X424107Y162519D01*
X424085Y162513D01*
X424063Y162510D01*
X423894Y162454D01*
X423722Y162401D01*
X423702Y162391D01*
X423681Y162384D01*
X423526Y162295D01*
X423368Y162209D01*
X423351Y162195D01*
X423331Y162184D01*
X423196Y162066D01*
X423058Y161952D01*
X423045Y161934D01*
X423028Y161920D01*
X422918Y161778D01*
X422806Y161638D01*
X422796Y161618D01*
X422782Y161600D01*
X422631Y161305D01*
X421557Y158714D01*
X419056Y156213D01*
X415789Y154859D01*
X397011Y154859D01*
X393744Y156213D01*
X391243Y158714D01*
X390169Y161305D01*
X390159Y161325D01*
X390152Y161346D01*
X390064Y161502D01*
X389979Y161660D01*
X389965Y161677D01*
X389954Y161697D01*
X389837Y161832D01*
X389723Y161971D01*
X389705Y161985D01*
X389691Y162002D01*
X389549Y162111D01*
X389410Y162224D01*
X389390Y162235D01*
X389373Y162248D01*
X389212Y162328D01*
X389054Y162411D01*
X389032Y162418D01*
X389012Y162428D01*
X388838Y162474D01*
X388667Y162524D01*
X388645Y162526D01*
X388623Y162532D01*
X388293Y162559D01*
X353822Y162559D01*
X353804Y162557D01*
X353786Y162559D01*
X353604Y162538D01*
X353421Y162519D01*
X353404Y162514D01*
X353387Y162512D01*
X353212Y162455D01*
X353036Y162401D01*
X353021Y162393D01*
X353004Y162387D01*
X352844Y162297D01*
X352682Y162209D01*
X352669Y162198D01*
X352653Y162189D01*
X352514Y162069D01*
X352373Y161952D01*
X352362Y161938D01*
X352348Y161926D01*
X352236Y161781D01*
X352121Y161638D01*
X352113Y161622D01*
X352102Y161608D01*
X352020Y161443D01*
X351935Y161281D01*
X351930Y161264D01*
X351922Y161248D01*
X351875Y161069D01*
X351824Y160894D01*
X351822Y160876D01*
X351818Y160859D01*
X351791Y160528D01*
X351791Y160067D01*
X346583Y154859D01*
X339217Y154859D01*
X334009Y160067D01*
X334009Y167433D01*
X334055Y167479D01*
X334067Y167493D01*
X334080Y167504D01*
X334194Y167648D01*
X334311Y167790D01*
X334319Y167806D01*
X334330Y167820D01*
X334413Y167983D01*
X334499Y168146D01*
X334504Y168163D01*
X334512Y168179D01*
X334561Y168356D01*
X334614Y168532D01*
X334616Y168550D01*
X334620Y168567D01*
X334634Y168750D01*
X334650Y168933D01*
X334648Y168951D01*
X334650Y168968D01*
X334627Y169151D01*
X334607Y169333D01*
X334602Y169350D01*
X334599Y169368D01*
X334541Y169542D01*
X334485Y169717D01*
X334477Y169733D01*
X334471Y169750D01*
X334379Y169909D01*
X334291Y170069D01*
X334279Y170083D01*
X334270Y170098D01*
X334055Y170351D01*
X326568Y177839D01*
X326547Y177856D01*
X326529Y177877D01*
X326391Y177984D01*
X326256Y178094D01*
X326232Y178107D01*
X326211Y178123D01*
X326054Y178201D01*
X325900Y178283D01*
X325875Y178291D01*
X325851Y178303D01*
X325681Y178348D01*
X325514Y178398D01*
X325488Y178400D01*
X325462Y178407D01*
X325131Y178434D01*
X230494Y178434D01*
X230467Y178432D01*
X230440Y178434D01*
X230267Y178412D01*
X230093Y178394D01*
X230068Y178387D01*
X230041Y178383D01*
X229875Y178328D01*
X229708Y178276D01*
X229685Y178263D01*
X229659Y178255D01*
X229508Y178168D01*
X229354Y178084D01*
X229334Y178067D01*
X229310Y178054D01*
X229057Y177839D01*
X199986Y148768D01*
X199969Y148747D01*
X199948Y148729D01*
X199841Y148591D01*
X199731Y148456D01*
X199718Y148432D01*
X199702Y148411D01*
X199624Y148254D01*
X199542Y148100D01*
X199534Y148075D01*
X199522Y148051D01*
X199477Y147881D01*
X199427Y147714D01*
X199425Y147688D01*
X199418Y147662D01*
X199391Y147331D01*
X199391Y85344D01*
X199393Y85326D01*
X199391Y85308D01*
X199412Y85126D01*
X199431Y84943D01*
X199436Y84926D01*
X199438Y84909D01*
X199495Y84734D01*
X199549Y84558D01*
X199557Y84543D01*
X199563Y84526D01*
X199653Y84366D01*
X199741Y84204D01*
X199752Y84191D01*
X199761Y84175D01*
X199881Y84036D01*
X199998Y83895D01*
X200012Y83884D01*
X200024Y83870D01*
X200169Y83758D01*
X200312Y83643D01*
X200328Y83635D01*
X200342Y83624D01*
X200507Y83542D01*
X200669Y83457D01*
X200686Y83452D01*
X200702Y83444D01*
X200881Y83397D01*
X201056Y83346D01*
X201074Y83344D01*
X201091Y83340D01*
X201422Y83313D01*
X258953Y83313D01*
X258971Y83315D01*
X258989Y83313D01*
X259171Y83334D01*
X259354Y83353D01*
X259371Y83358D01*
X259388Y83360D01*
X259563Y83417D01*
X259739Y83471D01*
X259754Y83479D01*
X259771Y83485D01*
X259931Y83575D01*
X260093Y83663D01*
X260106Y83674D01*
X260122Y83683D01*
X260261Y83803D01*
X260402Y83920D01*
X260413Y83934D01*
X260427Y83946D01*
X260539Y84091D01*
X260654Y84234D01*
X260662Y84250D01*
X260673Y84264D01*
X260755Y84429D01*
X260840Y84591D01*
X260845Y84608D01*
X260853Y84624D01*
X260900Y84803D01*
X260951Y84978D01*
X260953Y84996D01*
X260957Y85013D01*
X260984Y85344D01*
X260984Y118732D01*
X260982Y118759D01*
X260984Y118786D01*
X260962Y118959D01*
X260944Y119133D01*
X260937Y119158D01*
X260933Y119185D01*
X260878Y119351D01*
X260826Y119518D01*
X260813Y119541D01*
X260805Y119567D01*
X260718Y119718D01*
X260634Y119872D01*
X260617Y119892D01*
X260604Y119916D01*
X260389Y120169D01*
X259453Y121104D01*
X258722Y122870D01*
X258722Y124780D01*
X259453Y126546D01*
X260804Y127897D01*
X262570Y128628D01*
X264480Y128628D01*
X266246Y127897D01*
X267597Y126546D01*
X268328Y124780D01*
X268328Y122870D01*
X267597Y121104D01*
X266661Y120169D01*
X266644Y120148D01*
X266623Y120130D01*
X266516Y119992D01*
X266406Y119857D01*
X266393Y119833D01*
X266377Y119812D01*
X266299Y119655D01*
X266217Y119501D01*
X266209Y119476D01*
X266197Y119452D01*
X266152Y119282D01*
X266102Y119115D01*
X266100Y119089D01*
X266093Y119063D01*
X266066Y118732D01*
X266066Y89211D01*
X266067Y89197D01*
X266066Y89184D01*
X266087Y88998D01*
X266106Y88810D01*
X266110Y88797D01*
X266111Y88784D01*
X266169Y88605D01*
X266224Y88425D01*
X266230Y88413D01*
X266234Y88400D01*
X266326Y88236D01*
X266416Y88071D01*
X266424Y88061D01*
X266431Y88049D01*
X266553Y87906D01*
X266673Y87762D01*
X266684Y87753D01*
X266693Y87743D01*
X266841Y87627D01*
X266987Y87509D01*
X266999Y87503D01*
X267010Y87495D01*
X267178Y87410D01*
X267344Y87324D01*
X267357Y87320D01*
X267369Y87314D01*
X267551Y87264D01*
X267731Y87212D01*
X267745Y87211D01*
X267758Y87208D01*
X267945Y87195D01*
X268133Y87180D01*
X268146Y87181D01*
X268159Y87180D01*
X268346Y87205D01*
X268532Y87227D01*
X268545Y87231D01*
X268559Y87232D01*
X268874Y87334D01*
X268920Y87353D01*
X270830Y87353D01*
X272596Y86622D01*
X273947Y85271D01*
X274238Y84567D01*
X274249Y84547D01*
X274256Y84526D01*
X274344Y84370D01*
X274428Y84212D01*
X274443Y84195D01*
X274453Y84175D01*
X274570Y84040D01*
X274685Y83901D01*
X274702Y83887D01*
X274717Y83870D01*
X274858Y83761D01*
X274997Y83648D01*
X275017Y83637D01*
X275035Y83624D01*
X275195Y83544D01*
X275354Y83461D01*
X275375Y83454D01*
X275395Y83444D01*
X275569Y83398D01*
X275740Y83348D01*
X275762Y83346D01*
X275784Y83340D01*
X276115Y83313D01*
X286066Y83313D01*
X286513Y82866D01*
X286513Y69585D01*
X286514Y69576D01*
X286513Y69567D01*
X286534Y69373D01*
X286553Y69184D01*
X286555Y69176D01*
X286556Y69167D01*
X286614Y68983D01*
X286671Y68799D01*
X286675Y68791D01*
X286678Y68783D01*
X286770Y68615D01*
X286863Y68445D01*
X286868Y68438D01*
X286873Y68431D01*
X286997Y68283D01*
X287120Y68136D01*
X287127Y68130D01*
X287133Y68124D01*
X287285Y68004D01*
X287434Y67884D01*
X287442Y67879D01*
X287449Y67874D01*
X287622Y67786D01*
X287791Y67698D01*
X287800Y67696D01*
X287808Y67692D01*
X287994Y67640D01*
X288178Y67587D01*
X288187Y67586D01*
X288196Y67584D01*
X288389Y67569D01*
X288580Y67554D01*
X288588Y67555D01*
X288597Y67554D01*
X288790Y67578D01*
X288979Y67601D01*
X288988Y67603D01*
X288997Y67605D01*
X289180Y67666D01*
X289362Y67726D01*
X289370Y67730D01*
X289378Y67733D01*
X289545Y67829D01*
X289713Y67923D01*
X289720Y67929D01*
X289727Y67934D01*
X289980Y68148D01*
X298489Y76657D01*
X298506Y76678D01*
X298527Y76696D01*
X298634Y76834D01*
X298744Y76969D01*
X298757Y76993D01*
X298773Y77014D01*
X298851Y77170D01*
X298933Y77325D01*
X298941Y77350D01*
X298953Y77374D01*
X298998Y77543D01*
X299048Y77711D01*
X299050Y77737D01*
X299057Y77763D01*
X299084Y78094D01*
X299084Y121702D01*
X308893Y131511D01*
X308904Y131525D01*
X308918Y131536D01*
X309032Y131681D01*
X309148Y131823D01*
X309156Y131838D01*
X309167Y131852D01*
X309251Y132016D01*
X309337Y132178D01*
X309342Y132195D01*
X309350Y132211D01*
X309399Y132388D01*
X309451Y132564D01*
X309453Y132582D01*
X309458Y132599D01*
X309471Y132782D01*
X309488Y132965D01*
X309486Y132983D01*
X309487Y133001D01*
X309464Y133182D01*
X309444Y133365D01*
X309439Y133383D01*
X309437Y133400D01*
X309379Y133574D01*
X309323Y133749D01*
X309314Y133765D01*
X309309Y133782D01*
X309217Y133941D01*
X309128Y134102D01*
X309117Y134115D01*
X309108Y134131D01*
X308893Y134384D01*
X308609Y134667D01*
X308609Y142033D01*
X313817Y147241D01*
X321183Y147241D01*
X326391Y142033D01*
X326391Y134667D01*
X321183Y129459D01*
X314869Y129459D01*
X314842Y129457D01*
X314815Y129459D01*
X314642Y129437D01*
X314468Y129419D01*
X314443Y129412D01*
X314416Y129408D01*
X314250Y129353D01*
X314083Y129301D01*
X314060Y129288D01*
X314034Y129280D01*
X313883Y129193D01*
X313729Y129109D01*
X313709Y129092D01*
X313685Y129079D01*
X313432Y128864D01*
X304761Y120193D01*
X304744Y120172D01*
X304723Y120154D01*
X304616Y120016D01*
X304506Y119881D01*
X304493Y119857D01*
X304477Y119836D01*
X304399Y119679D01*
X304317Y119525D01*
X304309Y119500D01*
X304297Y119476D01*
X304252Y119306D01*
X304202Y119139D01*
X304200Y119113D01*
X304193Y119087D01*
X304166Y118756D01*
X304166Y75148D01*
X287108Y58090D01*
X287091Y58069D01*
X287070Y58051D01*
X286963Y57913D01*
X286853Y57778D01*
X286840Y57754D01*
X286824Y57733D01*
X286746Y57576D01*
X286664Y57422D01*
X286656Y57397D01*
X286644Y57373D01*
X286599Y57203D01*
X286549Y57036D01*
X286547Y57010D01*
X286540Y56984D01*
X286513Y56653D01*
X286513Y44134D01*
X286066Y43687D01*
X273547Y43687D01*
X273521Y43685D01*
X273496Y43687D01*
X273321Y43665D01*
X273146Y43647D01*
X273122Y43640D01*
X273096Y43637D01*
X272930Y43581D01*
X272761Y43529D01*
X272739Y43517D01*
X272715Y43509D01*
X272562Y43421D01*
X272407Y43337D01*
X272388Y43321D01*
X272366Y43308D01*
X272112Y43094D01*
X272099Y43081D01*
X272098Y43080D01*
X272092Y43072D01*
X272082Y43060D01*
X272060Y43041D01*
X271954Y42904D01*
X271844Y42770D01*
X271831Y42745D01*
X271814Y42723D01*
X271736Y42568D01*
X271655Y42415D01*
X271647Y42388D01*
X271634Y42363D01*
X271589Y42195D01*
X271540Y42029D01*
X271537Y42001D01*
X271530Y41974D01*
X271503Y41643D01*
X271503Y40320D01*
X270772Y38554D01*
X269421Y37203D01*
X267655Y36472D01*
X265745Y36472D01*
X263979Y37203D01*
X262628Y38554D01*
X261897Y40320D01*
X261897Y41656D01*
X261895Y41674D01*
X261897Y41692D01*
X261876Y41874D01*
X261857Y42057D01*
X261852Y42074D01*
X261850Y42091D01*
X261793Y42266D01*
X261739Y42442D01*
X261731Y42457D01*
X261725Y42474D01*
X261635Y42634D01*
X261547Y42796D01*
X261536Y42809D01*
X261527Y42825D01*
X261407Y42964D01*
X261290Y43105D01*
X261276Y43116D01*
X261264Y43130D01*
X261119Y43242D01*
X260976Y43357D01*
X260960Y43365D01*
X260946Y43376D01*
X260781Y43458D01*
X260619Y43543D01*
X260602Y43548D01*
X260586Y43556D01*
X260407Y43603D01*
X260232Y43654D01*
X260214Y43656D01*
X260197Y43660D01*
X259866Y43687D01*
X225922Y43687D01*
X225895Y43685D01*
X225868Y43687D01*
X225695Y43665D01*
X225521Y43647D01*
X225496Y43640D01*
X225469Y43636D01*
X225303Y43581D01*
X225136Y43529D01*
X225113Y43516D01*
X225087Y43508D01*
X224936Y43421D01*
X224782Y43337D01*
X224762Y43320D01*
X224738Y43307D01*
X224485Y43092D01*
X193751Y12358D01*
X193746Y12351D01*
X193739Y12346D01*
X193619Y12196D01*
X193496Y12047D01*
X193492Y12039D01*
X193487Y12032D01*
X193398Y11861D01*
X193308Y11691D01*
X193305Y11683D01*
X193301Y11675D01*
X193248Y11489D01*
X193193Y11305D01*
X193192Y11296D01*
X193190Y11288D01*
X193174Y11096D01*
X193157Y10904D01*
X193158Y10895D01*
X193157Y10886D01*
X193179Y10697D01*
X193200Y10504D01*
X193203Y10495D01*
X193204Y10487D01*
X193263Y10305D01*
X193321Y10120D01*
X193326Y10112D01*
X193329Y10104D01*
X193424Y9935D01*
X193516Y9768D01*
X193522Y9761D01*
X193526Y9753D01*
X193652Y9607D01*
X193777Y9461D01*
X193784Y9455D01*
X193790Y9448D01*
X193941Y9331D01*
X194093Y9211D01*
X194101Y9207D01*
X194108Y9202D01*
X194280Y9116D01*
X194452Y9029D01*
X194460Y9026D01*
X194468Y9022D01*
X194655Y8972D01*
X194840Y8921D01*
X194848Y8920D01*
X194857Y8918D01*
X195188Y8891D01*
X341006Y8891D01*
X341033Y8893D01*
X341060Y8891D01*
X341233Y8913D01*
X341407Y8931D01*
X341432Y8938D01*
X341459Y8942D01*
X341625Y8997D01*
X341792Y9049D01*
X341815Y9062D01*
X341841Y9070D01*
X341992Y9157D01*
X342146Y9241D01*
X342166Y9258D01*
X342190Y9271D01*
X342443Y9486D01*
X368339Y35382D01*
X368339Y35383D01*
X370423Y37466D01*
X388096Y37466D01*
X388118Y37468D01*
X388140Y37466D01*
X388318Y37488D01*
X388497Y37506D01*
X388518Y37512D01*
X388540Y37515D01*
X388709Y37571D01*
X388882Y37624D01*
X388901Y37634D01*
X388922Y37641D01*
X389078Y37730D01*
X389236Y37816D01*
X389253Y37830D01*
X389272Y37841D01*
X389407Y37958D01*
X389545Y38073D01*
X389559Y38091D01*
X389576Y38105D01*
X389685Y38247D01*
X389797Y38387D01*
X389807Y38407D01*
X389821Y38425D01*
X389973Y38720D01*
X391243Y41786D01*
X393744Y44287D01*
X395092Y44846D01*
X397011Y45641D01*
X415789Y45641D01*
X419056Y44287D01*
X421582Y41762D01*
X421618Y41698D01*
X421702Y41540D01*
X421717Y41523D01*
X421728Y41503D01*
X421845Y41368D01*
X421959Y41229D01*
X421976Y41215D01*
X421991Y41198D01*
X422132Y41089D01*
X422271Y40976D01*
X422291Y40965D01*
X422309Y40952D01*
X422469Y40872D01*
X422628Y40789D01*
X422649Y40782D01*
X422669Y40772D01*
X422843Y40726D01*
X423014Y40676D01*
X423036Y40674D01*
X423058Y40668D01*
X423389Y40641D01*
X440211Y40641D01*
X440233Y40643D01*
X440256Y40641D01*
X440433Y40663D01*
X440612Y40681D01*
X440633Y40687D01*
X440655Y40690D01*
X440825Y40746D01*
X440997Y40799D01*
X441016Y40809D01*
X441038Y40816D01*
X441193Y40905D01*
X441351Y40991D01*
X441368Y41005D01*
X441387Y41016D01*
X441523Y41134D01*
X441660Y41248D01*
X441674Y41266D01*
X441691Y41280D01*
X441800Y41423D01*
X441912Y41562D01*
X441923Y41582D01*
X441936Y41600D01*
X442021Y41764D01*
X444544Y44287D01*
X445892Y44846D01*
X447811Y45641D01*
X466589Y45641D01*
X469856Y44287D01*
X472357Y41786D01*
X473711Y38519D01*
X473711Y34981D01*
X472357Y31714D01*
X469856Y29213D01*
X466589Y27859D01*
X447811Y27859D01*
X444544Y29213D01*
X442043Y31714D01*
X440969Y34305D01*
X440959Y34325D01*
X440952Y34346D01*
X440864Y34502D01*
X440779Y34660D01*
X440765Y34677D01*
X440754Y34697D01*
X440637Y34832D01*
X440523Y34971D01*
X440505Y34985D01*
X440491Y35002D01*
X440349Y35111D01*
X440210Y35224D01*
X440190Y35235D01*
X440173Y35248D01*
X440012Y35328D01*
X439854Y35411D01*
X439832Y35418D01*
X439812Y35428D01*
X439638Y35474D01*
X439467Y35524D01*
X439445Y35526D01*
X439423Y35532D01*
X439093Y35559D01*
X424507Y35559D01*
X424485Y35557D01*
X424463Y35559D01*
X424285Y35537D01*
X424107Y35519D01*
X424085Y35513D01*
X424063Y35510D01*
X423894Y35454D01*
X423722Y35401D01*
X423702Y35391D01*
X423681Y35384D01*
X423526Y35295D01*
X423368Y35209D01*
X423351Y35195D01*
X423331Y35184D01*
X423196Y35066D01*
X423058Y34952D01*
X423045Y34934D01*
X423028Y34920D01*
X422918Y34778D01*
X422806Y34638D01*
X422796Y34618D01*
X422782Y34600D01*
X422631Y34305D01*
X421557Y31714D01*
X419056Y29213D01*
X415789Y27859D01*
X397011Y27859D01*
X393744Y29213D01*
X391167Y31789D01*
X391147Y31806D01*
X391129Y31827D01*
X390991Y31934D01*
X390856Y32044D01*
X390832Y32057D01*
X390811Y32073D01*
X390654Y32151D01*
X390500Y32233D01*
X390475Y32241D01*
X390450Y32253D01*
X390281Y32298D01*
X390114Y32348D01*
X390088Y32350D01*
X390062Y32357D01*
X389731Y32384D01*
X373369Y32384D01*
X373342Y32382D01*
X373315Y32384D01*
X373142Y32362D01*
X372968Y32344D01*
X372943Y32337D01*
X372916Y32333D01*
X372750Y32278D01*
X372583Y32226D01*
X372560Y32213D01*
X372534Y32205D01*
X372383Y32118D01*
X372229Y32034D01*
X372209Y32017D01*
X372185Y32004D01*
X371932Y31789D01*
X346036Y5893D01*
X346036Y5892D01*
X343952Y3809D01*
X148173Y3809D01*
G37*
%LPD*%
%LPC*%
G36*
X397011Y78659D02*
X397011Y78659D01*
X393744Y80013D01*
X391243Y82514D01*
X389889Y85781D01*
X389889Y89319D01*
X391243Y92586D01*
X393744Y95087D01*
X397011Y96441D01*
X415789Y96441D01*
X419056Y95087D01*
X421582Y92562D01*
X421618Y92497D01*
X421702Y92340D01*
X421717Y92323D01*
X421728Y92303D01*
X421845Y92168D01*
X421959Y92029D01*
X421976Y92015D01*
X421991Y91998D01*
X422132Y91889D01*
X422271Y91776D01*
X422291Y91765D01*
X422309Y91752D01*
X422469Y91672D01*
X422628Y91589D01*
X422649Y91582D01*
X422669Y91572D01*
X422843Y91526D01*
X423014Y91476D01*
X423036Y91474D01*
X423058Y91468D01*
X423389Y91441D01*
X440211Y91441D01*
X440233Y91443D01*
X440256Y91441D01*
X440433Y91463D01*
X440612Y91481D01*
X440633Y91487D01*
X440655Y91490D01*
X440825Y91546D01*
X440997Y91599D01*
X441016Y91609D01*
X441038Y91616D01*
X441193Y91705D01*
X441351Y91791D01*
X441368Y91805D01*
X441387Y91816D01*
X441523Y91934D01*
X441660Y92048D01*
X441674Y92066D01*
X441691Y92080D01*
X441800Y92223D01*
X441912Y92362D01*
X441923Y92382D01*
X441936Y92400D01*
X442021Y92564D01*
X444544Y95087D01*
X447811Y96441D01*
X466589Y96441D01*
X469856Y95087D01*
X472357Y92586D01*
X473711Y89319D01*
X473711Y85781D01*
X472357Y82514D01*
X469856Y80013D01*
X466589Y78659D01*
X447811Y78659D01*
X444544Y80013D01*
X442043Y82514D01*
X440969Y85105D01*
X440959Y85125D01*
X440952Y85146D01*
X440864Y85302D01*
X440779Y85460D01*
X440765Y85477D01*
X440754Y85497D01*
X440637Y85632D01*
X440523Y85771D01*
X440505Y85785D01*
X440491Y85802D01*
X440349Y85911D01*
X440210Y86024D01*
X440190Y86035D01*
X440173Y86048D01*
X440012Y86128D01*
X439854Y86211D01*
X439832Y86218D01*
X439812Y86228D01*
X439638Y86274D01*
X439467Y86324D01*
X439445Y86326D01*
X439423Y86332D01*
X439093Y86359D01*
X424507Y86359D01*
X424485Y86357D01*
X424463Y86359D01*
X424285Y86337D01*
X424107Y86319D01*
X424085Y86313D01*
X424063Y86310D01*
X423894Y86254D01*
X423722Y86201D01*
X423702Y86191D01*
X423681Y86184D01*
X423526Y86095D01*
X423368Y86009D01*
X423351Y85995D01*
X423331Y85984D01*
X423196Y85866D01*
X423058Y85752D01*
X423045Y85734D01*
X423028Y85720D01*
X422918Y85578D01*
X422806Y85438D01*
X422796Y85418D01*
X422782Y85400D01*
X422631Y85105D01*
X421557Y82514D01*
X419056Y80013D01*
X415789Y78659D01*
X397011Y78659D01*
G37*
%LPD*%
%LPC*%
G36*
X397011Y104059D02*
X397011Y104059D01*
X393744Y105413D01*
X391243Y107914D01*
X389889Y111181D01*
X389889Y114719D01*
X391243Y117986D01*
X393744Y120487D01*
X397011Y121841D01*
X415789Y121841D01*
X419056Y120487D01*
X421582Y117962D01*
X421618Y117898D01*
X421702Y117740D01*
X421717Y117723D01*
X421728Y117703D01*
X421845Y117568D01*
X421959Y117429D01*
X421976Y117415D01*
X421991Y117398D01*
X422132Y117289D01*
X422271Y117176D01*
X422291Y117165D01*
X422309Y117152D01*
X422469Y117072D01*
X422628Y116989D01*
X422649Y116982D01*
X422669Y116972D01*
X422843Y116926D01*
X423014Y116876D01*
X423036Y116874D01*
X423058Y116868D01*
X423389Y116841D01*
X440211Y116841D01*
X440233Y116843D01*
X440256Y116841D01*
X440433Y116863D01*
X440612Y116881D01*
X440633Y116887D01*
X440655Y116890D01*
X440825Y116946D01*
X440997Y116999D01*
X441016Y117009D01*
X441038Y117016D01*
X441193Y117105D01*
X441351Y117191D01*
X441368Y117205D01*
X441387Y117216D01*
X441523Y117334D01*
X441660Y117448D01*
X441674Y117466D01*
X441691Y117480D01*
X441800Y117623D01*
X441912Y117762D01*
X441923Y117782D01*
X441936Y117800D01*
X442021Y117964D01*
X444544Y120487D01*
X447811Y121841D01*
X466589Y121841D01*
X469856Y120487D01*
X472357Y117986D01*
X473711Y114719D01*
X473711Y111181D01*
X472357Y107914D01*
X469856Y105413D01*
X466589Y104059D01*
X447811Y104059D01*
X444544Y105413D01*
X442043Y107914D01*
X440969Y110505D01*
X440959Y110525D01*
X440952Y110546D01*
X440864Y110702D01*
X440779Y110860D01*
X440765Y110877D01*
X440754Y110897D01*
X440637Y111032D01*
X440523Y111171D01*
X440505Y111185D01*
X440491Y111202D01*
X440350Y111311D01*
X440210Y111424D01*
X440190Y111435D01*
X440173Y111448D01*
X440012Y111528D01*
X439854Y111611D01*
X439832Y111618D01*
X439812Y111628D01*
X439638Y111674D01*
X439467Y111724D01*
X439445Y111726D01*
X439423Y111732D01*
X439093Y111759D01*
X424507Y111759D01*
X424485Y111757D01*
X424463Y111759D01*
X424285Y111737D01*
X424107Y111719D01*
X424085Y111713D01*
X424063Y111710D01*
X423894Y111654D01*
X423722Y111601D01*
X423702Y111591D01*
X423681Y111584D01*
X423526Y111495D01*
X423368Y111409D01*
X423351Y111395D01*
X423331Y111384D01*
X423196Y111266D01*
X423058Y111152D01*
X423045Y111134D01*
X423028Y111120D01*
X422918Y110978D01*
X422806Y110838D01*
X422796Y110818D01*
X422782Y110800D01*
X422631Y110505D01*
X421557Y107914D01*
X419056Y105413D01*
X415789Y104059D01*
X397011Y104059D01*
G37*
%LPD*%
%LPC*%
G36*
X397011Y53259D02*
X397011Y53259D01*
X393744Y54613D01*
X391243Y57114D01*
X389889Y60381D01*
X389889Y63919D01*
X391243Y67186D01*
X393744Y69687D01*
X397011Y71041D01*
X415789Y71041D01*
X419056Y69687D01*
X421582Y67162D01*
X421618Y67098D01*
X421702Y66940D01*
X421717Y66923D01*
X421728Y66903D01*
X421845Y66768D01*
X421959Y66629D01*
X421976Y66615D01*
X421991Y66598D01*
X422132Y66489D01*
X422271Y66376D01*
X422291Y66365D01*
X422309Y66352D01*
X422469Y66272D01*
X422628Y66189D01*
X422649Y66182D01*
X422669Y66172D01*
X422843Y66126D01*
X423014Y66076D01*
X423036Y66074D01*
X423058Y66068D01*
X423389Y66041D01*
X440211Y66041D01*
X440233Y66043D01*
X440256Y66041D01*
X440433Y66063D01*
X440612Y66081D01*
X440633Y66087D01*
X440655Y66090D01*
X440825Y66146D01*
X440997Y66199D01*
X441016Y66209D01*
X441038Y66216D01*
X441193Y66305D01*
X441351Y66391D01*
X441368Y66405D01*
X441387Y66416D01*
X441523Y66534D01*
X441660Y66648D01*
X441674Y66666D01*
X441691Y66680D01*
X441800Y66823D01*
X441912Y66962D01*
X441923Y66982D01*
X441936Y67000D01*
X442021Y67164D01*
X444544Y69687D01*
X447811Y71041D01*
X466589Y71041D01*
X469856Y69687D01*
X472357Y67186D01*
X473711Y63919D01*
X473711Y60381D01*
X472357Y57114D01*
X469856Y54613D01*
X466589Y53259D01*
X447811Y53259D01*
X444544Y54613D01*
X442043Y57114D01*
X440969Y59705D01*
X440964Y59716D01*
X440961Y59724D01*
X440956Y59732D01*
X440952Y59746D01*
X440864Y59902D01*
X440779Y60060D01*
X440765Y60077D01*
X440754Y60097D01*
X440637Y60232D01*
X440523Y60371D01*
X440505Y60385D01*
X440491Y60402D01*
X440349Y60511D01*
X440210Y60624D01*
X440190Y60635D01*
X440173Y60648D01*
X440012Y60728D01*
X439854Y60811D01*
X439832Y60818D01*
X439812Y60828D01*
X439638Y60874D01*
X439467Y60924D01*
X439445Y60926D01*
X439423Y60932D01*
X439093Y60959D01*
X424507Y60959D01*
X424485Y60957D01*
X424463Y60959D01*
X424285Y60937D01*
X424107Y60919D01*
X424085Y60913D01*
X424063Y60910D01*
X423894Y60854D01*
X423722Y60801D01*
X423702Y60791D01*
X423681Y60784D01*
X423526Y60695D01*
X423368Y60609D01*
X423351Y60595D01*
X423331Y60584D01*
X423196Y60466D01*
X423058Y60352D01*
X423045Y60334D01*
X423028Y60320D01*
X422918Y60178D01*
X422806Y60038D01*
X422796Y60018D01*
X422782Y60000D01*
X422631Y59705D01*
X421557Y57114D01*
X419056Y54613D01*
X415789Y53259D01*
X397011Y53259D01*
G37*
%LPD*%
G36*
X188633Y15243D02*
X188633Y15243D01*
X188660Y15241D01*
X188833Y15263D01*
X189007Y15281D01*
X189032Y15288D01*
X189059Y15292D01*
X189225Y15347D01*
X189392Y15399D01*
X189415Y15412D01*
X189441Y15420D01*
X189592Y15507D01*
X189746Y15591D01*
X189766Y15608D01*
X189790Y15621D01*
X190043Y15836D01*
X214427Y40220D01*
X214432Y40227D01*
X214439Y40232D01*
X214559Y40382D01*
X214682Y40531D01*
X214686Y40539D01*
X214691Y40546D01*
X214780Y40717D01*
X214870Y40887D01*
X214873Y40895D01*
X214877Y40903D01*
X214930Y41089D01*
X214985Y41273D01*
X214986Y41282D01*
X214988Y41290D01*
X215004Y41482D01*
X215021Y41674D01*
X215020Y41683D01*
X215021Y41692D01*
X214999Y41878D01*
X214978Y42074D01*
X214975Y42083D01*
X214974Y42091D01*
X214915Y42273D01*
X214857Y42458D01*
X214852Y42466D01*
X214849Y42474D01*
X214754Y42643D01*
X214662Y42810D01*
X214656Y42817D01*
X214652Y42825D01*
X214526Y42971D01*
X214401Y43117D01*
X214394Y43123D01*
X214388Y43130D01*
X214237Y43247D01*
X214085Y43367D01*
X214077Y43371D01*
X214070Y43376D01*
X213898Y43462D01*
X213726Y43549D01*
X213718Y43552D01*
X213710Y43556D01*
X213523Y43606D01*
X213338Y43657D01*
X213330Y43658D01*
X213321Y43660D01*
X212990Y43687D01*
X189952Y43687D01*
X189934Y43685D01*
X189916Y43687D01*
X189734Y43666D01*
X189551Y43647D01*
X189534Y43642D01*
X189517Y43640D01*
X189342Y43583D01*
X189166Y43529D01*
X189151Y43521D01*
X189134Y43515D01*
X188973Y43425D01*
X188812Y43337D01*
X188799Y43326D01*
X188783Y43317D01*
X188644Y43197D01*
X188503Y43080D01*
X188492Y43066D01*
X188478Y43054D01*
X188366Y42909D01*
X188251Y42766D01*
X188243Y42750D01*
X188232Y42736D01*
X188150Y42571D01*
X188065Y42409D01*
X188060Y42392D01*
X188052Y42376D01*
X188005Y42197D01*
X187954Y42022D01*
X187952Y42004D01*
X187948Y41987D01*
X187921Y41656D01*
X187921Y20434D01*
X187176Y19689D01*
X181124Y19689D01*
X180379Y20434D01*
X180379Y41656D01*
X180377Y41674D01*
X180379Y41692D01*
X180358Y41874D01*
X180339Y42057D01*
X180334Y42074D01*
X180332Y42091D01*
X180275Y42266D01*
X180221Y42442D01*
X180213Y42457D01*
X180207Y42474D01*
X180117Y42634D01*
X180029Y42796D01*
X180018Y42809D01*
X180009Y42825D01*
X179889Y42964D01*
X179772Y43105D01*
X179758Y43116D01*
X179746Y43130D01*
X179601Y43242D01*
X179458Y43357D01*
X179442Y43365D01*
X179428Y43376D01*
X179263Y43458D01*
X179101Y43543D01*
X179084Y43548D01*
X179068Y43556D01*
X178889Y43603D01*
X178714Y43654D01*
X178696Y43656D01*
X178679Y43660D01*
X178348Y43687D01*
X177252Y43687D01*
X177234Y43685D01*
X177216Y43687D01*
X177034Y43666D01*
X176851Y43647D01*
X176834Y43642D01*
X176817Y43640D01*
X176642Y43583D01*
X176466Y43529D01*
X176451Y43521D01*
X176434Y43515D01*
X176273Y43425D01*
X176112Y43337D01*
X176099Y43326D01*
X176083Y43317D01*
X175944Y43197D01*
X175803Y43080D01*
X175792Y43066D01*
X175778Y43054D01*
X175666Y42909D01*
X175551Y42766D01*
X175543Y42750D01*
X175532Y42736D01*
X175450Y42571D01*
X175365Y42409D01*
X175360Y42392D01*
X175352Y42376D01*
X175305Y42197D01*
X175254Y42022D01*
X175252Y42004D01*
X175248Y41987D01*
X175221Y41656D01*
X175221Y20434D01*
X174476Y19689D01*
X168424Y19689D01*
X167679Y20434D01*
X167679Y41656D01*
X167677Y41674D01*
X167679Y41692D01*
X167658Y41874D01*
X167639Y42057D01*
X167634Y42074D01*
X167632Y42091D01*
X167575Y42266D01*
X167521Y42442D01*
X167513Y42457D01*
X167507Y42474D01*
X167417Y42634D01*
X167329Y42796D01*
X167318Y42809D01*
X167309Y42825D01*
X167189Y42964D01*
X167072Y43105D01*
X167058Y43116D01*
X167046Y43130D01*
X166901Y43242D01*
X166758Y43357D01*
X166742Y43365D01*
X166728Y43376D01*
X166563Y43458D01*
X166401Y43543D01*
X166384Y43548D01*
X166368Y43556D01*
X166189Y43603D01*
X166014Y43654D01*
X165996Y43656D01*
X165979Y43660D01*
X165648Y43687D01*
X164552Y43687D01*
X164534Y43685D01*
X164516Y43687D01*
X164334Y43666D01*
X164151Y43647D01*
X164134Y43642D01*
X164117Y43640D01*
X163942Y43583D01*
X163766Y43529D01*
X163751Y43521D01*
X163734Y43515D01*
X163573Y43425D01*
X163412Y43337D01*
X163399Y43326D01*
X163383Y43317D01*
X163244Y43197D01*
X163103Y43080D01*
X163092Y43066D01*
X163078Y43054D01*
X162966Y42909D01*
X162851Y42766D01*
X162843Y42750D01*
X162832Y42736D01*
X162750Y42571D01*
X162665Y42409D01*
X162660Y42392D01*
X162652Y42376D01*
X162605Y42197D01*
X162554Y42022D01*
X162552Y42004D01*
X162548Y41987D01*
X162521Y41656D01*
X162521Y19714D01*
X162523Y19687D01*
X162521Y19660D01*
X162543Y19486D01*
X162561Y19313D01*
X162568Y19288D01*
X162572Y19261D01*
X162628Y19095D01*
X162679Y18928D01*
X162692Y18905D01*
X162700Y18879D01*
X162787Y18728D01*
X162871Y18574D01*
X162888Y18554D01*
X162901Y18530D01*
X163116Y18277D01*
X165557Y15836D01*
X165578Y15819D01*
X165596Y15798D01*
X165734Y15691D01*
X165869Y15581D01*
X165893Y15568D01*
X165914Y15552D01*
X166070Y15474D01*
X166225Y15392D01*
X166250Y15384D01*
X166274Y15372D01*
X166443Y15327D01*
X166611Y15277D01*
X166637Y15275D01*
X166663Y15268D01*
X166994Y15241D01*
X188606Y15241D01*
X188633Y15243D01*
G37*
%LPC*%
G36*
X47063Y157063D02*
X47063Y157063D01*
X47063Y183994D01*
X47590Y183942D01*
X50601Y183343D01*
X53538Y182452D01*
X56374Y181277D01*
X59082Y179830D01*
X61634Y178125D01*
X64007Y176177D01*
X66177Y174007D01*
X68125Y171634D01*
X69830Y169082D01*
X71277Y166374D01*
X72452Y163538D01*
X73343Y160601D01*
X73942Y157590D01*
X73994Y157063D01*
X47063Y157063D01*
G37*
%LPD*%
%LPC*%
G36*
X335063Y52063D02*
X335063Y52063D01*
X335063Y78994D01*
X335590Y78942D01*
X338601Y78343D01*
X341538Y77452D01*
X344374Y76277D01*
X347082Y74830D01*
X349634Y73125D01*
X352007Y71177D01*
X354177Y69007D01*
X356125Y66634D01*
X357830Y64082D01*
X359277Y61374D01*
X360452Y58538D01*
X361343Y55601D01*
X361942Y52590D01*
X361994Y52063D01*
X335063Y52063D01*
G37*
%LPD*%
%LPC*%
G36*
X12006Y157063D02*
X12006Y157063D01*
X12058Y157590D01*
X12657Y160601D01*
X13548Y163538D01*
X14723Y166374D01*
X16170Y169082D01*
X17875Y171634D01*
X19823Y174007D01*
X21993Y176177D01*
X24366Y178125D01*
X26918Y179830D01*
X29626Y181277D01*
X32462Y182452D01*
X35399Y183343D01*
X38410Y183942D01*
X38937Y183994D01*
X38937Y157063D01*
X12006Y157063D01*
G37*
%LPD*%
%LPC*%
G36*
X335063Y43937D02*
X335063Y43937D01*
X361994Y43937D01*
X361942Y43410D01*
X361343Y40399D01*
X360452Y37462D01*
X359277Y34626D01*
X357830Y31918D01*
X356125Y29366D01*
X354177Y26993D01*
X352007Y24823D01*
X349634Y22875D01*
X347082Y21170D01*
X344374Y19723D01*
X341538Y18548D01*
X338601Y17657D01*
X335590Y17058D01*
X335063Y17006D01*
X335063Y43937D01*
G37*
%LPD*%
%LPC*%
G36*
X47063Y148937D02*
X47063Y148937D01*
X73994Y148937D01*
X73942Y148410D01*
X73343Y145399D01*
X72452Y142462D01*
X71277Y139626D01*
X69830Y136918D01*
X68125Y134366D01*
X66177Y131993D01*
X64007Y129823D01*
X61634Y127875D01*
X59082Y126170D01*
X56374Y124723D01*
X53538Y123548D01*
X50601Y122657D01*
X47590Y122058D01*
X47063Y122006D01*
X47063Y148937D01*
G37*
%LPD*%
%LPC*%
G36*
X300006Y52063D02*
X300006Y52063D01*
X300058Y52590D01*
X300657Y55601D01*
X301548Y58538D01*
X302723Y61374D01*
X304170Y64082D01*
X305875Y66634D01*
X307823Y69007D01*
X309993Y71177D01*
X312366Y73125D01*
X314918Y74830D01*
X317626Y76277D01*
X320462Y77452D01*
X323399Y78343D01*
X326410Y78942D01*
X326937Y78994D01*
X326937Y52063D01*
X300006Y52063D01*
G37*
%LPD*%
%LPC*%
G36*
X38410Y122058D02*
X38410Y122058D01*
X35399Y122657D01*
X32462Y123548D01*
X29626Y124723D01*
X26918Y126170D01*
X24366Y127875D01*
X21993Y129823D01*
X19823Y131993D01*
X17875Y134366D01*
X16170Y136918D01*
X14723Y139626D01*
X13548Y142462D01*
X12657Y145399D01*
X12058Y148410D01*
X12006Y148937D01*
X38937Y148937D01*
X38937Y122006D01*
X38410Y122058D01*
G37*
%LPD*%
%LPC*%
G36*
X326410Y17058D02*
X326410Y17058D01*
X323399Y17657D01*
X320462Y18548D01*
X317626Y19723D01*
X314918Y21170D01*
X312366Y22875D01*
X309993Y24823D01*
X307823Y26993D01*
X305875Y29366D01*
X304170Y31918D01*
X302723Y34626D01*
X301548Y37462D01*
X300657Y40399D01*
X300058Y43410D01*
X300006Y43937D01*
X326937Y43937D01*
X326937Y17006D01*
X326410Y17058D01*
G37*
%LPD*%
%LPC*%
G36*
X162891Y157278D02*
X162891Y157278D01*
X161513Y157849D01*
X160273Y158678D01*
X159648Y159303D01*
X159634Y159314D01*
X159622Y159328D01*
X159478Y159442D01*
X159336Y159558D01*
X159320Y159567D01*
X159306Y159578D01*
X159143Y159661D01*
X158980Y159747D01*
X158963Y159752D01*
X158947Y159760D01*
X158771Y159809D01*
X158594Y159862D01*
X158577Y159863D01*
X158559Y159868D01*
X158377Y159881D01*
X158193Y159898D01*
X158176Y159896D01*
X158158Y159897D01*
X157976Y159874D01*
X157793Y159855D01*
X157776Y159849D01*
X157758Y159847D01*
X157584Y159788D01*
X157409Y159733D01*
X157394Y159724D01*
X157377Y159719D01*
X157217Y159627D01*
X157057Y159538D01*
X157043Y159527D01*
X157028Y159518D01*
X156775Y159303D01*
X156258Y158786D01*
X153755Y157749D01*
X151045Y157749D01*
X148542Y158786D01*
X146626Y160702D01*
X145589Y163205D01*
X145589Y176995D01*
X146626Y179498D01*
X148542Y181414D01*
X151045Y182451D01*
X153755Y182451D01*
X156258Y181414D01*
X156775Y180897D01*
X156789Y180886D01*
X156800Y180872D01*
X156944Y180758D01*
X157086Y180642D01*
X157102Y180633D01*
X157116Y180622D01*
X157279Y180539D01*
X157442Y180453D01*
X157459Y180448D01*
X157475Y180440D01*
X157651Y180391D01*
X157828Y180338D01*
X157846Y180337D01*
X157863Y180332D01*
X158046Y180319D01*
X158229Y180302D01*
X158247Y180304D01*
X158265Y180303D01*
X158446Y180326D01*
X158629Y180345D01*
X158646Y180351D01*
X158664Y180353D01*
X158838Y180412D01*
X159013Y180467D01*
X159029Y180476D01*
X159046Y180481D01*
X159205Y180573D01*
X159365Y180662D01*
X159379Y180673D01*
X159395Y180682D01*
X159648Y180897D01*
X160273Y181522D01*
X161513Y182351D01*
X162891Y182922D01*
X163069Y182957D01*
X163069Y170100D01*
X163069Y157243D01*
X162891Y157278D01*
G37*
%LPD*%
G36*
X140275Y19763D02*
X140275Y19763D01*
X140284Y19762D01*
X140473Y19784D01*
X140666Y19805D01*
X140675Y19808D01*
X140683Y19809D01*
X140865Y19868D01*
X141050Y19926D01*
X141058Y19931D01*
X141066Y19934D01*
X141235Y20029D01*
X141402Y20121D01*
X141409Y20127D01*
X141417Y20131D01*
X141562Y20257D01*
X141709Y20382D01*
X141715Y20389D01*
X141722Y20395D01*
X141839Y20546D01*
X141959Y20698D01*
X141963Y20706D01*
X141968Y20713D01*
X142054Y20885D01*
X142141Y21057D01*
X142144Y21065D01*
X142148Y21073D01*
X142198Y21260D01*
X142249Y21445D01*
X142250Y21453D01*
X142252Y21462D01*
X142279Y21793D01*
X142279Y41656D01*
X142277Y41674D01*
X142279Y41692D01*
X142258Y41874D01*
X142239Y42057D01*
X142234Y42074D01*
X142232Y42091D01*
X142175Y42266D01*
X142121Y42442D01*
X142113Y42457D01*
X142107Y42474D01*
X142017Y42634D01*
X141929Y42796D01*
X141918Y42809D01*
X141909Y42825D01*
X141789Y42964D01*
X141672Y43105D01*
X141658Y43116D01*
X141646Y43130D01*
X141501Y43242D01*
X141358Y43357D01*
X141342Y43365D01*
X141328Y43376D01*
X141163Y43458D01*
X141001Y43543D01*
X140984Y43548D01*
X140968Y43556D01*
X140789Y43603D01*
X140614Y43654D01*
X140596Y43656D01*
X140579Y43660D01*
X140248Y43687D01*
X120385Y43687D01*
X120376Y43686D01*
X120367Y43687D01*
X120174Y43666D01*
X119984Y43647D01*
X119976Y43645D01*
X119967Y43644D01*
X119782Y43585D01*
X119599Y43529D01*
X119591Y43525D01*
X119583Y43522D01*
X119415Y43429D01*
X119245Y43337D01*
X119238Y43332D01*
X119231Y43327D01*
X119083Y43203D01*
X118936Y43080D01*
X118930Y43073D01*
X118924Y43067D01*
X118804Y42915D01*
X118684Y42766D01*
X118679Y42758D01*
X118674Y42751D01*
X118586Y42578D01*
X118498Y42409D01*
X118496Y42400D01*
X118492Y42392D01*
X118440Y42206D01*
X118387Y42022D01*
X118386Y42013D01*
X118384Y42004D01*
X118369Y41809D01*
X118354Y41620D01*
X118355Y41612D01*
X118354Y41603D01*
X118378Y41410D01*
X118401Y41221D01*
X118403Y41212D01*
X118405Y41203D01*
X118466Y41021D01*
X118526Y40838D01*
X118530Y40830D01*
X118533Y40822D01*
X118629Y40655D01*
X118723Y40487D01*
X118729Y40480D01*
X118734Y40473D01*
X118948Y40220D01*
X138812Y20356D01*
X138819Y20351D01*
X138824Y20344D01*
X138974Y20224D01*
X139123Y20101D01*
X139131Y20097D01*
X139138Y20092D01*
X139309Y20003D01*
X139479Y19913D01*
X139487Y19910D01*
X139495Y19906D01*
X139681Y19853D01*
X139865Y19798D01*
X139874Y19797D01*
X139882Y19795D01*
X140074Y19779D01*
X140266Y19762D01*
X140275Y19763D01*
G37*
%LPC*%
G36*
X14924Y14729D02*
X14924Y14729D01*
X14179Y15474D01*
X14179Y32026D01*
X14924Y32771D01*
X28976Y32771D01*
X29721Y32026D01*
X29721Y15474D01*
X28976Y14729D01*
X14924Y14729D01*
G37*
%LPD*%
%LPC*%
G36*
X59924Y14729D02*
X59924Y14729D01*
X59179Y15474D01*
X59179Y32026D01*
X59924Y32771D01*
X73976Y32771D01*
X74721Y32026D01*
X74721Y15474D01*
X73976Y14729D01*
X59924Y14729D01*
G37*
%LPD*%
G36*
X160421Y8892D02*
X160421Y8892D01*
X160430Y8891D01*
X160622Y8912D01*
X160813Y8931D01*
X160821Y8933D01*
X160830Y8934D01*
X161013Y8992D01*
X161198Y9049D01*
X161206Y9053D01*
X161214Y9056D01*
X161383Y9149D01*
X161552Y9241D01*
X161559Y9246D01*
X161567Y9251D01*
X161713Y9375D01*
X161861Y9498D01*
X161867Y9505D01*
X161873Y9511D01*
X161993Y9662D01*
X162113Y9812D01*
X162118Y9820D01*
X162123Y9827D01*
X162211Y10000D01*
X162299Y10169D01*
X162301Y10178D01*
X162305Y10186D01*
X162357Y10372D01*
X162410Y10556D01*
X162411Y10565D01*
X162413Y10574D01*
X162428Y10767D01*
X162443Y10958D01*
X162442Y10966D01*
X162443Y10975D01*
X162419Y11168D01*
X162396Y11357D01*
X162394Y11366D01*
X162392Y11375D01*
X162331Y11558D01*
X162271Y11740D01*
X162267Y11748D01*
X162264Y11756D01*
X162168Y11923D01*
X162074Y12091D01*
X162068Y12098D01*
X162063Y12105D01*
X161849Y12358D01*
X158293Y15914D01*
X156209Y17998D01*
X156209Y18362D01*
X156207Y18389D01*
X156209Y18416D01*
X156187Y18589D01*
X156169Y18763D01*
X156162Y18788D01*
X156158Y18815D01*
X156103Y18981D01*
X156051Y19148D01*
X156038Y19171D01*
X156030Y19197D01*
X155943Y19348D01*
X155859Y19502D01*
X155842Y19522D01*
X155829Y19546D01*
X155614Y19799D01*
X154979Y20434D01*
X154979Y41656D01*
X154977Y41674D01*
X154979Y41692D01*
X154958Y41874D01*
X154939Y42057D01*
X154934Y42074D01*
X154932Y42091D01*
X154875Y42266D01*
X154821Y42442D01*
X154813Y42457D01*
X154807Y42474D01*
X154717Y42634D01*
X154629Y42796D01*
X154618Y42809D01*
X154609Y42825D01*
X154489Y42964D01*
X154372Y43105D01*
X154358Y43116D01*
X154346Y43130D01*
X154201Y43242D01*
X154058Y43357D01*
X154042Y43365D01*
X154028Y43376D01*
X153863Y43458D01*
X153701Y43543D01*
X153684Y43548D01*
X153668Y43556D01*
X153489Y43603D01*
X153314Y43654D01*
X153296Y43656D01*
X153279Y43660D01*
X152948Y43687D01*
X151852Y43687D01*
X151834Y43685D01*
X151816Y43687D01*
X151634Y43666D01*
X151451Y43647D01*
X151434Y43642D01*
X151417Y43640D01*
X151242Y43583D01*
X151066Y43529D01*
X151051Y43521D01*
X151034Y43515D01*
X150873Y43425D01*
X150712Y43337D01*
X150699Y43326D01*
X150683Y43317D01*
X150544Y43197D01*
X150403Y43080D01*
X150392Y43066D01*
X150378Y43054D01*
X150266Y42909D01*
X150151Y42766D01*
X150143Y42750D01*
X150132Y42736D01*
X150050Y42571D01*
X149965Y42409D01*
X149960Y42392D01*
X149952Y42376D01*
X149905Y42197D01*
X149854Y42022D01*
X149852Y42004D01*
X149848Y41987D01*
X149821Y41656D01*
X149821Y20434D01*
X149076Y19689D01*
X144383Y19689D01*
X144374Y19688D01*
X144365Y19689D01*
X144171Y19668D01*
X143982Y19649D01*
X143974Y19647D01*
X143965Y19646D01*
X143781Y19588D01*
X143597Y19531D01*
X143589Y19527D01*
X143581Y19524D01*
X143412Y19431D01*
X143243Y19339D01*
X143236Y19334D01*
X143228Y19329D01*
X143082Y19205D01*
X142934Y19082D01*
X142928Y19075D01*
X142922Y19069D01*
X142802Y18918D01*
X142682Y18768D01*
X142677Y18760D01*
X142672Y18753D01*
X142584Y18580D01*
X142496Y18411D01*
X142494Y18402D01*
X142490Y18394D01*
X142438Y18208D01*
X142385Y18024D01*
X142384Y18015D01*
X142382Y18006D01*
X142367Y17813D01*
X142352Y17622D01*
X142353Y17614D01*
X142352Y17605D01*
X142376Y17412D01*
X142399Y17223D01*
X142401Y17214D01*
X142403Y17205D01*
X142464Y17022D01*
X142524Y16840D01*
X142528Y16832D01*
X142531Y16824D01*
X142627Y16657D01*
X142721Y16489D01*
X142727Y16482D01*
X142732Y16475D01*
X142946Y16222D01*
X149682Y9486D01*
X149703Y9469D01*
X149721Y9448D01*
X149859Y9341D01*
X149994Y9231D01*
X150018Y9218D01*
X150039Y9202D01*
X150196Y9124D01*
X150350Y9042D01*
X150375Y9034D01*
X150399Y9022D01*
X150569Y8977D01*
X150736Y8927D01*
X150762Y8925D01*
X150788Y8918D01*
X151119Y8891D01*
X160412Y8891D01*
X160421Y8892D01*
G37*
%LPC*%
G36*
X339217Y129459D02*
X339217Y129459D01*
X334009Y134667D01*
X334009Y142033D01*
X339217Y147241D01*
X346583Y147241D01*
X351791Y142033D01*
X351791Y134667D01*
X346583Y129459D01*
X339217Y129459D01*
G37*
%LPD*%
%LPC*%
G36*
X313817Y104059D02*
X313817Y104059D01*
X308609Y109267D01*
X308609Y116633D01*
X313817Y121841D01*
X321183Y121841D01*
X326391Y116633D01*
X326391Y109267D01*
X321183Y104059D01*
X313817Y104059D01*
G37*
%LPD*%
%LPC*%
G36*
X315731Y154859D02*
X315731Y154859D01*
X312464Y156213D01*
X309963Y158714D01*
X308609Y161981D01*
X308609Y165519D01*
X309963Y168786D01*
X312464Y171287D01*
X315731Y172641D01*
X319269Y172641D01*
X322536Y171287D01*
X325037Y168786D01*
X326391Y165519D01*
X326391Y161981D01*
X325037Y158714D01*
X322536Y156213D01*
X319269Y154859D01*
X315731Y154859D01*
G37*
%LPD*%
G36*
X192296Y83315D02*
X192296Y83315D01*
X192314Y83313D01*
X192496Y83334D01*
X192679Y83353D01*
X192696Y83358D01*
X192713Y83360D01*
X192888Y83417D01*
X193064Y83471D01*
X193079Y83479D01*
X193096Y83485D01*
X193256Y83575D01*
X193418Y83663D01*
X193431Y83674D01*
X193447Y83683D01*
X193586Y83803D01*
X193727Y83920D01*
X193738Y83934D01*
X193752Y83946D01*
X193864Y84091D01*
X193979Y84234D01*
X193987Y84250D01*
X193998Y84264D01*
X194080Y84429D01*
X194165Y84591D01*
X194170Y84608D01*
X194178Y84624D01*
X194225Y84803D01*
X194276Y84978D01*
X194278Y84996D01*
X194282Y85013D01*
X194309Y85344D01*
X194309Y104464D01*
X194308Y104478D01*
X194309Y104491D01*
X194288Y104677D01*
X194269Y104865D01*
X194265Y104878D01*
X194264Y104891D01*
X194207Y105069D01*
X194151Y105250D01*
X194145Y105262D01*
X194141Y105274D01*
X194049Y105439D01*
X193959Y105604D01*
X193951Y105614D01*
X193944Y105626D01*
X193821Y105770D01*
X193702Y105913D01*
X193691Y105922D01*
X193683Y105932D01*
X193534Y106048D01*
X193388Y106166D01*
X193376Y106172D01*
X193366Y106180D01*
X193196Y106265D01*
X193031Y106351D01*
X193018Y106355D01*
X193006Y106361D01*
X192824Y106411D01*
X192644Y106462D01*
X192630Y106464D01*
X192617Y106467D01*
X192431Y106480D01*
X192242Y106495D01*
X192229Y106494D01*
X192216Y106495D01*
X192029Y106470D01*
X191843Y106448D01*
X191830Y106444D01*
X191817Y106443D01*
X191501Y106341D01*
X191455Y106322D01*
X190132Y106322D01*
X190105Y106320D01*
X190078Y106322D01*
X189905Y106300D01*
X189731Y106282D01*
X189706Y106275D01*
X189679Y106271D01*
X189513Y106216D01*
X189346Y106164D01*
X189323Y106151D01*
X189297Y106143D01*
X189146Y106056D01*
X188992Y105972D01*
X188972Y105955D01*
X188948Y105942D01*
X188695Y105727D01*
X188516Y105548D01*
X188499Y105527D01*
X188478Y105509D01*
X188371Y105371D01*
X188261Y105236D01*
X188248Y105212D01*
X188232Y105191D01*
X188154Y105034D01*
X188072Y104880D01*
X188064Y104855D01*
X188052Y104831D01*
X188007Y104661D01*
X187957Y104494D01*
X187955Y104468D01*
X187948Y104442D01*
X187921Y104111D01*
X187921Y85344D01*
X187923Y85326D01*
X187921Y85308D01*
X187942Y85126D01*
X187961Y84943D01*
X187966Y84926D01*
X187968Y84909D01*
X188025Y84734D01*
X188079Y84558D01*
X188087Y84543D01*
X188093Y84526D01*
X188183Y84366D01*
X188271Y84204D01*
X188282Y84191D01*
X188291Y84175D01*
X188411Y84036D01*
X188528Y83895D01*
X188542Y83884D01*
X188554Y83870D01*
X188699Y83758D01*
X188842Y83643D01*
X188858Y83635D01*
X188872Y83624D01*
X189037Y83542D01*
X189199Y83457D01*
X189216Y83452D01*
X189232Y83444D01*
X189411Y83397D01*
X189586Y83346D01*
X189604Y83344D01*
X189621Y83340D01*
X189952Y83313D01*
X192278Y83313D01*
X192296Y83315D01*
G37*
%LPC*%
G36*
X408939Y140889D02*
X408939Y140889D01*
X408939Y148003D01*
X414780Y148003D01*
X416280Y147765D01*
X417725Y147296D01*
X419079Y146606D01*
X420308Y145713D01*
X421383Y144638D01*
X422276Y143409D01*
X422966Y142055D01*
X423344Y140889D01*
X408939Y140889D01*
G37*
%LPD*%
%LPC*%
G36*
X459739Y140889D02*
X459739Y140889D01*
X459739Y148003D01*
X465580Y148003D01*
X467080Y147765D01*
X468525Y147296D01*
X469879Y146606D01*
X471108Y145713D01*
X472183Y144638D01*
X473076Y143409D01*
X473766Y142055D01*
X474144Y140889D01*
X459739Y140889D01*
G37*
%LPD*%
%LPC*%
G36*
X389456Y140889D02*
X389456Y140889D01*
X389834Y142055D01*
X390524Y143409D01*
X391417Y144638D01*
X392492Y145713D01*
X393721Y146606D01*
X395075Y147296D01*
X396520Y147765D01*
X398020Y148003D01*
X403861Y148003D01*
X403861Y140889D01*
X389456Y140889D01*
G37*
%LPD*%
%LPC*%
G36*
X440256Y140889D02*
X440256Y140889D01*
X440634Y142055D01*
X441324Y143409D01*
X442217Y144638D01*
X443292Y145713D01*
X444521Y146606D01*
X445875Y147296D01*
X447320Y147765D01*
X448820Y148003D01*
X454661Y148003D01*
X454661Y140889D01*
X440256Y140889D01*
G37*
%LPD*%
%LPC*%
G36*
X459739Y128697D02*
X459739Y128697D01*
X459739Y135811D01*
X474144Y135811D01*
X473766Y134645D01*
X473076Y133291D01*
X472183Y132062D01*
X471108Y130987D01*
X469879Y130094D01*
X468525Y129404D01*
X467080Y128935D01*
X465580Y128697D01*
X459739Y128697D01*
G37*
%LPD*%
%LPC*%
G36*
X408939Y128697D02*
X408939Y128697D01*
X408939Y135811D01*
X423344Y135811D01*
X422966Y134645D01*
X422276Y133291D01*
X421383Y132062D01*
X420308Y130987D01*
X419079Y130094D01*
X417725Y129404D01*
X416280Y128935D01*
X414780Y128697D01*
X408939Y128697D01*
G37*
%LPD*%
%LPC*%
G36*
X398020Y128697D02*
X398020Y128697D01*
X396520Y128935D01*
X395075Y129404D01*
X393721Y130094D01*
X392492Y130987D01*
X391417Y132062D01*
X390524Y133291D01*
X389834Y134645D01*
X389456Y135811D01*
X403861Y135811D01*
X403861Y128697D01*
X398020Y128697D01*
G37*
%LPD*%
%LPC*%
G36*
X448820Y128697D02*
X448820Y128697D01*
X447320Y128935D01*
X445875Y129404D01*
X444521Y130094D01*
X443292Y130987D01*
X442217Y132062D01*
X441324Y133291D01*
X440634Y134645D01*
X440256Y135811D01*
X454661Y135811D01*
X454661Y128697D01*
X448820Y128697D01*
G37*
%LPD*%
%LPC*%
G36*
X345439Y115489D02*
X345439Y115489D01*
X345439Y122603D01*
X346898Y122603D01*
X352553Y116948D01*
X352553Y115489D01*
X345439Y115489D01*
G37*
%LPD*%
%LPC*%
G36*
X345439Y103297D02*
X345439Y103297D01*
X345439Y110411D01*
X352553Y110411D01*
X352553Y108952D01*
X346898Y103297D01*
X345439Y103297D01*
G37*
%LPD*%
%LPC*%
G36*
X333247Y115489D02*
X333247Y115489D01*
X333247Y116948D01*
X338902Y122603D01*
X340361Y122603D01*
X340361Y115489D01*
X333247Y115489D01*
G37*
%LPD*%
%LPC*%
G36*
X338902Y103297D02*
X338902Y103297D01*
X333247Y108952D01*
X333247Y110411D01*
X340361Y110411D01*
X340361Y103297D01*
X338902Y103297D01*
G37*
%LPD*%
%LPC*%
G36*
X25199Y106499D02*
X25199Y106499D01*
X25199Y113033D01*
X28718Y113033D01*
X29235Y112894D01*
X29698Y112627D01*
X30077Y112248D01*
X30344Y111785D01*
X30483Y111268D01*
X30483Y106499D01*
X25199Y106499D01*
G37*
%LPD*%
%LPC*%
G36*
X25199Y93467D02*
X25199Y93467D01*
X25199Y100001D01*
X30483Y100001D01*
X30483Y95232D01*
X30344Y94715D01*
X30077Y94252D01*
X29698Y93873D01*
X29235Y93606D01*
X28718Y93467D01*
X25199Y93467D01*
G37*
%LPD*%
%LPC*%
G36*
X13417Y106499D02*
X13417Y106499D01*
X13417Y111268D01*
X13556Y111785D01*
X13823Y112248D01*
X14202Y112627D01*
X14665Y112894D01*
X15182Y113033D01*
X18701Y113033D01*
X18701Y106499D01*
X13417Y106499D01*
G37*
%LPD*%
%LPC*%
G36*
X15182Y93467D02*
X15182Y93467D01*
X14665Y93606D01*
X14202Y93873D01*
X13823Y94252D01*
X13556Y94715D01*
X13417Y95232D01*
X13417Y100001D01*
X18701Y100001D01*
X18701Y93467D01*
X15182Y93467D01*
G37*
%LPD*%
%LPC*%
G36*
X141617Y97071D02*
X141617Y97071D01*
X141617Y106308D01*
X141756Y106825D01*
X142153Y107512D01*
X142160Y107529D01*
X142178Y107537D01*
X142865Y107934D01*
X143382Y108073D01*
X144119Y108073D01*
X144119Y97071D01*
X141617Y97071D01*
G37*
%LPD*%
%LPC*%
G36*
X148181Y97071D02*
X148181Y97071D01*
X148181Y108073D01*
X148918Y108073D01*
X149435Y107934D01*
X149898Y107667D01*
X150277Y107288D01*
X150544Y106825D01*
X150683Y106308D01*
X150683Y97071D01*
X148181Y97071D01*
G37*
%LPD*%
%LPC*%
G36*
X330999Y47999D02*
X330999Y47999D01*
X330999Y48001D01*
X331001Y48001D01*
X331001Y47999D01*
X330999Y47999D01*
G37*
%LPD*%
%LPC*%
G36*
X42999Y152999D02*
X42999Y152999D01*
X42999Y153001D01*
X43001Y153001D01*
X43001Y152999D01*
X42999Y152999D01*
G37*
%LPD*%
D10*
X177800Y164560D02*
X177800Y175640D01*
X165100Y175640D02*
X165100Y164560D01*
X152400Y164560D02*
X152400Y175640D01*
D11*
X398780Y163750D02*
X414020Y163750D01*
X414020Y138350D02*
X398780Y138350D01*
X398780Y112950D02*
X414020Y112950D01*
X414020Y87550D02*
X398780Y87550D01*
X398780Y62150D02*
X414020Y62150D01*
X414020Y36750D02*
X398780Y36750D01*
X449580Y163750D02*
X464820Y163750D01*
X464820Y138350D02*
X449580Y138350D01*
X449580Y112950D02*
X464820Y112950D01*
X464820Y87550D02*
X449580Y87550D01*
X449580Y62150D02*
X464820Y62150D01*
X464820Y36750D02*
X449580Y36750D01*
D12*
X331000Y48000D03*
X43000Y153000D03*
D13*
X317500Y163750D03*
D14*
X317500Y138350D03*
X317500Y112950D03*
X342900Y163750D03*
X342900Y138350D03*
X342900Y112950D03*
D15*
X184150Y95040D03*
X171550Y95040D03*
X158850Y95040D03*
X146150Y95040D03*
X184150Y31960D03*
X171450Y31960D03*
X158750Y31960D03*
X146050Y31960D03*
D16*
X234950Y58500D03*
X234950Y68500D03*
X120650Y58500D03*
X120650Y68500D03*
X260350Y58500D03*
X260350Y68500D03*
X247650Y58500D03*
X247650Y68500D03*
X273050Y58500D03*
X273050Y68500D03*
D17*
X209550Y57000D03*
X209550Y70000D03*
X222250Y57000D03*
X222250Y70000D03*
D18*
X66950Y23750D03*
X66950Y103250D03*
X21950Y23750D03*
X21950Y103250D03*
D19*
X101600Y71000D03*
X101600Y56000D03*
D20*
X406400Y38100D02*
X457200Y38100D01*
X406400Y38100D02*
X406400Y36750D01*
X457200Y36750D02*
X457200Y38100D01*
X114300Y53975D02*
X101600Y53975D01*
X114300Y53975D02*
X117475Y50800D01*
X127000Y50800D01*
X158750Y82550D01*
X158750Y92075D01*
X158850Y95040D01*
X371475Y34925D02*
X406400Y34925D01*
X371475Y34925D02*
X342900Y6350D01*
X149225Y6350D01*
X101600Y53975D01*
X406400Y36750D02*
X406400Y34925D01*
X101600Y53975D02*
X101600Y56000D01*
X234950Y69850D02*
X247650Y69850D01*
X257175Y60325D02*
X260350Y60325D01*
X257175Y60325D02*
X247650Y69850D01*
X260350Y60325D02*
X260350Y58500D01*
X247650Y68500D02*
X247650Y69850D01*
X215900Y63500D02*
X209550Y57150D01*
X215900Y63500D02*
X228600Y63500D01*
X234950Y69850D01*
X209550Y57150D02*
X209550Y57000D01*
X234950Y68500D02*
X234950Y69850D01*
X260350Y57150D02*
X266700Y50800D01*
X260350Y57150D02*
X260350Y58500D01*
X406400Y63500D02*
X457200Y63500D01*
X457200Y62150D01*
X406400Y62150D02*
X406400Y63500D01*
D21*
X266700Y50800D03*
D20*
X342900Y165100D02*
X406400Y165100D01*
X457200Y165100D01*
X457200Y163750D01*
X406400Y163750D02*
X406400Y165100D01*
X260350Y69850D02*
X254000Y76200D01*
X196850Y76200D01*
X184150Y63500D01*
X184150Y47625D01*
X260350Y68500D02*
X260350Y69850D01*
X222250Y53975D02*
X215900Y47625D01*
X184150Y47625D01*
X222250Y53975D02*
X222250Y57000D01*
X196850Y149225D02*
X177800Y168275D01*
X196850Y149225D02*
X196850Y76200D01*
X177800Y168275D02*
X177800Y170100D01*
X327025Y180975D02*
X342900Y165100D01*
X327025Y180975D02*
X228600Y180975D01*
X196850Y149225D01*
X342900Y163750D02*
X342900Y165100D01*
X183833Y46673D02*
X183833Y32385D01*
X184150Y31960D01*
X183833Y46673D02*
X184150Y47625D01*
X209550Y69850D02*
X222250Y69850D01*
X222250Y70000D01*
X247650Y58500D02*
X247650Y41275D01*
X209550Y69850D02*
X200025Y69850D01*
X209550Y69850D02*
X209550Y70000D01*
D21*
X200025Y69850D03*
D22*
X215900Y133350D03*
X273050Y139700D03*
X292100Y120650D03*
X374650Y101600D03*
X381000Y139700D03*
X44450Y63500D03*
X133350Y38100D03*
X196850Y31750D03*
X215900Y19050D03*
X260350Y25400D03*
X292100Y95250D03*
X152400Y12700D03*
X120650Y6350D03*
X177800Y127000D03*
X203200Y177800D03*
D20*
X120650Y85725D02*
X120650Y68500D01*
X146050Y53975D02*
X146050Y31960D01*
X146050Y53975D02*
X168275Y76200D01*
X187325Y76200D01*
X406400Y88900D02*
X457200Y88900D01*
X457200Y87550D01*
X406400Y87550D02*
X406400Y88900D01*
D21*
X187325Y76200D03*
D20*
X171450Y50800D02*
X171450Y31960D01*
X266700Y41275D02*
X301625Y76200D01*
X301625Y120650D01*
X317500Y136525D01*
X317500Y138350D01*
X406400Y114300D02*
X457200Y114300D01*
X457200Y112950D01*
X406400Y112950D02*
X406400Y114300D01*
D21*
X171450Y50800D03*
X266700Y41275D03*
D20*
X273050Y60325D02*
X276225Y60325D01*
X279400Y63500D01*
X279400Y73025D01*
X269875Y82550D01*
X273050Y60325D02*
X273050Y58500D01*
X130175Y104775D02*
X123825Y104775D01*
X69850Y104775D01*
X130175Y104775D02*
X142875Y117475D01*
X161925Y117475D01*
X171450Y107950D01*
X171450Y95250D01*
X69850Y104775D02*
X66950Y103250D01*
X171450Y95250D02*
X171550Y95040D01*
X123825Y101600D02*
X123825Y104775D01*
D21*
X269875Y82550D03*
X123825Y101600D03*
D20*
X184150Y104775D02*
X184150Y95040D01*
X184150Y104775D02*
X190500Y111125D01*
D21*
X190500Y111125D03*
D20*
X234950Y57150D02*
X190500Y12700D01*
X165100Y12700D01*
X158750Y19050D01*
X158750Y31960D01*
X234950Y57150D02*
X234950Y58500D01*
X158750Y57150D02*
X158750Y31960D01*
X158750Y57150D02*
X171450Y69850D01*
D21*
X171450Y69850D03*
D20*
X263525Y79375D02*
X273050Y69850D01*
X263525Y79375D02*
X263525Y123825D01*
X273050Y69850D02*
X273050Y68500D01*
D21*
X263525Y123825D03*
D20*
X120650Y60325D02*
X111125Y60325D01*
X101600Y69850D01*
X120650Y60325D02*
X120650Y58500D01*
X101600Y69850D02*
X101600Y71000D01*
M02*
