G04 EAGLE Gerber RS-274X export*
G75*
%MOMM*%
%FSLAX34Y34*%
%LPD*%
%INSilkscreen Top*%
%IPPOS*%
%AMOC8*
5,1,8,0,0,1.08239X$1,22.5*%
G01*
%ADD10C,0.076200*%
%ADD11C,0.152400*%
%ADD12C,0.203200*%
%ADD13C,0.127000*%
%ADD14C,0.050800*%
%ADD15C,0.101600*%
%ADD16C,0.120000*%


D10*
X426650Y164879D02*
X423515Y159448D01*
X427588Y157097D01*
X427798Y160596D01*
X428581Y161954D01*
X430723Y162528D01*
X433438Y160960D01*
X434012Y158818D01*
X432444Y156103D01*
X430303Y155529D01*
X433623Y164415D02*
X428192Y167550D01*
X433623Y164415D02*
X437906Y165563D01*
X436758Y169845D01*
X431328Y172981D01*
X424833Y132345D02*
X422691Y131771D01*
X421123Y129056D01*
X421697Y126915D01*
X427128Y123779D01*
X429269Y124353D01*
X430837Y127068D01*
X430263Y129210D01*
X427548Y130778D01*
X425980Y128062D01*
X433163Y131097D02*
X425017Y135800D01*
X436298Y136528D01*
X428153Y141231D01*
X429695Y143902D02*
X437841Y139199D01*
X440192Y143272D01*
X439618Y145413D01*
X434188Y148549D01*
X432046Y147975D01*
X429695Y143902D01*
X422691Y55571D02*
X421123Y52856D01*
X421697Y50715D01*
X427128Y47579D01*
X429269Y48153D01*
X430837Y50868D01*
X430263Y53010D01*
X424833Y56145D01*
X422691Y55571D01*
X425017Y59600D02*
X431805Y55681D01*
X433947Y56255D01*
X435515Y58970D01*
X434941Y61112D01*
X428153Y65031D01*
X431263Y70417D02*
X439408Y65714D01*
X429695Y67702D02*
X432830Y73133D01*
X417165Y19748D02*
X425311Y15045D01*
X417165Y19748D02*
X420300Y25179D01*
X422805Y20112D02*
X421238Y17397D01*
X424558Y26283D02*
X429988Y23147D01*
X424558Y26283D02*
X423410Y30566D01*
X427693Y31713D01*
X433123Y28578D01*
X429051Y30929D02*
X425915Y25499D01*
X433308Y32033D02*
X426520Y35952D01*
X433308Y32033D02*
X435450Y32607D01*
X437017Y35322D01*
X436443Y37463D01*
X429655Y41383D01*
X431197Y44054D02*
X439343Y39351D01*
X442479Y44781D01*
X445589Y50168D02*
X437443Y54871D01*
X439010Y57586D02*
X435875Y52156D01*
X422691Y106371D02*
X424833Y106945D01*
X422691Y106371D02*
X421123Y103656D01*
X421697Y101515D01*
X423055Y100731D01*
X425196Y101305D01*
X426764Y104020D01*
X428906Y104594D01*
X430263Y103810D01*
X430837Y101668D01*
X429269Y98953D01*
X427128Y98379D01*
X427369Y114473D02*
X429510Y115047D01*
X427369Y114473D02*
X425801Y111758D01*
X426375Y109616D01*
X431805Y106481D01*
X433947Y107055D01*
X435515Y109770D01*
X434941Y111912D01*
X437841Y113799D02*
X429695Y118502D01*
X435125Y115367D02*
X432830Y123933D01*
X434552Y117508D02*
X440976Y119230D01*
X424833Y81545D02*
X422691Y80971D01*
X421123Y78256D01*
X421697Y76115D01*
X423055Y75331D01*
X425196Y75905D01*
X426764Y78620D01*
X428906Y79194D01*
X430263Y78410D01*
X430837Y76268D01*
X429269Y73553D01*
X427128Y72979D01*
X433163Y80297D02*
X425017Y85000D01*
X433163Y80297D02*
X435515Y84370D01*
X434941Y86512D01*
X429510Y89647D01*
X427369Y89073D01*
X425017Y85000D01*
X432410Y91534D02*
X437841Y88399D01*
X432410Y91534D02*
X431263Y95817D01*
X435545Y96965D01*
X440976Y93830D01*
X436903Y96181D02*
X433768Y90751D01*
X474315Y159448D02*
X477450Y164879D01*
X474315Y159448D02*
X478388Y157097D01*
X478598Y160596D01*
X479381Y161954D01*
X481523Y162528D01*
X484238Y160960D01*
X484812Y158818D01*
X483244Y156103D01*
X481103Y155529D01*
X484423Y164415D02*
X478992Y167550D01*
X484423Y164415D02*
X488706Y165563D01*
X487558Y169845D01*
X482128Y172981D01*
X475633Y132345D02*
X473491Y131771D01*
X471923Y129056D01*
X472497Y126915D01*
X477928Y123779D01*
X480069Y124353D01*
X481637Y127068D01*
X481063Y129210D01*
X478348Y130778D01*
X476780Y128062D01*
X483963Y131097D02*
X475817Y135800D01*
X487098Y136528D01*
X478953Y141231D01*
X480495Y143902D02*
X488641Y139199D01*
X490992Y143272D01*
X490418Y145413D01*
X484988Y148549D01*
X482846Y147975D01*
X480495Y143902D01*
X473491Y55571D02*
X471923Y52856D01*
X472497Y50715D01*
X477928Y47579D01*
X480069Y48153D01*
X481637Y50868D01*
X481063Y53010D01*
X475633Y56145D01*
X473491Y55571D01*
X475817Y59600D02*
X482605Y55681D01*
X484747Y56255D01*
X486315Y58970D01*
X485741Y61112D01*
X478953Y65031D01*
X482063Y70417D02*
X490208Y65714D01*
X480495Y67702D02*
X483630Y73133D01*
X467965Y19748D02*
X476111Y15045D01*
X467965Y19748D02*
X471100Y25179D01*
X473605Y20112D02*
X472038Y17397D01*
X475358Y26283D02*
X480788Y23147D01*
X475358Y26283D02*
X474210Y30566D01*
X478493Y31713D01*
X483923Y28578D01*
X479851Y30929D02*
X476715Y25499D01*
X484108Y32033D02*
X477320Y35952D01*
X484108Y32033D02*
X486250Y32607D01*
X487817Y35322D01*
X487243Y37463D01*
X480455Y41383D01*
X481997Y44054D02*
X490143Y39351D01*
X493279Y44781D01*
X496389Y50168D02*
X488243Y54871D01*
X489810Y57586D02*
X486675Y52156D01*
X473491Y106371D02*
X475633Y106945D01*
X473491Y106371D02*
X471923Y103656D01*
X472497Y101515D01*
X473855Y100731D01*
X475996Y101305D01*
X477564Y104020D01*
X479706Y104594D01*
X481063Y103810D01*
X481637Y101668D01*
X480069Y98953D01*
X477928Y98379D01*
X478169Y114473D02*
X480310Y115047D01*
X478169Y114473D02*
X476601Y111758D01*
X477175Y109616D01*
X482605Y106481D01*
X484747Y107055D01*
X486315Y109770D01*
X485741Y111912D01*
X488641Y113799D02*
X480495Y118502D01*
X485925Y115367D02*
X483630Y123933D01*
X485352Y117508D02*
X491776Y119230D01*
X475633Y81545D02*
X473491Y80971D01*
X471923Y78256D01*
X472497Y76115D01*
X473855Y75331D01*
X475996Y75905D01*
X477564Y78620D01*
X479706Y79194D01*
X481063Y78410D01*
X481637Y76268D01*
X480069Y73553D01*
X477928Y72979D01*
X483963Y80297D02*
X475817Y85000D01*
X483963Y80297D02*
X486315Y84370D01*
X485741Y86512D01*
X480310Y89647D01*
X478169Y89073D01*
X475817Y85000D01*
X483210Y91534D02*
X488641Y88399D01*
X483210Y91534D02*
X482063Y95817D01*
X486345Y96965D01*
X491776Y93830D01*
X487703Y96181D02*
X484568Y90751D01*
D11*
X419100Y93900D02*
X419100Y81200D01*
X412750Y74850D01*
X400050Y74850D01*
X393700Y81200D01*
X412750Y74850D02*
X419100Y68500D01*
X419100Y55800D01*
X412750Y49450D01*
X400050Y49450D01*
X393700Y55800D01*
X393700Y68500D01*
X400050Y74850D01*
X419100Y119300D02*
X412750Y125650D01*
X419100Y119300D02*
X419100Y106600D01*
X412750Y100250D01*
X400050Y100250D01*
X393700Y106600D01*
X393700Y119300D01*
X400050Y125650D01*
X412750Y100250D02*
X419100Y93900D01*
X400050Y100250D02*
X393700Y93900D01*
X393700Y81200D01*
X419100Y157400D02*
X419100Y170100D01*
X419100Y157400D02*
X412750Y151050D01*
X400050Y151050D01*
X393700Y157400D01*
X412750Y151050D02*
X419100Y144700D01*
X419100Y132000D01*
X412750Y125650D01*
X400050Y125650D01*
X393700Y132000D01*
X393700Y144700D01*
X400050Y151050D01*
X400050Y176450D02*
X412750Y176450D01*
X419100Y170100D01*
X400050Y176450D02*
X393700Y170100D01*
X393700Y157400D01*
X419100Y43100D02*
X419100Y30400D01*
X412750Y24050D01*
X400050Y24050D01*
X393700Y30400D01*
X412750Y49450D02*
X419100Y43100D01*
X400050Y49450D02*
X393700Y43100D01*
X393700Y30400D01*
X469900Y81200D02*
X469900Y93900D01*
X469900Y81200D02*
X463550Y74850D01*
X450850Y74850D01*
X444500Y81200D01*
X463550Y74850D02*
X469900Y68500D01*
X469900Y55800D01*
X463550Y49450D01*
X450850Y49450D01*
X444500Y55800D01*
X444500Y68500D01*
X450850Y74850D01*
X469900Y119300D02*
X463550Y125650D01*
X469900Y119300D02*
X469900Y106600D01*
X463550Y100250D01*
X450850Y100250D01*
X444500Y106600D01*
X444500Y119300D01*
X450850Y125650D01*
X463550Y100250D02*
X469900Y93900D01*
X450850Y100250D02*
X444500Y93900D01*
X444500Y81200D01*
X469900Y157400D02*
X469900Y170100D01*
X469900Y157400D02*
X463550Y151050D01*
X450850Y151050D01*
X444500Y157400D01*
X463550Y151050D02*
X469900Y144700D01*
X469900Y132000D01*
X463550Y125650D01*
X450850Y125650D01*
X444500Y132000D01*
X444500Y144700D01*
X450850Y151050D01*
X450850Y176450D02*
X463550Y176450D01*
X469900Y170100D01*
X450850Y176450D02*
X444500Y170100D01*
X444500Y157400D01*
X469900Y43100D02*
X469900Y30400D01*
X463550Y24050D01*
X450850Y24050D01*
X444500Y30400D01*
X463550Y49450D02*
X469900Y43100D01*
X450850Y49450D02*
X444500Y43100D01*
X444500Y30400D01*
X296710Y48000D02*
X296720Y48842D01*
X296751Y49683D01*
X296803Y50523D01*
X296875Y51361D01*
X296968Y52197D01*
X297081Y53031D01*
X297215Y53862D01*
X297369Y54690D01*
X297543Y55513D01*
X297738Y56332D01*
X297952Y57146D01*
X298187Y57954D01*
X298441Y58756D01*
X298714Y59552D01*
X299008Y60341D01*
X299320Y61122D01*
X299652Y61896D01*
X300002Y62661D01*
X300371Y63417D01*
X300759Y64164D01*
X301165Y64901D01*
X301588Y65629D01*
X302030Y66345D01*
X302489Y67051D01*
X302965Y67744D01*
X303458Y68427D01*
X303968Y69096D01*
X304493Y69753D01*
X305035Y70397D01*
X305593Y71028D01*
X306166Y71644D01*
X306753Y72247D01*
X307356Y72834D01*
X307972Y73407D01*
X308603Y73965D01*
X309247Y74507D01*
X309904Y75032D01*
X310573Y75542D01*
X311256Y76035D01*
X311949Y76511D01*
X312655Y76970D01*
X313371Y77412D01*
X314099Y77835D01*
X314836Y78241D01*
X315583Y78629D01*
X316339Y78998D01*
X317104Y79348D01*
X317878Y79680D01*
X318659Y79992D01*
X319448Y80286D01*
X320244Y80559D01*
X321046Y80813D01*
X321854Y81048D01*
X322668Y81262D01*
X323487Y81457D01*
X324310Y81631D01*
X325138Y81785D01*
X325969Y81919D01*
X326803Y82032D01*
X327639Y82125D01*
X328477Y82197D01*
X329317Y82249D01*
X330158Y82280D01*
X331000Y82290D01*
X331842Y82280D01*
X332683Y82249D01*
X333523Y82197D01*
X334361Y82125D01*
X335197Y82032D01*
X336031Y81919D01*
X336862Y81785D01*
X337690Y81631D01*
X338513Y81457D01*
X339332Y81262D01*
X340146Y81048D01*
X340954Y80813D01*
X341756Y80559D01*
X342552Y80286D01*
X343341Y79992D01*
X344122Y79680D01*
X344896Y79348D01*
X345661Y78998D01*
X346417Y78629D01*
X347164Y78241D01*
X347901Y77835D01*
X348629Y77412D01*
X349345Y76970D01*
X350051Y76511D01*
X350744Y76035D01*
X351427Y75542D01*
X352096Y75032D01*
X352753Y74507D01*
X353397Y73965D01*
X354028Y73407D01*
X354644Y72834D01*
X355247Y72247D01*
X355834Y71644D01*
X356407Y71028D01*
X356965Y70397D01*
X357507Y69753D01*
X358032Y69096D01*
X358542Y68427D01*
X359035Y67744D01*
X359511Y67051D01*
X359970Y66345D01*
X360412Y65629D01*
X360835Y64901D01*
X361241Y64164D01*
X361629Y63417D01*
X361998Y62661D01*
X362348Y61896D01*
X362680Y61122D01*
X362992Y60341D01*
X363286Y59552D01*
X363559Y58756D01*
X363813Y57954D01*
X364048Y57146D01*
X364262Y56332D01*
X364457Y55513D01*
X364631Y54690D01*
X364785Y53862D01*
X364919Y53031D01*
X365032Y52197D01*
X365125Y51361D01*
X365197Y50523D01*
X365249Y49683D01*
X365280Y48842D01*
X365290Y48000D01*
X365280Y47158D01*
X365249Y46317D01*
X365197Y45477D01*
X365125Y44639D01*
X365032Y43803D01*
X364919Y42969D01*
X364785Y42138D01*
X364631Y41310D01*
X364457Y40487D01*
X364262Y39668D01*
X364048Y38854D01*
X363813Y38046D01*
X363559Y37244D01*
X363286Y36448D01*
X362992Y35659D01*
X362680Y34878D01*
X362348Y34104D01*
X361998Y33339D01*
X361629Y32583D01*
X361241Y31836D01*
X360835Y31099D01*
X360412Y30371D01*
X359970Y29655D01*
X359511Y28949D01*
X359035Y28256D01*
X358542Y27573D01*
X358032Y26904D01*
X357507Y26247D01*
X356965Y25603D01*
X356407Y24972D01*
X355834Y24356D01*
X355247Y23753D01*
X354644Y23166D01*
X354028Y22593D01*
X353397Y22035D01*
X352753Y21493D01*
X352096Y20968D01*
X351427Y20458D01*
X350744Y19965D01*
X350051Y19489D01*
X349345Y19030D01*
X348629Y18588D01*
X347901Y18165D01*
X347164Y17759D01*
X346417Y17371D01*
X345661Y17002D01*
X344896Y16652D01*
X344122Y16320D01*
X343341Y16008D01*
X342552Y15714D01*
X341756Y15441D01*
X340954Y15187D01*
X340146Y14952D01*
X339332Y14738D01*
X338513Y14543D01*
X337690Y14369D01*
X336862Y14215D01*
X336031Y14081D01*
X335197Y13968D01*
X334361Y13875D01*
X333523Y13803D01*
X332683Y13751D01*
X331842Y13720D01*
X331000Y13710D01*
X330158Y13720D01*
X329317Y13751D01*
X328477Y13803D01*
X327639Y13875D01*
X326803Y13968D01*
X325969Y14081D01*
X325138Y14215D01*
X324310Y14369D01*
X323487Y14543D01*
X322668Y14738D01*
X321854Y14952D01*
X321046Y15187D01*
X320244Y15441D01*
X319448Y15714D01*
X318659Y16008D01*
X317878Y16320D01*
X317104Y16652D01*
X316339Y17002D01*
X315583Y17371D01*
X314836Y17759D01*
X314099Y18165D01*
X313371Y18588D01*
X312655Y19030D01*
X311949Y19489D01*
X311256Y19965D01*
X310573Y20458D01*
X309904Y20968D01*
X309247Y21493D01*
X308603Y22035D01*
X307972Y22593D01*
X307356Y23166D01*
X306753Y23753D01*
X306166Y24356D01*
X305593Y24972D01*
X305035Y25603D01*
X304493Y26247D01*
X303968Y26904D01*
X303458Y27573D01*
X302965Y28256D01*
X302489Y28949D01*
X302030Y29655D01*
X301588Y30371D01*
X301165Y31099D01*
X300759Y31836D01*
X300371Y32583D01*
X300002Y33339D01*
X299652Y34104D01*
X299320Y34878D01*
X299008Y35659D01*
X298714Y36448D01*
X298441Y37244D01*
X298187Y38046D01*
X297952Y38854D01*
X297738Y39668D01*
X297543Y40487D01*
X297369Y41310D01*
X297215Y42138D01*
X297081Y42969D01*
X296968Y43803D01*
X296875Y44639D01*
X296803Y45477D01*
X296751Y46317D01*
X296720Y47158D01*
X296710Y48000D01*
D12*
X315000Y48000D02*
X315005Y48393D01*
X315019Y48785D01*
X315043Y49177D01*
X315077Y49568D01*
X315120Y49959D01*
X315173Y50348D01*
X315236Y50735D01*
X315307Y51121D01*
X315389Y51506D01*
X315479Y51888D01*
X315580Y52267D01*
X315689Y52645D01*
X315808Y53019D01*
X315935Y53390D01*
X316072Y53758D01*
X316218Y54123D01*
X316373Y54484D01*
X316536Y54841D01*
X316708Y55194D01*
X316889Y55542D01*
X317079Y55886D01*
X317276Y56226D01*
X317482Y56560D01*
X317696Y56889D01*
X317919Y57213D01*
X318149Y57531D01*
X318386Y57844D01*
X318632Y58150D01*
X318885Y58451D01*
X319145Y58745D01*
X319412Y59033D01*
X319686Y59314D01*
X319967Y59588D01*
X320255Y59855D01*
X320549Y60115D01*
X320850Y60368D01*
X321156Y60614D01*
X321469Y60851D01*
X321787Y61081D01*
X322111Y61304D01*
X322440Y61518D01*
X322774Y61724D01*
X323114Y61921D01*
X323458Y62111D01*
X323806Y62292D01*
X324159Y62464D01*
X324516Y62627D01*
X324877Y62782D01*
X325242Y62928D01*
X325610Y63065D01*
X325981Y63192D01*
X326355Y63311D01*
X326733Y63420D01*
X327112Y63521D01*
X327494Y63611D01*
X327879Y63693D01*
X328265Y63764D01*
X328652Y63827D01*
X329041Y63880D01*
X329432Y63923D01*
X329823Y63957D01*
X330215Y63981D01*
X330607Y63995D01*
X331000Y64000D01*
X331393Y63995D01*
X331785Y63981D01*
X332177Y63957D01*
X332568Y63923D01*
X332959Y63880D01*
X333348Y63827D01*
X333735Y63764D01*
X334121Y63693D01*
X334506Y63611D01*
X334888Y63521D01*
X335267Y63420D01*
X335645Y63311D01*
X336019Y63192D01*
X336390Y63065D01*
X336758Y62928D01*
X337123Y62782D01*
X337484Y62627D01*
X337841Y62464D01*
X338194Y62292D01*
X338542Y62111D01*
X338886Y61921D01*
X339226Y61724D01*
X339560Y61518D01*
X339889Y61304D01*
X340213Y61081D01*
X340531Y60851D01*
X340844Y60614D01*
X341150Y60368D01*
X341451Y60115D01*
X341745Y59855D01*
X342033Y59588D01*
X342314Y59314D01*
X342588Y59033D01*
X342855Y58745D01*
X343115Y58451D01*
X343368Y58150D01*
X343614Y57844D01*
X343851Y57531D01*
X344081Y57213D01*
X344304Y56889D01*
X344518Y56560D01*
X344724Y56226D01*
X344921Y55886D01*
X345111Y55542D01*
X345292Y55194D01*
X345464Y54841D01*
X345627Y54484D01*
X345782Y54123D01*
X345928Y53758D01*
X346065Y53390D01*
X346192Y53019D01*
X346311Y52645D01*
X346420Y52267D01*
X346521Y51888D01*
X346611Y51506D01*
X346693Y51121D01*
X346764Y50735D01*
X346827Y50348D01*
X346880Y49959D01*
X346923Y49568D01*
X346957Y49177D01*
X346981Y48785D01*
X346995Y48393D01*
X347000Y48000D01*
X346995Y47607D01*
X346981Y47215D01*
X346957Y46823D01*
X346923Y46432D01*
X346880Y46041D01*
X346827Y45652D01*
X346764Y45265D01*
X346693Y44879D01*
X346611Y44494D01*
X346521Y44112D01*
X346420Y43733D01*
X346311Y43355D01*
X346192Y42981D01*
X346065Y42610D01*
X345928Y42242D01*
X345782Y41877D01*
X345627Y41516D01*
X345464Y41159D01*
X345292Y40806D01*
X345111Y40458D01*
X344921Y40114D01*
X344724Y39774D01*
X344518Y39440D01*
X344304Y39111D01*
X344081Y38787D01*
X343851Y38469D01*
X343614Y38156D01*
X343368Y37850D01*
X343115Y37549D01*
X342855Y37255D01*
X342588Y36967D01*
X342314Y36686D01*
X342033Y36412D01*
X341745Y36145D01*
X341451Y35885D01*
X341150Y35632D01*
X340844Y35386D01*
X340531Y35149D01*
X340213Y34919D01*
X339889Y34696D01*
X339560Y34482D01*
X339226Y34276D01*
X338886Y34079D01*
X338542Y33889D01*
X338194Y33708D01*
X337841Y33536D01*
X337484Y33373D01*
X337123Y33218D01*
X336758Y33072D01*
X336390Y32935D01*
X336019Y32808D01*
X335645Y32689D01*
X335267Y32580D01*
X334888Y32479D01*
X334506Y32389D01*
X334121Y32307D01*
X333735Y32236D01*
X333348Y32173D01*
X332959Y32120D01*
X332568Y32077D01*
X332177Y32043D01*
X331785Y32019D01*
X331393Y32005D01*
X331000Y32000D01*
X330607Y32005D01*
X330215Y32019D01*
X329823Y32043D01*
X329432Y32077D01*
X329041Y32120D01*
X328652Y32173D01*
X328265Y32236D01*
X327879Y32307D01*
X327494Y32389D01*
X327112Y32479D01*
X326733Y32580D01*
X326355Y32689D01*
X325981Y32808D01*
X325610Y32935D01*
X325242Y33072D01*
X324877Y33218D01*
X324516Y33373D01*
X324159Y33536D01*
X323806Y33708D01*
X323458Y33889D01*
X323114Y34079D01*
X322774Y34276D01*
X322440Y34482D01*
X322111Y34696D01*
X321787Y34919D01*
X321469Y35149D01*
X321156Y35386D01*
X320850Y35632D01*
X320549Y35885D01*
X320255Y36145D01*
X319967Y36412D01*
X319686Y36686D01*
X319412Y36967D01*
X319145Y37255D01*
X318885Y37549D01*
X318632Y37850D01*
X318386Y38156D01*
X318149Y38469D01*
X317919Y38787D01*
X317696Y39111D01*
X317482Y39440D01*
X317276Y39774D01*
X317079Y40114D01*
X316889Y40458D01*
X316708Y40806D01*
X316536Y41159D01*
X316373Y41516D01*
X316218Y41877D01*
X316072Y42242D01*
X315935Y42610D01*
X315808Y42981D01*
X315689Y43355D01*
X315580Y43733D01*
X315479Y44112D01*
X315389Y44494D01*
X315307Y44879D01*
X315236Y45265D01*
X315173Y45652D01*
X315120Y46041D01*
X315077Y46432D01*
X315043Y46823D01*
X315019Y47215D01*
X315005Y47607D01*
X315000Y48000D01*
D11*
X8710Y153000D02*
X8720Y153842D01*
X8751Y154683D01*
X8803Y155523D01*
X8875Y156361D01*
X8968Y157197D01*
X9081Y158031D01*
X9215Y158862D01*
X9369Y159690D01*
X9543Y160513D01*
X9738Y161332D01*
X9952Y162146D01*
X10187Y162954D01*
X10441Y163756D01*
X10714Y164552D01*
X11008Y165341D01*
X11320Y166122D01*
X11652Y166896D01*
X12002Y167661D01*
X12371Y168417D01*
X12759Y169164D01*
X13165Y169901D01*
X13588Y170629D01*
X14030Y171345D01*
X14489Y172051D01*
X14965Y172744D01*
X15458Y173427D01*
X15968Y174096D01*
X16493Y174753D01*
X17035Y175397D01*
X17593Y176028D01*
X18166Y176644D01*
X18753Y177247D01*
X19356Y177834D01*
X19972Y178407D01*
X20603Y178965D01*
X21247Y179507D01*
X21904Y180032D01*
X22573Y180542D01*
X23256Y181035D01*
X23949Y181511D01*
X24655Y181970D01*
X25371Y182412D01*
X26099Y182835D01*
X26836Y183241D01*
X27583Y183629D01*
X28339Y183998D01*
X29104Y184348D01*
X29878Y184680D01*
X30659Y184992D01*
X31448Y185286D01*
X32244Y185559D01*
X33046Y185813D01*
X33854Y186048D01*
X34668Y186262D01*
X35487Y186457D01*
X36310Y186631D01*
X37138Y186785D01*
X37969Y186919D01*
X38803Y187032D01*
X39639Y187125D01*
X40477Y187197D01*
X41317Y187249D01*
X42158Y187280D01*
X43000Y187290D01*
X43842Y187280D01*
X44683Y187249D01*
X45523Y187197D01*
X46361Y187125D01*
X47197Y187032D01*
X48031Y186919D01*
X48862Y186785D01*
X49690Y186631D01*
X50513Y186457D01*
X51332Y186262D01*
X52146Y186048D01*
X52954Y185813D01*
X53756Y185559D01*
X54552Y185286D01*
X55341Y184992D01*
X56122Y184680D01*
X56896Y184348D01*
X57661Y183998D01*
X58417Y183629D01*
X59164Y183241D01*
X59901Y182835D01*
X60629Y182412D01*
X61345Y181970D01*
X62051Y181511D01*
X62744Y181035D01*
X63427Y180542D01*
X64096Y180032D01*
X64753Y179507D01*
X65397Y178965D01*
X66028Y178407D01*
X66644Y177834D01*
X67247Y177247D01*
X67834Y176644D01*
X68407Y176028D01*
X68965Y175397D01*
X69507Y174753D01*
X70032Y174096D01*
X70542Y173427D01*
X71035Y172744D01*
X71511Y172051D01*
X71970Y171345D01*
X72412Y170629D01*
X72835Y169901D01*
X73241Y169164D01*
X73629Y168417D01*
X73998Y167661D01*
X74348Y166896D01*
X74680Y166122D01*
X74992Y165341D01*
X75286Y164552D01*
X75559Y163756D01*
X75813Y162954D01*
X76048Y162146D01*
X76262Y161332D01*
X76457Y160513D01*
X76631Y159690D01*
X76785Y158862D01*
X76919Y158031D01*
X77032Y157197D01*
X77125Y156361D01*
X77197Y155523D01*
X77249Y154683D01*
X77280Y153842D01*
X77290Y153000D01*
X77280Y152158D01*
X77249Y151317D01*
X77197Y150477D01*
X77125Y149639D01*
X77032Y148803D01*
X76919Y147969D01*
X76785Y147138D01*
X76631Y146310D01*
X76457Y145487D01*
X76262Y144668D01*
X76048Y143854D01*
X75813Y143046D01*
X75559Y142244D01*
X75286Y141448D01*
X74992Y140659D01*
X74680Y139878D01*
X74348Y139104D01*
X73998Y138339D01*
X73629Y137583D01*
X73241Y136836D01*
X72835Y136099D01*
X72412Y135371D01*
X71970Y134655D01*
X71511Y133949D01*
X71035Y133256D01*
X70542Y132573D01*
X70032Y131904D01*
X69507Y131247D01*
X68965Y130603D01*
X68407Y129972D01*
X67834Y129356D01*
X67247Y128753D01*
X66644Y128166D01*
X66028Y127593D01*
X65397Y127035D01*
X64753Y126493D01*
X64096Y125968D01*
X63427Y125458D01*
X62744Y124965D01*
X62051Y124489D01*
X61345Y124030D01*
X60629Y123588D01*
X59901Y123165D01*
X59164Y122759D01*
X58417Y122371D01*
X57661Y122002D01*
X56896Y121652D01*
X56122Y121320D01*
X55341Y121008D01*
X54552Y120714D01*
X53756Y120441D01*
X52954Y120187D01*
X52146Y119952D01*
X51332Y119738D01*
X50513Y119543D01*
X49690Y119369D01*
X48862Y119215D01*
X48031Y119081D01*
X47197Y118968D01*
X46361Y118875D01*
X45523Y118803D01*
X44683Y118751D01*
X43842Y118720D01*
X43000Y118710D01*
X42158Y118720D01*
X41317Y118751D01*
X40477Y118803D01*
X39639Y118875D01*
X38803Y118968D01*
X37969Y119081D01*
X37138Y119215D01*
X36310Y119369D01*
X35487Y119543D01*
X34668Y119738D01*
X33854Y119952D01*
X33046Y120187D01*
X32244Y120441D01*
X31448Y120714D01*
X30659Y121008D01*
X29878Y121320D01*
X29104Y121652D01*
X28339Y122002D01*
X27583Y122371D01*
X26836Y122759D01*
X26099Y123165D01*
X25371Y123588D01*
X24655Y124030D01*
X23949Y124489D01*
X23256Y124965D01*
X22573Y125458D01*
X21904Y125968D01*
X21247Y126493D01*
X20603Y127035D01*
X19972Y127593D01*
X19356Y128166D01*
X18753Y128753D01*
X18166Y129356D01*
X17593Y129972D01*
X17035Y130603D01*
X16493Y131247D01*
X15968Y131904D01*
X15458Y132573D01*
X14965Y133256D01*
X14489Y133949D01*
X14030Y134655D01*
X13588Y135371D01*
X13165Y136099D01*
X12759Y136836D01*
X12371Y137583D01*
X12002Y138339D01*
X11652Y139104D01*
X11320Y139878D01*
X11008Y140659D01*
X10714Y141448D01*
X10441Y142244D01*
X10187Y143046D01*
X9952Y143854D01*
X9738Y144668D01*
X9543Y145487D01*
X9369Y146310D01*
X9215Y147138D01*
X9081Y147969D01*
X8968Y148803D01*
X8875Y149639D01*
X8803Y150477D01*
X8751Y151317D01*
X8720Y152158D01*
X8710Y153000D01*
D12*
X27000Y153000D02*
X27005Y153393D01*
X27019Y153785D01*
X27043Y154177D01*
X27077Y154568D01*
X27120Y154959D01*
X27173Y155348D01*
X27236Y155735D01*
X27307Y156121D01*
X27389Y156506D01*
X27479Y156888D01*
X27580Y157267D01*
X27689Y157645D01*
X27808Y158019D01*
X27935Y158390D01*
X28072Y158758D01*
X28218Y159123D01*
X28373Y159484D01*
X28536Y159841D01*
X28708Y160194D01*
X28889Y160542D01*
X29079Y160886D01*
X29276Y161226D01*
X29482Y161560D01*
X29696Y161889D01*
X29919Y162213D01*
X30149Y162531D01*
X30386Y162844D01*
X30632Y163150D01*
X30885Y163451D01*
X31145Y163745D01*
X31412Y164033D01*
X31686Y164314D01*
X31967Y164588D01*
X32255Y164855D01*
X32549Y165115D01*
X32850Y165368D01*
X33156Y165614D01*
X33469Y165851D01*
X33787Y166081D01*
X34111Y166304D01*
X34440Y166518D01*
X34774Y166724D01*
X35114Y166921D01*
X35458Y167111D01*
X35806Y167292D01*
X36159Y167464D01*
X36516Y167627D01*
X36877Y167782D01*
X37242Y167928D01*
X37610Y168065D01*
X37981Y168192D01*
X38355Y168311D01*
X38733Y168420D01*
X39112Y168521D01*
X39494Y168611D01*
X39879Y168693D01*
X40265Y168764D01*
X40652Y168827D01*
X41041Y168880D01*
X41432Y168923D01*
X41823Y168957D01*
X42215Y168981D01*
X42607Y168995D01*
X43000Y169000D01*
X43393Y168995D01*
X43785Y168981D01*
X44177Y168957D01*
X44568Y168923D01*
X44959Y168880D01*
X45348Y168827D01*
X45735Y168764D01*
X46121Y168693D01*
X46506Y168611D01*
X46888Y168521D01*
X47267Y168420D01*
X47645Y168311D01*
X48019Y168192D01*
X48390Y168065D01*
X48758Y167928D01*
X49123Y167782D01*
X49484Y167627D01*
X49841Y167464D01*
X50194Y167292D01*
X50542Y167111D01*
X50886Y166921D01*
X51226Y166724D01*
X51560Y166518D01*
X51889Y166304D01*
X52213Y166081D01*
X52531Y165851D01*
X52844Y165614D01*
X53150Y165368D01*
X53451Y165115D01*
X53745Y164855D01*
X54033Y164588D01*
X54314Y164314D01*
X54588Y164033D01*
X54855Y163745D01*
X55115Y163451D01*
X55368Y163150D01*
X55614Y162844D01*
X55851Y162531D01*
X56081Y162213D01*
X56304Y161889D01*
X56518Y161560D01*
X56724Y161226D01*
X56921Y160886D01*
X57111Y160542D01*
X57292Y160194D01*
X57464Y159841D01*
X57627Y159484D01*
X57782Y159123D01*
X57928Y158758D01*
X58065Y158390D01*
X58192Y158019D01*
X58311Y157645D01*
X58420Y157267D01*
X58521Y156888D01*
X58611Y156506D01*
X58693Y156121D01*
X58764Y155735D01*
X58827Y155348D01*
X58880Y154959D01*
X58923Y154568D01*
X58957Y154177D01*
X58981Y153785D01*
X58995Y153393D01*
X59000Y153000D01*
X58995Y152607D01*
X58981Y152215D01*
X58957Y151823D01*
X58923Y151432D01*
X58880Y151041D01*
X58827Y150652D01*
X58764Y150265D01*
X58693Y149879D01*
X58611Y149494D01*
X58521Y149112D01*
X58420Y148733D01*
X58311Y148355D01*
X58192Y147981D01*
X58065Y147610D01*
X57928Y147242D01*
X57782Y146877D01*
X57627Y146516D01*
X57464Y146159D01*
X57292Y145806D01*
X57111Y145458D01*
X56921Y145114D01*
X56724Y144774D01*
X56518Y144440D01*
X56304Y144111D01*
X56081Y143787D01*
X55851Y143469D01*
X55614Y143156D01*
X55368Y142850D01*
X55115Y142549D01*
X54855Y142255D01*
X54588Y141967D01*
X54314Y141686D01*
X54033Y141412D01*
X53745Y141145D01*
X53451Y140885D01*
X53150Y140632D01*
X52844Y140386D01*
X52531Y140149D01*
X52213Y139919D01*
X51889Y139696D01*
X51560Y139482D01*
X51226Y139276D01*
X50886Y139079D01*
X50542Y138889D01*
X50194Y138708D01*
X49841Y138536D01*
X49484Y138373D01*
X49123Y138218D01*
X48758Y138072D01*
X48390Y137935D01*
X48019Y137808D01*
X47645Y137689D01*
X47267Y137580D01*
X46888Y137479D01*
X46506Y137389D01*
X46121Y137307D01*
X45735Y137236D01*
X45348Y137173D01*
X44959Y137120D01*
X44568Y137077D01*
X44177Y137043D01*
X43785Y137019D01*
X43393Y137005D01*
X43000Y137000D01*
X42607Y137005D01*
X42215Y137019D01*
X41823Y137043D01*
X41432Y137077D01*
X41041Y137120D01*
X40652Y137173D01*
X40265Y137236D01*
X39879Y137307D01*
X39494Y137389D01*
X39112Y137479D01*
X38733Y137580D01*
X38355Y137689D01*
X37981Y137808D01*
X37610Y137935D01*
X37242Y138072D01*
X36877Y138218D01*
X36516Y138373D01*
X36159Y138536D01*
X35806Y138708D01*
X35458Y138889D01*
X35114Y139079D01*
X34774Y139276D01*
X34440Y139482D01*
X34111Y139696D01*
X33787Y139919D01*
X33469Y140149D01*
X33156Y140386D01*
X32850Y140632D01*
X32549Y140885D01*
X32255Y141145D01*
X31967Y141412D01*
X31686Y141686D01*
X31412Y141967D01*
X31145Y142255D01*
X30885Y142549D01*
X30632Y142850D01*
X30386Y143156D01*
X30149Y143469D01*
X29919Y143787D01*
X29696Y144111D01*
X29482Y144440D01*
X29276Y144774D01*
X29079Y145114D01*
X28889Y145458D01*
X28708Y145806D01*
X28536Y146159D01*
X28373Y146516D01*
X28218Y146877D01*
X28072Y147242D01*
X27935Y147610D01*
X27808Y147981D01*
X27689Y148355D01*
X27580Y148733D01*
X27479Y149112D01*
X27389Y149494D01*
X27307Y149879D01*
X27236Y150265D01*
X27173Y150652D01*
X27120Y151041D01*
X27077Y151432D01*
X27043Y151823D01*
X27019Y152215D01*
X27005Y152607D01*
X27000Y153000D01*
D11*
X355600Y157400D02*
X355600Y170100D01*
X355600Y157400D02*
X349250Y151050D01*
X355600Y144700D01*
X355600Y132000D01*
X349250Y125650D01*
X355600Y170100D02*
X349250Y176450D01*
X349250Y125650D02*
X355600Y119300D01*
X355600Y106600D01*
X349250Y100250D01*
X311150Y100250D01*
X311150Y151050D02*
X304800Y157400D01*
X304800Y132000D02*
X311150Y125650D01*
X304800Y132000D02*
X304800Y144700D01*
X311150Y151050D01*
X311150Y176450D02*
X349250Y176450D01*
X311150Y176450D02*
X304800Y170100D01*
X304800Y157400D01*
X304800Y106600D02*
X311150Y100250D01*
X304800Y106600D02*
X304800Y119300D01*
X311150Y125650D01*
D13*
X315589Y178091D02*
X311775Y181904D01*
X323215Y181904D01*
X323215Y178091D02*
X323215Y185718D01*
X337175Y94278D02*
X339082Y90464D01*
X342895Y86651D01*
X346708Y86651D01*
X348615Y88558D01*
X348615Y92371D01*
X346708Y94278D01*
X344802Y94278D01*
X342895Y92371D01*
X342895Y86651D01*
D11*
X191100Y41000D02*
X191098Y40902D01*
X191092Y40804D01*
X191083Y40706D01*
X191069Y40609D01*
X191052Y40512D01*
X191031Y40416D01*
X191006Y40321D01*
X190978Y40227D01*
X190945Y40135D01*
X190910Y40043D01*
X190870Y39953D01*
X190828Y39865D01*
X190781Y39778D01*
X190732Y39694D01*
X190679Y39611D01*
X190623Y39531D01*
X190563Y39452D01*
X190501Y39376D01*
X190436Y39303D01*
X190368Y39232D01*
X190297Y39164D01*
X190224Y39099D01*
X190148Y39037D01*
X190069Y38977D01*
X189989Y38921D01*
X189906Y38868D01*
X189822Y38819D01*
X189735Y38772D01*
X189647Y38730D01*
X189557Y38690D01*
X189465Y38655D01*
X189373Y38622D01*
X189279Y38594D01*
X189184Y38569D01*
X189088Y38548D01*
X188991Y38531D01*
X188894Y38517D01*
X188796Y38508D01*
X188698Y38502D01*
X188600Y38500D01*
X141600Y38500D02*
X141502Y38502D01*
X141404Y38508D01*
X141306Y38517D01*
X141209Y38531D01*
X141112Y38548D01*
X141016Y38569D01*
X140921Y38594D01*
X140827Y38622D01*
X140735Y38655D01*
X140643Y38690D01*
X140553Y38730D01*
X140465Y38772D01*
X140378Y38819D01*
X140294Y38868D01*
X140211Y38921D01*
X140131Y38977D01*
X140052Y39037D01*
X139976Y39099D01*
X139903Y39164D01*
X139832Y39232D01*
X139764Y39303D01*
X139699Y39376D01*
X139637Y39452D01*
X139577Y39531D01*
X139521Y39611D01*
X139468Y39694D01*
X139419Y39778D01*
X139372Y39865D01*
X139330Y39953D01*
X139290Y40043D01*
X139255Y40135D01*
X139222Y40227D01*
X139194Y40321D01*
X139169Y40416D01*
X139148Y40512D01*
X139131Y40609D01*
X139117Y40706D01*
X139108Y40804D01*
X139102Y40902D01*
X139100Y41000D01*
X139100Y86000D02*
X139102Y86098D01*
X139108Y86196D01*
X139117Y86294D01*
X139131Y86391D01*
X139148Y86488D01*
X139169Y86584D01*
X139194Y86679D01*
X139222Y86773D01*
X139255Y86865D01*
X139290Y86957D01*
X139330Y87047D01*
X139372Y87135D01*
X139419Y87222D01*
X139468Y87306D01*
X139521Y87389D01*
X139577Y87469D01*
X139637Y87548D01*
X139699Y87624D01*
X139764Y87697D01*
X139832Y87768D01*
X139903Y87836D01*
X139976Y87901D01*
X140052Y87963D01*
X140131Y88023D01*
X140211Y88079D01*
X140294Y88132D01*
X140378Y88181D01*
X140465Y88228D01*
X140553Y88270D01*
X140643Y88310D01*
X140735Y88345D01*
X140827Y88378D01*
X140921Y88406D01*
X141016Y88431D01*
X141112Y88452D01*
X141209Y88469D01*
X141306Y88483D01*
X141404Y88492D01*
X141502Y88498D01*
X141600Y88500D01*
X188600Y88500D02*
X188698Y88498D01*
X188796Y88492D01*
X188894Y88483D01*
X188991Y88469D01*
X189088Y88452D01*
X189184Y88431D01*
X189279Y88406D01*
X189373Y88378D01*
X189465Y88345D01*
X189557Y88310D01*
X189647Y88270D01*
X189735Y88228D01*
X189822Y88181D01*
X189906Y88132D01*
X189989Y88079D01*
X190069Y88023D01*
X190148Y87963D01*
X190224Y87901D01*
X190297Y87836D01*
X190368Y87768D01*
X190436Y87697D01*
X190501Y87624D01*
X190563Y87548D01*
X190623Y87469D01*
X190679Y87389D01*
X190732Y87306D01*
X190781Y87222D01*
X190828Y87135D01*
X190870Y87047D01*
X190910Y86957D01*
X190945Y86865D01*
X190978Y86773D01*
X191006Y86679D01*
X191031Y86584D01*
X191052Y86488D01*
X191069Y86391D01*
X191083Y86294D01*
X191092Y86196D01*
X191098Y86098D01*
X191100Y86000D01*
X188500Y38500D02*
X187200Y38500D01*
X181000Y38500D02*
X174600Y38500D01*
X168300Y38500D02*
X161900Y38500D01*
X155600Y38500D02*
X149200Y38500D01*
X143000Y38500D02*
X141500Y38500D01*
X141800Y88500D02*
X143100Y88500D01*
X149200Y88500D02*
X155700Y88500D01*
X161900Y88500D02*
X168400Y88500D01*
X174600Y88500D02*
X181000Y88500D01*
X187200Y88500D02*
X188500Y88500D01*
X191100Y85900D02*
X191100Y41000D01*
X139100Y41000D02*
X139100Y86000D01*
D14*
X174300Y74650D02*
X174302Y74791D01*
X174308Y74932D01*
X174318Y75072D01*
X174332Y75212D01*
X174350Y75352D01*
X174371Y75491D01*
X174397Y75630D01*
X174426Y75768D01*
X174460Y75904D01*
X174497Y76040D01*
X174538Y76175D01*
X174583Y76309D01*
X174632Y76441D01*
X174684Y76572D01*
X174740Y76701D01*
X174800Y76828D01*
X174863Y76954D01*
X174929Y77078D01*
X175000Y77201D01*
X175073Y77321D01*
X175150Y77439D01*
X175230Y77555D01*
X175314Y77668D01*
X175400Y77779D01*
X175490Y77888D01*
X175583Y77994D01*
X175678Y78097D01*
X175777Y78198D01*
X175878Y78296D01*
X175982Y78391D01*
X176089Y78483D01*
X176198Y78572D01*
X176310Y78657D01*
X176424Y78740D01*
X176540Y78820D01*
X176659Y78896D01*
X176780Y78968D01*
X176902Y79038D01*
X177027Y79103D01*
X177153Y79166D01*
X177281Y79224D01*
X177411Y79279D01*
X177542Y79331D01*
X177675Y79378D01*
X177809Y79422D01*
X177944Y79463D01*
X178080Y79499D01*
X178217Y79531D01*
X178355Y79560D01*
X178493Y79585D01*
X178633Y79605D01*
X178773Y79622D01*
X178913Y79635D01*
X179054Y79644D01*
X179194Y79649D01*
X179335Y79650D01*
X179476Y79647D01*
X179617Y79640D01*
X179757Y79629D01*
X179897Y79614D01*
X180037Y79595D01*
X180176Y79573D01*
X180314Y79546D01*
X180452Y79516D01*
X180588Y79481D01*
X180724Y79443D01*
X180858Y79401D01*
X180992Y79355D01*
X181124Y79306D01*
X181254Y79252D01*
X181383Y79195D01*
X181510Y79135D01*
X181636Y79071D01*
X181759Y79003D01*
X181881Y78932D01*
X182001Y78858D01*
X182118Y78780D01*
X182233Y78699D01*
X182346Y78615D01*
X182457Y78528D01*
X182565Y78437D01*
X182670Y78344D01*
X182773Y78247D01*
X182873Y78148D01*
X182970Y78046D01*
X183064Y77941D01*
X183155Y77834D01*
X183243Y77724D01*
X183328Y77612D01*
X183410Y77497D01*
X183489Y77380D01*
X183564Y77261D01*
X183636Y77140D01*
X183704Y77017D01*
X183769Y76892D01*
X183831Y76765D01*
X183888Y76636D01*
X183943Y76506D01*
X183993Y76375D01*
X184040Y76242D01*
X184083Y76108D01*
X184122Y75972D01*
X184157Y75836D01*
X184189Y75699D01*
X184216Y75561D01*
X184240Y75422D01*
X184260Y75282D01*
X184276Y75142D01*
X184288Y75002D01*
X184296Y74861D01*
X184300Y74720D01*
X184300Y74580D01*
X184296Y74439D01*
X184288Y74298D01*
X184276Y74158D01*
X184260Y74018D01*
X184240Y73878D01*
X184216Y73739D01*
X184189Y73601D01*
X184157Y73464D01*
X184122Y73328D01*
X184083Y73192D01*
X184040Y73058D01*
X183993Y72925D01*
X183943Y72794D01*
X183888Y72664D01*
X183831Y72535D01*
X183769Y72408D01*
X183704Y72283D01*
X183636Y72160D01*
X183564Y72039D01*
X183489Y71920D01*
X183410Y71803D01*
X183328Y71688D01*
X183243Y71576D01*
X183155Y71466D01*
X183064Y71359D01*
X182970Y71254D01*
X182873Y71152D01*
X182773Y71053D01*
X182670Y70956D01*
X182565Y70863D01*
X182457Y70772D01*
X182346Y70685D01*
X182233Y70601D01*
X182118Y70520D01*
X182001Y70442D01*
X181881Y70368D01*
X181759Y70297D01*
X181636Y70229D01*
X181510Y70165D01*
X181383Y70105D01*
X181254Y70048D01*
X181124Y69994D01*
X180992Y69945D01*
X180858Y69899D01*
X180724Y69857D01*
X180588Y69819D01*
X180452Y69784D01*
X180314Y69754D01*
X180176Y69727D01*
X180037Y69705D01*
X179897Y69686D01*
X179757Y69671D01*
X179617Y69660D01*
X179476Y69653D01*
X179335Y69650D01*
X179194Y69651D01*
X179054Y69656D01*
X178913Y69665D01*
X178773Y69678D01*
X178633Y69695D01*
X178493Y69715D01*
X178355Y69740D01*
X178217Y69769D01*
X178080Y69801D01*
X177944Y69837D01*
X177809Y69878D01*
X177675Y69922D01*
X177542Y69969D01*
X177411Y70021D01*
X177281Y70076D01*
X177153Y70134D01*
X177027Y70197D01*
X176902Y70262D01*
X176780Y70332D01*
X176659Y70404D01*
X176540Y70480D01*
X176424Y70560D01*
X176310Y70643D01*
X176198Y70728D01*
X176089Y70817D01*
X175982Y70909D01*
X175878Y71004D01*
X175777Y71102D01*
X175678Y71203D01*
X175583Y71306D01*
X175490Y71412D01*
X175400Y71521D01*
X175314Y71632D01*
X175230Y71745D01*
X175150Y71861D01*
X175073Y71979D01*
X175000Y72099D01*
X174929Y72222D01*
X174863Y72346D01*
X174800Y72472D01*
X174740Y72599D01*
X174684Y72728D01*
X174632Y72859D01*
X174583Y72991D01*
X174538Y73125D01*
X174497Y73260D01*
X174460Y73396D01*
X174426Y73532D01*
X174397Y73670D01*
X174371Y73809D01*
X174350Y73948D01*
X174332Y74088D01*
X174318Y74228D01*
X174308Y74368D01*
X174302Y74509D01*
X174300Y74650D01*
D13*
X138433Y127635D02*
X134620Y127635D01*
X136527Y127635D02*
X136527Y139075D01*
X138433Y139075D02*
X134620Y139075D01*
X148136Y139075D02*
X150042Y137168D01*
X148136Y139075D02*
X144323Y139075D01*
X142416Y137168D01*
X142416Y129542D01*
X144323Y127635D01*
X148136Y127635D01*
X150042Y129542D01*
X154110Y137168D02*
X156017Y139075D01*
X159830Y139075D01*
X161736Y137168D01*
X161736Y135262D01*
X159830Y133355D01*
X157923Y133355D01*
X159830Y133355D02*
X161736Y131448D01*
X161736Y129542D01*
X159830Y127635D01*
X156017Y127635D01*
X154110Y129542D01*
D15*
X229098Y83058D02*
X240792Y83058D01*
X229098Y83058D02*
X229098Y88905D01*
X231047Y90854D01*
X234945Y90854D01*
X236894Y88905D01*
X236894Y83058D01*
X236894Y86956D02*
X240792Y90854D01*
X240792Y94752D02*
X240792Y102548D01*
X240792Y94752D02*
X232996Y102548D01*
X231047Y102548D01*
X229098Y100599D01*
X229098Y96701D01*
X231047Y94752D01*
X126492Y83058D02*
X114798Y83058D01*
X114798Y88905D01*
X116747Y90854D01*
X120645Y90854D01*
X122594Y88905D01*
X122594Y83058D01*
X122594Y86956D02*
X126492Y90854D01*
X118696Y94752D02*
X114798Y98650D01*
X126492Y98650D01*
X126492Y94752D02*
X126492Y102548D01*
X254498Y83058D02*
X266192Y83058D01*
X254498Y83058D02*
X254498Y88905D01*
X256447Y90854D01*
X260345Y90854D01*
X262294Y88905D01*
X262294Y83058D01*
X262294Y86956D02*
X266192Y90854D01*
X266192Y100599D02*
X254498Y100599D01*
X260345Y94752D01*
X260345Y102548D01*
X253492Y83058D02*
X241798Y83058D01*
X241798Y88905D01*
X243747Y90854D01*
X247645Y90854D01*
X249594Y88905D01*
X249594Y83058D01*
X249594Y86956D02*
X253492Y90854D01*
X243747Y94752D02*
X241798Y96701D01*
X241798Y100599D01*
X243747Y102548D01*
X245696Y102548D01*
X247645Y100599D01*
X247645Y98650D01*
X247645Y100599D02*
X249594Y102548D01*
X251543Y102548D01*
X253492Y100599D01*
X253492Y96701D01*
X251543Y94752D01*
X267198Y83058D02*
X278892Y83058D01*
X267198Y83058D02*
X267198Y88905D01*
X269147Y90854D01*
X273045Y90854D01*
X274994Y88905D01*
X274994Y83058D01*
X274994Y86956D02*
X278892Y90854D01*
X267198Y94752D02*
X267198Y102548D01*
X267198Y94752D02*
X273045Y94752D01*
X271096Y98650D01*
X271096Y100599D01*
X273045Y102548D01*
X276943Y102548D01*
X278892Y100599D01*
X278892Y96701D01*
X276943Y94752D01*
X205647Y90854D02*
X203698Y88905D01*
X203698Y85007D01*
X205647Y83058D01*
X213443Y83058D01*
X215392Y85007D01*
X215392Y88905D01*
X213443Y90854D01*
X207596Y94752D02*
X203698Y98650D01*
X215392Y98650D01*
X215392Y94752D02*
X215392Y102548D01*
X218347Y90854D02*
X216398Y88905D01*
X216398Y85007D01*
X218347Y83058D01*
X226143Y83058D01*
X228092Y85007D01*
X228092Y88905D01*
X226143Y90854D01*
X228092Y94752D02*
X228092Y102548D01*
X228092Y94752D02*
X220296Y102548D01*
X218347Y102548D01*
X216398Y100599D01*
X216398Y96701D01*
X218347Y94752D01*
D12*
X74450Y93500D02*
X74450Y33500D01*
X74450Y93500D02*
X14450Y93500D01*
X14450Y33500D01*
X74450Y33500D01*
X26950Y63500D02*
X26955Y63929D01*
X26971Y64359D01*
X26997Y64787D01*
X27034Y65215D01*
X27082Y65642D01*
X27139Y66068D01*
X27208Y66492D01*
X27286Y66914D01*
X27375Y67334D01*
X27474Y67752D01*
X27584Y68167D01*
X27704Y68580D01*
X27833Y68989D01*
X27973Y69396D01*
X28123Y69798D01*
X28282Y70197D01*
X28451Y70592D01*
X28630Y70982D01*
X28819Y71368D01*
X29016Y71749D01*
X29223Y72126D01*
X29440Y72497D01*
X29665Y72862D01*
X29899Y73222D01*
X30142Y73577D01*
X30394Y73925D01*
X30654Y74267D01*
X30922Y74602D01*
X31199Y74931D01*
X31483Y75252D01*
X31776Y75567D01*
X32076Y75874D01*
X32383Y76174D01*
X32698Y76467D01*
X33019Y76751D01*
X33348Y77028D01*
X33683Y77296D01*
X34025Y77556D01*
X34373Y77808D01*
X34728Y78051D01*
X35088Y78285D01*
X35453Y78510D01*
X35824Y78727D01*
X36201Y78934D01*
X36582Y79131D01*
X36968Y79320D01*
X37358Y79499D01*
X37753Y79668D01*
X38152Y79827D01*
X38554Y79977D01*
X38961Y80117D01*
X39370Y80246D01*
X39783Y80366D01*
X40198Y80476D01*
X40616Y80575D01*
X41036Y80664D01*
X41458Y80742D01*
X41882Y80811D01*
X42308Y80868D01*
X42735Y80916D01*
X43163Y80953D01*
X43591Y80979D01*
X44021Y80995D01*
X44450Y81000D01*
X44879Y80995D01*
X45309Y80979D01*
X45737Y80953D01*
X46165Y80916D01*
X46592Y80868D01*
X47018Y80811D01*
X47442Y80742D01*
X47864Y80664D01*
X48284Y80575D01*
X48702Y80476D01*
X49117Y80366D01*
X49530Y80246D01*
X49939Y80117D01*
X50346Y79977D01*
X50748Y79827D01*
X51147Y79668D01*
X51542Y79499D01*
X51932Y79320D01*
X52318Y79131D01*
X52699Y78934D01*
X53076Y78727D01*
X53447Y78510D01*
X53812Y78285D01*
X54172Y78051D01*
X54527Y77808D01*
X54875Y77556D01*
X55217Y77296D01*
X55552Y77028D01*
X55881Y76751D01*
X56202Y76467D01*
X56517Y76174D01*
X56824Y75874D01*
X57124Y75567D01*
X57417Y75252D01*
X57701Y74931D01*
X57978Y74602D01*
X58246Y74267D01*
X58506Y73925D01*
X58758Y73577D01*
X59001Y73222D01*
X59235Y72862D01*
X59460Y72497D01*
X59677Y72126D01*
X59884Y71749D01*
X60081Y71368D01*
X60270Y70982D01*
X60449Y70592D01*
X60618Y70197D01*
X60777Y69798D01*
X60927Y69396D01*
X61067Y68989D01*
X61196Y68580D01*
X61316Y68167D01*
X61426Y67752D01*
X61525Y67334D01*
X61614Y66914D01*
X61692Y66492D01*
X61761Y66068D01*
X61818Y65642D01*
X61866Y65215D01*
X61903Y64787D01*
X61929Y64359D01*
X61945Y63929D01*
X61950Y63500D01*
X61945Y63071D01*
X61929Y62641D01*
X61903Y62213D01*
X61866Y61785D01*
X61818Y61358D01*
X61761Y60932D01*
X61692Y60508D01*
X61614Y60086D01*
X61525Y59666D01*
X61426Y59248D01*
X61316Y58833D01*
X61196Y58420D01*
X61067Y58011D01*
X60927Y57604D01*
X60777Y57202D01*
X60618Y56803D01*
X60449Y56408D01*
X60270Y56018D01*
X60081Y55632D01*
X59884Y55251D01*
X59677Y54874D01*
X59460Y54503D01*
X59235Y54138D01*
X59001Y53778D01*
X58758Y53423D01*
X58506Y53075D01*
X58246Y52733D01*
X57978Y52398D01*
X57701Y52069D01*
X57417Y51748D01*
X57124Y51433D01*
X56824Y51126D01*
X56517Y50826D01*
X56202Y50533D01*
X55881Y50249D01*
X55552Y49972D01*
X55217Y49704D01*
X54875Y49444D01*
X54527Y49192D01*
X54172Y48949D01*
X53812Y48715D01*
X53447Y48490D01*
X53076Y48273D01*
X52699Y48066D01*
X52318Y47869D01*
X51932Y47680D01*
X51542Y47501D01*
X51147Y47332D01*
X50748Y47173D01*
X50346Y47023D01*
X49939Y46883D01*
X49530Y46754D01*
X49117Y46634D01*
X48702Y46524D01*
X48284Y46425D01*
X47864Y46336D01*
X47442Y46258D01*
X47018Y46189D01*
X46592Y46132D01*
X46165Y46084D01*
X45737Y46047D01*
X45309Y46021D01*
X44879Y46005D01*
X44450Y46000D01*
X44021Y46005D01*
X43591Y46021D01*
X43163Y46047D01*
X42735Y46084D01*
X42308Y46132D01*
X41882Y46189D01*
X41458Y46258D01*
X41036Y46336D01*
X40616Y46425D01*
X40198Y46524D01*
X39783Y46634D01*
X39370Y46754D01*
X38961Y46883D01*
X38554Y47023D01*
X38152Y47173D01*
X37753Y47332D01*
X37358Y47501D01*
X36968Y47680D01*
X36582Y47869D01*
X36201Y48066D01*
X35824Y48273D01*
X35453Y48490D01*
X35088Y48715D01*
X34728Y48949D01*
X34373Y49192D01*
X34025Y49444D01*
X33683Y49704D01*
X33348Y49972D01*
X33019Y50249D01*
X32698Y50533D01*
X32383Y50826D01*
X32076Y51126D01*
X31776Y51433D01*
X31483Y51748D01*
X31199Y52069D01*
X30922Y52398D01*
X30654Y52733D01*
X30394Y53075D01*
X30142Y53423D01*
X29899Y53778D01*
X29665Y54138D01*
X29440Y54503D01*
X29223Y54874D01*
X29016Y55251D01*
X28819Y55632D01*
X28630Y56018D01*
X28451Y56408D01*
X28282Y56803D01*
X28123Y57202D01*
X27973Y57604D01*
X27833Y58011D01*
X27704Y58420D01*
X27584Y58833D01*
X27474Y59248D01*
X27375Y59666D01*
X27286Y60086D01*
X27208Y60508D01*
X27139Y60932D01*
X27082Y61358D01*
X27034Y61785D01*
X26997Y62213D01*
X26971Y62641D01*
X26955Y63071D01*
X26950Y63500D01*
D13*
X8040Y61742D02*
X7235Y60937D01*
X7235Y59327D01*
X8040Y58522D01*
X8845Y58522D01*
X9650Y59327D01*
X9650Y60937D01*
X10455Y61742D01*
X11260Y61742D01*
X12065Y60937D01*
X12065Y59327D01*
X11260Y58522D01*
X8845Y64135D02*
X7235Y65745D01*
X12065Y65745D01*
X12065Y64135D02*
X12065Y67355D01*
D16*
X109299Y76599D02*
X109299Y55500D01*
X109299Y76599D02*
X93901Y76599D01*
X93901Y55500D01*
D15*
X95827Y82530D02*
X107521Y82530D01*
X107521Y90326D01*
X95827Y94224D02*
X95827Y102020D01*
X95827Y94224D02*
X107521Y94224D01*
X107521Y102020D01*
X101674Y98122D02*
X101674Y94224D01*
X95827Y105918D02*
X107521Y105918D01*
X107521Y111765D01*
X105572Y113714D01*
X97776Y113714D01*
X95827Y111765D01*
X95827Y105918D01*
X99725Y117612D02*
X95827Y121510D01*
X107521Y121510D01*
X107521Y117612D02*
X107521Y125408D01*
M02*
